<svg width="48" height="45" viewBox="0 0 48 45" fill="none" xmlns="http://www.w3.org/2000/svg">
<path d="M19.3251 24.0248C19.1195 23.8497 18.9729 23.6848 18.8365 23.4711C18.4701 22.9051 18.0914 22.388 17.7046 21.8302L15.8621 19.1774L14.2904 16.9665L13.6736 16.1074L12.3828 14.326L11.5013 13.0576L10.1556 10.9973L8.98702 9.21799C8.80379 8.93908 8.63277 8.64388 8.53912 8.3161C8.51469 8.23263 8.65924 8.07587 8.73253 8.04126C9.47562 7.67277 10.2004 7.35924 10.9801 7.05387L14.7546 5.57787C15.5506 5.26638 16.308 4.99561 17.0898 4.6658C17.8715 4.33599 18.7062 4.06929 19.5409 3.78834L21.4302 3.15111L22.9083 2.61568L24.9482 1.95403L28.1852 0.903521L28.8428 0.706042C29.309 0.567604 29.7488 0.392519 30.2048 0.221506C30.445 0.131928 30.6954 -0.043156 30.9682 0.00977645C31.1311 0.046422 31.3225 0.272403 31.4182 0.418986L32.5338 2.12504C32.8677 2.63604 33.1364 3.14908 33.4825 3.65397L34.4577 5.07501L35.0216 5.9036C35.3983 6.45736 35.7546 6.99075 36.1088 7.55876L36.9801 8.95943L38.6903 11.6162L39.8141 13.3488L40.8951 14.9632L41.7257 16.2132C41.7726 16.2845 41.6993 16.4168 41.626 16.4412L41.0132 16.6367C40.2579 16.8789 39.5291 17.1131 38.7819 17.3838L36.1882 18.3224L30.274 20.3196L28.625 20.9079L26.1473 21.7609C25.1823 22.0928 24.2621 22.4246 23.291 22.7361L21.5707 23.2838L20.5202 23.6197L19.3251 24.0228V24.0248Z" fill="#DEDAA9"/>
<path d="M12.7058 41.4354L11.5841 40.7453L10.275 39.9004L7.87268 38.3938L6.28268 37.3413L5.28917 36.6532L4.55423 36.1238L2.87871 34.939L2.08065 34.3811C1.4475 33.9394 0.81231 33.5566 0.240232 33.0232C0.132331 32.9214 0 32.6344 0 32.4796L0.0203583 29.9694L0.028502 25.8672L0.0529321 24.3138L0.103829 20.5841L0.175084 18.1227C0.191371 17.5242 0.219873 16.9541 0.209694 16.3556C0.20155 15.8283 0.215801 15.3255 0.246339 14.8022C0.26059 14.564 0.352205 14.393 0.525253 14.2322L1.76306 13.0819L3.03954 12.0721L6.6247 9.23211C6.8405 9.0611 7.00948 8.86566 7.28432 8.79236C7.45533 8.74758 7.5612 8.87991 7.65281 9.00206C8.00909 9.47641 8.32261 9.95281 8.64428 10.4496L9.42401 11.6528L12.5226 16.2477L14.6867 19.214L16.1994 21.4432C16.5312 21.9318 16.7857 22.4367 17.1379 22.9111C17.5756 23.4974 17.9807 24.0695 18.3228 24.721C18.3167 24.9449 18.3004 25.1831 18.2963 25.405L18.2617 27.6791L18.2373 30.6616L18.1803 32.3493L18.1599 34.3282C18.1416 36.2114 18.0703 38.0376 18.0581 39.9207L18.0316 43.7502L18.0255 44.2083C18.0215 44.4363 18.0378 44.6256 17.9726 44.8699L16.8712 44.1777L15.6823 43.4265L14.4546 42.6264C13.8561 42.2375 13.3105 41.812 12.7018 41.4395L12.7058 41.4354ZM6.79164 25.2299L6.84254 22.4123L6.8914 19.5947L6.91379 18.6663C6.9199 18.367 6.93619 18.0881 6.90769 17.7888L6.25417 17.3695L4.3425 16.1703C4.314 16.152 4.23053 16.1439 4.20202 16.1622C4.18166 16.1744 4.14909 16.2497 4.14705 16.2843L4.09209 17.8397L3.97197 23.7132C3.97197 23.7946 3.99029 23.9657 4.04526 23.9982C4.7171 24.3912 5.37875 24.7922 6.02412 25.2197C6.26435 25.3785 6.45572 25.4946 6.72649 25.631C6.76925 25.4702 6.78553 25.3724 6.78961 25.2299H6.79164ZM7.00337 31.6124C7.03391 31.4027 7.00744 31.193 7.01355 31.0016L7.09702 28.5871C7.10517 28.355 7.10924 28.1473 7.08481 27.9193C6.39872 27.4612 5.7391 27.0765 5.03673 26.6713L3.8885 26.0117L3.27163 25.6615C3.20852 26.1664 3.25738 26.5756 3.25738 27.0459V28.7153C3.25331 29.0879 3.21666 29.4238 3.24517 29.8066L5.04691 30.91L6.5453 31.82C6.68374 31.9055 6.76518 31.9707 6.94637 32.0155L7.00337 31.6144V31.6124ZM15.4807 38.6911L15.611 36.7224L15.6558 35.5049L12.4167 33.6034C11.8833 33.2899 11.4232 32.9642 10.8532 32.669C10.7779 32.9133 10.7799 33.123 10.7575 33.3612L10.6476 35.2932C10.6374 35.4011 10.6394 35.6637 10.729 35.7207L12.714 37.0074L15.1305 38.5872C15.2425 38.6605 15.3443 38.7196 15.4787 38.6931L15.4807 38.6911Z" fill="#DEDAA9"/>
<path d="M19.1836 42.9277C19.1836 42.4697 19.1958 42.0564 19.206 41.6248L19.2487 39.8963L19.2935 38.8051L19.3159 36.2969L19.3363 30.6433C19.3383 29.9695 19.3689 29.3404 19.3342 28.6726C19.2976 28.015 19.3057 27.3697 19.3342 26.71L19.3994 25.118C19.7597 24.9694 20.0753 24.8228 20.4275 24.7088L21.6388 24.3199L22.7932 23.9148L24.9736 23.2002C25.8531 22.9111 26.7122 22.6627 27.5937 22.3289C28.0457 23.3285 28.516 24.2548 29.0168 25.2015L29.9981 27.0582C30.2139 27.5346 30.4358 27.9702 30.6781 28.4385L32.2172 31.4047L33.3267 33.4447C33.3593 34.483 33.3186 35.4744 33.3003 36.5107L33.2596 38.7847L33.286 39.9309L21.4414 44.2286C20.7919 44.4648 20.1852 44.6684 19.5277 44.8577C19.4645 44.8761 19.3424 44.8618 19.2915 44.8414C19.2406 44.8211 19.1856 44.701 19.1856 44.6379V42.9277H19.1836Z" fill="#DEDAA9"/>
<path d="M40.4605 37.2334L40.5032 35.9468L40.546 34.6845L40.5887 33.3327L40.6111 32.3698L39.3591 32.8238L35.8228 33.974L35.7902 35.4012L35.7454 36.9484L35.7047 38.1699L35.6619 39.4729L35.6192 40.5254L35.5785 41.5454L35.4624 43.6932C35.4482 43.9599 34.4933 44.1371 34.2042 44.2389C34.1778 44.0027 34.1941 43.8358 34.2002 43.622L34.2389 42.0116L34.3121 39.4179L34.3915 37.1418L34.4038 34.6174C34.4058 33.9537 34.4893 33.3551 34.1452 32.7484L33.3085 31.2704C32.9176 30.5782 32.5389 29.9125 32.1786 29.204L31.7246 28.3103L30.1447 25.1771L29.2551 23.3774C29.027 22.9173 28.797 22.4918 28.6199 21.995C28.9354 21.8729 29.1797 21.7588 29.4729 21.6733C30.7412 21.3048 31.9282 20.8101 33.1822 20.3846L36.7694 19.1692L39.2104 18.3243L40.9246 17.7624L41.8367 17.4469C42.0036 17.3899 42.1624 17.4062 42.2561 17.5853L43.2435 19.4889L44.7154 22.5162L45.5908 24.3077L47.645 28.5912L47.9789 29.3302C48.0339 29.4503 47.9646 29.5399 47.9606 29.66L47.7509 39.2937C47.7468 39.4037 47.698 39.5279 47.5941 39.5584L46.6698 39.821C46.5436 39.8577 46.4316 39.6704 46.4316 39.5462L46.6373 30.3583L42.0199 31.9524C42.0016 32.0624 41.9772 32.1988 41.9751 32.3148L41.9405 34.3079L41.8978 35.6903L41.855 37.1622L41.8163 38.3939L41.6881 41.4416C41.684 41.5352 41.6575 41.7734 41.572 41.804L40.5663 42.1501C40.5337 42.1623 40.4686 42.1704 40.4401 42.1704C40.4055 42.1704 40.3566 42.0666 40.3587 42.0299L40.3831 39.7823L40.4279 38.3511L40.4686 37.2396L40.4605 37.2334ZM46.2525 29.1042C46.2871 29.092 46.34 28.9658 46.3258 28.9556L45.6193 27.6181L42.0769 20.3622L41.3074 18.8068L39.4975 19.4359L40.0675 20.5536L40.9124 22.1966L42.6795 25.7328L44.5688 29.6987L46.2505 29.1022L46.2525 29.1042ZM40.9165 28.9271L41.7553 30.6942L43.4328 30.1038L43.2638 29.772L40.4767 24.1876L38.8481 20.9364L38.2699 19.8472L37.1562 20.2116C36.9425 20.2808 36.7674 20.3378 36.5312 20.4396L37.3476 22.0113L38.7239 24.6722L40.2915 27.6873C40.5093 28.1046 40.717 28.5016 40.9185 28.9251L40.9165 28.9271ZM38.6893 31.7163L40.4299 31.1014L39.7275 29.7659L36.6493 23.6441L35.2812 20.8834L33.4062 21.5614L34.1411 22.9946L35.666 26.0443C35.8716 26.4556 36.0386 26.8404 36.2605 27.2353C36.8488 28.2838 37.4107 29.3119 37.936 30.3929L38.6933 31.7142L38.6893 31.7163ZM34.1554 30.1832L35.4929 32.7464L37.4189 32.1764L36.6005 30.621L34.7397 26.9829L32.2356 21.997C32.0605 22.0459 31.8956 22.0785 31.7388 22.1355L30.2954 22.6567L31.236 24.4726L32.089 26.1868L32.5756 27.1233L33.4489 28.8579L34.1554 30.1853V30.1832Z" fill="#DEDAA9"/>
</svg>
