<svg width="48" height="72" viewBox="0 0 48 72" fill="none" xmlns="http://www.w3.org/2000/svg">
<path d="M33.6925 46.7213L34.1038 41.8257C34.1527 41.2546 34.1299 40.6965 34.2669 40.1286C35.4582 41.1926 36.5319 42.0999 37.8342 42.9517C39.8054 44.2442 40.0502 45.7716 41.6886 47.5829L42.8668 46.6299C41.8746 45.1025 41.0032 43.5849 39.5998 42.4589C37.5959 40.8532 34.75 39.2344 34.2963 36.656L33.7023 33.2846L36.9073 33.9309C38.4151 34.2344 40.0992 36.2057 44.7271 35.1384C46.7702 37.1325 47.1618 38.9341 47.684 41.6201C48.6762 46.718 47.1847 52.9027 45.2591 57.6612C44.5574 59.3975 43.7121 60.9445 42.7656 62.5568C41.3949 64.9001 39.9262 67.1227 38.0332 69.0483C36.8061 70.295 35.4321 71.0032 33.8329 71.5483C29.6814 72.9614 26.3068 70.1775 23.2226 67.7689L17.7298 63.4771C14.0744 60.6214 8.20629 54.1789 7.09663 49.5216C6.51569 47.0803 7.23044 45.0503 8.38579 42.658C10.0372 47.0575 10.3212 47.9387 13.6599 51.3231C14.1038 51.7702 14.502 52.0868 15.1058 52.3936C15.4484 52.0542 15.7259 51.6723 15.9576 51.2187C12.5601 49.0124 10.3995 44.6293 9.51177 40.8825L10.3375 39.7729C11.1306 38.7056 12.1684 37.8767 13.265 36.9498C14.156 39.7305 14.3355 41.0849 16.8159 42.7755C17.5535 43.2781 17.9419 43.8558 18.1736 44.7533C18.2683 45.1221 19.4693 45.047 19.5444 44.6456C19.8969 42.7331 17.3479 41.6038 16.297 40.2429L20.0764 39.8316C20.3701 39.5673 20.3701 38.9178 20.233 38.4348C18.6273 38.3989 17.1847 38.6175 15.5202 38.859C15.1514 37.8603 14.8969 36.878 14.7565 35.8369C15.8009 34.8708 16.9008 34.0712 17.5731 32.8081C19.1527 29.8349 17.596 26.2873 15.7683 23.771C14.5509 22.0934 13.5 20.3604 12.9843 18.3499C12.5601 16.7018 12.8505 15.1385 13.4086 13.5915C13.8133 12.472 14.2213 11.4146 14.7141 10.3212C15.0013 9.68482 15.1351 9.06145 15.0013 8.37608C14.1919 4.30951 11.7115 3.80037 14.2833 1.94006C14.799 1.568 15.9543 1.4505 16.4961 1.84868C17.5046 3.43157 18.3695 4.99815 19.267 6.61694C19.6097 7.23378 20.4354 7.41981 20.9771 7.1783C21.6854 6.86172 21.7865 6.12086 21.6886 5.39306L21.1142 1.18615C21.5026 -0.458759 24.8903 -0.200927 25.0405 0.797766L25.7454 5.53992C25.8596 6.30036 26.0424 7.16525 26.5515 7.73639C26.8844 8.10845 27.7036 7.71355 27.8668 7.28927C28.4902 5.65089 28.9928 4.08105 29.5085 2.39698C29.577 2.17831 29.7141 1.87805 29.8675 1.79972C30.5006 1.47009 32.9745 2.59933 33.203 3.61434C33.0267 4.92961 32.6514 6.24488 32.387 7.55689C32.263 8.17046 32.5829 8.73509 32.9876 9.10715C34.2408 10.2658 35.2656 11.4407 35.8759 13.0889L34.8218 13.2455C32.6612 13.5654 30.5985 14.0386 28.4934 14.5804C26.9367 14.9818 25.4125 15.5105 24.1038 16.4472C22.795 17.3839 22.1456 18.8917 21.7865 20.3669C21.4928 21.581 21.1664 22.5275 20.7193 23.7644L22.5503 24.3062C23.4412 22.4165 23.562 19.6783 24.9621 18.2781C27.1129 16.1306 30.3733 15.9218 33.4086 15.3539C36.5319 14.7697 39.5607 14.3356 42.7134 14.0451C43.6827 13.957 44.6357 13.8362 45.6181 13.8591C46.2512 13.8754 46.6331 14.848 46.7963 15.3343C47.4033 17.1554 46.731 19.4857 45.8727 19.564C43.4216 19.7892 41.0587 19.923 38.6272 20.3277C35.3896 20.8663 32.746 22.224 30.9869 25.034C29.8511 26.8486 29.7402 28.9439 30.8074 30.8173C31.359 31.7833 31.7147 32.7102 31.9171 33.8166C32.3152 36.0196 32.485 38.1378 32.4132 40.3962C32.3936 41.0066 32.3055 41.5222 31.8649 41.9791C30.3831 43.5131 28.6305 44.4563 26.6201 45.2853C26.6821 45.7911 26.7931 46.2122 26.9824 46.7311C28.1606 46.5418 29.0254 46.0947 29.9784 45.5333L32.0737 44.2996C32.1259 44.6391 31.9334 47.8832 31.9301 47.8995C31.7049 48.983 31.4569 50.233 30.9771 51.1991C29.7761 52.6873 27.8505 53.1051 26.0946 54.3845C24.7304 55.3799 23.6371 56.545 22.9778 58.1377L23.8525 59.0418C24.2343 58.4608 24.4171 57.9909 24.7957 57.5144C26.1305 55.8205 28.278 54.577 30.3994 53.5392C29.0842 58.0039 26.7833 61.6266 29.2898 66.2676C29.8381 66.2611 30.2852 65.8531 30.5267 65.4517C29.1462 63.5196 29.763 60.0992 30.4908 58.0725L32.9451 51.2219C34.3746 53.3172 35.4712 55.2298 37.808 56.1991C38.2813 56.0849 38.8296 55.4289 38.7806 54.923C38.0463 54.3681 37.1161 54.0255 36.5026 53.3466C35.1971 51.9008 34.2343 50.1743 33.5522 48.3695L33.6925 46.7082V46.7213Z" fill="#DEDAA9"/>
<path d="M5.55671 44.8152C4.33609 43.9699 2.58675 41.78 1.87526 40.5659C0.847193 38.8165 0.230353 36.2121 0.050849 34.1495C-0.197192 31.31 0.481658 28.5457 1.66312 25.9706L3.28191 22.4524C4.46337 19.8871 4.54496 18.2193 4.3622 15.3049L4.06194 10.5105C4.02277 9.90995 4.45032 9.46609 4.8387 9.1593C6.28452 8.02027 8.05671 7.95826 9.58086 8.96022C10.0312 9.25722 10.4033 9.61622 10.4686 10.2135L11.2453 17.0966L11.5325 19.0875C11.7741 20.7716 12.6651 22.1815 13.5169 23.6142L15.7656 27.3871C16.7447 29.032 16.6859 31.3166 15.462 32.6906C14.2382 34.0646 12.8641 34.9817 11.4444 36.075C8.59195 38.2715 6.72185 41.2806 5.55998 44.8185L5.55671 44.8152Z" fill="#DEDAA9"/>
<path d="M43.7963 33.4412C40.6729 33.9503 40.0593 33.6272 37.2754 32.5339C35.6664 32.3642 34.0476 31.8453 32.8107 30.7976C31.7402 29.8903 31.4007 28.637 31.874 27.3381C33.0065 24.2115 35.402 22.7395 38.5156 21.9628C40.6729 22.1912 41.9196 24.9164 41.7891 26.8518C44.1553 28.3466 44.4066 30.9477 43.7995 33.4412H43.7963Z" fill="#DEDAA9"/>
</svg>
