<svg width="85" height="71" viewBox="0 0 85 71" fill="none" xmlns="http://www.w3.org/2000/svg">
<path d="M31.5431 66.8628L22.7231 63.5778C20.4247 62.7207 14.3247 65.2572 11.854 66.1298L4.68365 68.6585C3.81119 68.9649 2.93139 69.1355 2.0296 69.3294C1.20846 69.504 0.423976 69.0928 0.321333 68.1C0.270012 67.6307 0.189365 67.0257 0.182033 66.5176L0.0390669 56.717C0.0134062 54.836 -0.0342493 53.0481 0.0390669 51.1671L0.401982 42.2197C0.522954 39.2606 0.368989 36.4294 0.368989 33.4857V20.1519L0.548615 14.5787C0.621931 12.1819 0.757565 9.93246 1.24512 7.55503C1.31843 7.2021 1.87197 6.90347 2.1799 6.79099L7.28638 4.93326L15.2742 1.84997C16.9788 1.19065 18.9657 0.170647 20.8132 0.601144C23.7056 1.2721 26.3449 2.44724 29.1383 3.43234L37.5623 6.40704L42.3755 7.93899C44.8023 7.24088 46.9835 6.25966 49.2929 5.28231L53.9559 3.30436C56.8702 2.06716 59.7405 0.930804 62.7905 0C65.2685 0.356808 67.3801 1.34967 69.6089 2.36967L75.2139 4.94102C78.3262 6.36825 80.9509 7.10514 83.9092 8.69914C84.6094 9.07534 84.866 9.89368 84.767 10.7004C84.5434 12.4728 84.4811 14.1405 84.3968 15.9245L84.1695 20.6483L83.9935 26.4698L84.0045 42.6696C84.0045 45.3728 84.1182 47.9403 84.0119 50.6125L83.8249 55.2394L83.6819 63.5662C83.6599 64.8189 83.5096 66.0483 83.2237 67.2235C82.9781 68.2318 81.97 68.9183 81.0022 68.7089C77.615 67.972 74.3708 67.1381 71.0899 66.0638L65.7011 64.3031C63.9269 63.7252 63.3147 63.4421 61.4561 63.5584L51.2248 67.2584C48.5781 68.2163 46.1073 69.0579 43.435 69.8259C42.2069 70.1788 40.9532 70.0818 39.7362 69.6668L31.5431 66.8667V66.8628ZM19.7611 57.5354C19.8015 58.7609 19.7758 59.7344 19.8748 60.9444C20.586 60.991 21.0992 60.9367 21.6417 60.6652L21.4951 46.292L21.4291 34.4049C24.5304 35.0758 27.3824 35.8786 30.3773 36.7047L41.0045 39.6406L41.0449 67.4407C41.811 67.7315 42.5772 67.6462 43.2297 67.2972L43.2773 56.6705C43.281 55.7319 43.402 54.836 43.2553 53.9091L43.1197 48.9758L43.0794 39.7803L53.2887 36.6815L62.6365 33.9123L62.3726 48.0761L62.2736 60.8979L64.4364 61.1577L64.5977 56.6201L64.748 40.5016L64.9166 34.0713L77.0761 38.2716L81.0389 39.5863C81.5118 38.9542 81.5998 37.6627 81.1892 37.0421L76.3613 35.4016L66.9915 32.0701L64.8616 31.3642L64.8836 3.36641C64.8836 2.98633 64.9166 2.58298 64.7407 2.44336C64.1908 2.00899 62.9224 2.47439 62.6218 3.15698L62.5925 27.4393L62.3909 31.4069L58.4538 32.5937L46.5619 36.2277C45.3632 36.5923 44.3807 36.887 43.094 37.1469L43.1307 32.7604L43.1894 17.7318C43.1967 16.0874 42.9951 14.571 43.127 12.9692C43.2003 12.0966 43.1747 11.3481 43.1527 10.3707C42.3609 10.3125 41.7377 10.3203 41.0229 10.5103L41.0119 37.2477L21.4364 31.946L21.3851 18.9845L21.2128 15.3777L21.0442 3.35477C20.9929 2.90101 19.7098 2.76914 19.4825 3.12595C19.2259 3.90938 19.2186 4.93714 19.2113 5.8408L19.149 15.9051V17.7396L19.2956 24.104L19.3726 31.8258L2.27888 37.4532C1.97462 38.0079 1.94529 38.8378 2.11025 39.4041C2.35586 39.501 2.85441 39.5126 3.12568 39.4545L9.84512 37.143C13.049 36.0415 16.121 35.0176 19.5045 34.2575L19.6145 52.9395L19.7648 57.5431L19.7611 57.5354Z" fill="#A79854"/>
</svg>
