<svg width="48" height="64" viewBox="0 0 48 64" fill="none" xmlns="http://www.w3.org/2000/svg">
<path d="M26.8336 61.6012C27.3363 62.2038 28.2508 62.8677 27.7909 63.6143C27.6759 63.8009 27.347 64.0222 27.0608 63.9982C25.4965 63.8596 23.253 63.2116 21.7128 62.745C20.2073 62.2891 20.7448 61.2919 20.0281 61.4332L17.1589 61.9958L15.2202 62.3024C14.5089 62.4144 13.2655 62.5744 12.8964 61.8545C12.4124 60.916 14.1532 59.9668 14.7897 59.6335L16.4743 58.7483C17.3888 58.2683 18.3461 57.7964 19.0387 57.0045C19.5949 56.3699 19.6885 55.4874 19.7768 54.6821C19.873 53.7809 19.9185 52.9491 19.8971 52.0452C19.8864 51.6132 19.9399 51.1946 19.9452 50.7627L19.9987 47.2965L20.0575 43.753C20.0629 43.3557 20.0629 42.9851 20.0575 42.5905L20.0147 40.0948L19.2954 41.0574C18.8596 41.6413 18.3221 42.1532 17.6402 42.4305C17.314 42.5638 16.953 42.3798 16.8513 42.0625L16.6802 41.524C16.4101 41.6679 16.1588 41.8599 15.9448 42.1052C14.7709 43.4437 14.3351 44.1529 12.629 44.7422C12.0568 44.9395 11.5033 45.1235 10.8936 45.1421C10.4283 45.1555 10.0058 44.6942 10.0967 44.2409C10.201 43.721 10.4176 43.2997 10.6315 42.7878C10.2999 42.7665 10.0031 42.8891 9.75443 43.0837C9.50575 43.2784 9.22764 43.3584 8.95757 43.4997C8.09652 43.9423 7.29164 44.4116 6.40385 44.7955C5.853 45.0328 4.89837 45.0435 4.48656 44.4942C4.29403 44.2383 4.21649 43.881 4.33682 43.5583C4.87163 42.1425 5.82091 42.0332 5.87707 41.1187C5.22995 41.1453 4.6684 41.3 4.07209 41.4626C3.2672 41.6813 2.46499 41.8332 1.62266 41.8652C1.0932 41.8866 0.534327 41.7106 0.242856 41.276C-0.115466 40.7454 -0.0539633 40.0548 0.274944 39.4949C0.8873 38.4497 1.84193 37.7111 2.88481 37.1032C6.5643 34.9569 8.12326 35.8021 10.2251 34.2503C10.9444 33.7197 11.7466 33.3864 12.6558 33.3544C14.68 33.2851 14.5249 32.0933 16.4529 31.5387C18.2846 31.0134 19.1403 29.5843 19.8596 27.9365C19.8891 27.8698 19.8516 27.7019 19.8088 27.6485C19.6056 27.3952 18.6911 28.1551 18.5199 28.3284L17.6429 29.2163C17.0626 29.8029 16.4449 30.3095 15.632 29.7202C15.1827 29.8749 14.7977 30.2375 14.4875 30.5841L13.8725 31.2694C13.3029 31.9039 12.4846 32.3279 11.6209 32.2932C11.1342 32.2746 10.554 31.9999 10.4229 31.5387L10.0914 30.3682C8.37462 30.6721 8.10722 31.3787 6.21667 31.6533C5.50805 31.7546 4.82082 31.2107 4.55074 30.7254C4.22451 30.1362 4.50528 29.4696 4.93848 29.0377C6.36374 27.6272 7.8933 27.3686 9.64747 26.582C10.8882 26.0248 10.7786 24.9342 13.6425 23.8171C14.3886 23.5264 16.9717 22.7505 17.8702 22.0466C18.5815 21.4894 19.488 20.2495 19.1617 20.0549C18.774 19.8203 15.2255 22.8465 13.228 21.7053C12.9365 21.54 12.6691 21.4867 12.3376 21.612C11.5915 21.8947 10.792 22.1186 9.99777 22.0466C9.31321 21.9853 8.66342 21.82 8.14733 21.3961C7.91469 21.2067 7.64461 20.8468 7.82912 20.5508C8.63668 19.2523 10.7037 18.5698 12.0996 17.9939C13.1826 17.5459 16.346 16.3008 17.338 15.6982C17.8434 15.3915 18.2927 15.0316 18.7419 14.669C18.9478 14.501 19.02 14.1464 18.8275 13.9517C17.6001 14.3677 15.1212 15.0609 14.0035 14.0504C13.7976 13.8638 13.6211 13.4585 13.6184 13.1705C13.6131 12.7492 13.9126 12.36 14.2415 12.1067C15.0571 11.4801 15.9288 10.9735 16.8059 10.4269L17.6054 9.9283L19.0842 8.98176C19.5896 8.65647 20.0762 8.31785 20.4399 7.84058C20.5736 7.66461 20.7474 7.30199 20.6137 7.11002C20.3356 6.71007 19.4452 7.35532 18.5681 6.93937C17.691 6.52343 18.2686 5.34759 18.7125 4.80633C19.389 3.97978 20.1886 3.28654 20.9934 2.58531C21.7047 1.96673 22.1513 1.25482 22.5524 0.404273C22.7342 0.0176598 23.4482 -0.0996576 23.8065 0.0869835C25.0393 0.732228 25.0125 2.24669 27.7534 3.91846C28.1626 4.16909 28.5396 4.41439 28.8952 4.73435C29.4782 5.25694 29.6199 6.12882 29.0985 6.76073C28.9674 6.91805 28.5824 7.0247 28.3872 6.99537L27.6224 6.88605C27.5395 6.87538 27.3898 6.95537 27.355 7.0167C27.1518 7.38465 28.815 8.84844 29.1653 9.11508C30.1627 9.8803 31.1307 10.6002 32.1763 11.3014C33.1069 11.9254 34.0963 12.344 35.1284 12.7652C35.3851 12.8692 35.6098 13.0932 35.6579 13.2878C35.8611 14.1037 34.746 14.8903 34.0294 15.0263C32.2993 15.3516 31.2377 14.693 29.6413 14.2397C29.652 14.7036 30.8901 15.6928 31.211 15.8501C32.5614 16.5141 33.9465 17.002 35.3851 17.4393C36.4601 17.7646 38.701 18.6044 39.6663 19.1164C40.0808 19.3377 40.4872 19.687 40.6691 20.1162C40.9525 20.7775 40.6236 21.4707 40.0514 21.852C39.4337 22.2626 38.6956 22.3373 37.9656 22.2253L37.2891 22.124C37.1634 22.7505 37.1687 23.3051 36.3558 23.4118C35.4199 23.5344 34.6123 23.2091 33.8208 22.7692L31.6656 21.5694C30.9596 22.2999 30.2857 22.3053 29.422 21.8173L28.1465 21.0948C28.0369 21.4227 28.1171 21.6787 28.3043 21.9293C29.3445 23.3398 30.9569 23.7957 32.5881 24.273C33.409 24.513 34.1898 24.7503 34.9921 25.0489C35.4654 25.2249 35.9066 25.4435 36.2649 25.8034L37.0431 26.5847C38.9416 26.91 41.1023 27.9632 42.6853 29.0483C43.5864 29.6669 44.3753 30.3975 44.2202 31.536C44.1373 32.1386 43.7282 32.5145 43.188 32.6798C41.8777 33.0851 41.3322 32.4319 40.0112 32.4479C39.9872 33.0611 39.8 33.541 39.3909 33.853C38.9577 34.1836 38.4095 34.277 37.8693 34.133C36.888 33.8663 36.0216 33.3944 35.2006 32.7892C34.8076 32.5012 34.4011 32.1732 33.9171 32.0266C33.4946 32.3172 33.0694 32.4532 32.556 32.3412C31.1922 32.0426 28.6679 30.9547 27.3256 30.1895C27.2026 30.6268 27.5021 30.9254 27.7213 31.2134C27.9968 31.568 28.3283 31.8453 28.7268 32.0533C29.291 32.3492 29.8445 32.6052 30.4542 32.8132C31.4516 33.1544 32.3956 33.5757 33.2111 34.253C33.6684 34.6316 34.0695 35.0582 34.5776 35.3755C35.2809 35.8154 36.0724 36.0794 36.888 36.242L39.5513 36.7753C40.653 36.9939 41.6879 37.3272 42.6853 37.8365C44.033 38.5244 43.9127 39.2576 44.4715 39.4922L46.2311 40.2281C47.3194 40.6841 48.5281 41.8759 47.7553 43.1024C47.4772 43.5423 46.9985 43.7477 46.5118 43.8836C44.6614 44.4009 42.2788 43.1771 42.1318 43.6703C42.0569 43.9183 42.6612 44.4196 42.7949 45.4114C42.8805 46.038 42.5195 46.4939 41.9071 46.5953C40.9284 46.7606 39.9952 46.4566 39.1475 45.95C38.6929 45.6781 36.6767 44.4862 36.2435 44.7129C36.2221 44.9075 36.2382 45.1501 36.2729 45.3554C36.3772 45.9927 36.1366 46.7019 35.4761 46.9126C35.0375 47.0512 34.4786 47.0059 34.0428 46.8512C33.4144 46.6299 32.8154 46.4033 32.2512 46.0567C31.8608 45.8167 30.7617 44.5129 29.2001 43.641C29.0263 43.545 28.7963 43.5503 28.6786 43.713C28.331 44.1849 27.7534 44.2916 27.2213 43.977C26.5046 43.553 25.8923 42.4918 25.9164 42.9424L25.9698 43.945C26.026 44.9688 25.9271 45.7527 25.9805 46.9765L26.0367 48.2564L26.1089 50.2828C26.141 51.1333 26.1276 51.9385 26.264 52.7811C26.3923 53.5783 26.403 54.3915 26.6811 55.1514C27.0127 56.0526 27.8363 57.6071 28.6198 58.1883C30.0932 59.2842 31.9517 59.9188 33.6123 60.9693C33.8021 61.0893 33.8609 61.3479 33.7861 61.5425C33.6524 61.8998 33.3636 62.1984 32.9571 62.2198C32.0987 62.2624 31.2644 62.1638 30.4194 61.9958C29.3177 61.7772 27.962 61.6012 26.8416 61.5905L26.8336 61.6012Z" fill="#DEDAA9"/>
</svg>
