<svg width="61" height="92" viewBox="0 0 61 92" fill="none" xmlns="http://www.w3.org/2000/svg">
<path d="M42.8135 59.5535L43.3361 53.3134C43.3983 52.5853 43.3692 51.874 43.5434 51.1501C45.0571 52.5063 46.4216 53.6628 48.0763 54.7486C50.5812 56.396 50.8922 58.3429 52.9741 60.6518L54.4713 59.437C53.2105 57.4901 52.1032 55.5557 50.3199 54.1204C47.7736 52.0737 44.1572 50.0103 43.5807 46.7238L42.826 42.4264L46.8985 43.2501C48.8145 43.637 50.9544 46.1497 56.8352 44.7893C59.4313 47.3312 59.929 49.6275 60.5925 53.0513C61.8532 59.5493 59.958 67.4327 57.5111 73.4981C56.6195 75.7113 55.5454 77.6832 54.3427 79.7383C52.6009 82.7252 50.7346 85.5582 48.3293 88.0127C46.7699 89.6018 45.024 90.5046 42.9919 91.1993C37.7166 93.0006 33.4284 89.4521 29.5094 86.3819L22.5297 80.9114C17.8848 77.2713 10.4282 69.0593 9.01812 63.1229C8.27992 60.0111 9.18816 57.4235 10.6563 54.3742C12.7547 59.982 13.1155 61.1052 17.3581 65.4192C17.9221 65.9892 18.4281 66.3927 19.1953 66.7837C19.6308 66.3511 19.9833 65.8644 20.2777 65.2861C15.9605 62.4739 13.2151 56.8869 12.087 52.1111L13.1363 50.6967C14.144 49.3363 15.4628 48.2797 16.8563 47.0982C17.9885 50.6426 18.2166 52.369 21.3684 54.524C22.3057 55.1646 22.7992 55.9009 23.0937 57.045C23.2139 57.5151 24.7401 57.4194 24.8355 56.9077C25.2834 54.4699 22.0444 53.0305 20.709 51.2957L25.5115 50.7715C25.8847 50.4346 25.8847 49.6067 25.7105 48.991C23.6701 48.9453 21.8371 49.224 19.722 49.5318C19.2534 48.2589 18.9299 47.0067 18.7516 45.6796C20.0787 44.4482 21.4763 43.429 22.3306 41.819C24.3378 38.0292 22.3596 33.5072 20.0372 30.2997C18.4903 28.1615 17.1549 25.9525 16.4996 23.3898C15.9605 21.289 16.3296 19.2963 17.0388 17.3244C17.553 15.8975 18.0714 14.5496 18.6977 13.156C19.0626 12.3448 19.2326 11.5502 19.0626 10.6766C18.0341 5.49313 14.8822 4.84416 18.1502 2.47291C18.8055 1.99866 20.2736 1.84889 20.962 2.35642C22.2435 4.37407 23.3425 6.37091 24.483 8.43431C24.9184 9.22057 25.9677 9.4577 26.6561 9.14985C27.556 8.74632 27.6846 7.80198 27.5602 6.87428L26.8303 1.51193C27.3238 -0.58476 31.6286 -0.256112 31.8193 1.01688L32.7151 7.06149C32.8603 8.03079 33.0925 9.13321 33.7395 9.86123C34.1625 10.3355 35.2034 9.83211 35.4108 9.29129C36.2029 7.20293 36.8416 5.20192 37.4968 3.05532C37.5839 2.77659 37.7581 2.39387 37.953 2.29402C38.7576 1.87385 41.9011 3.31324 42.1914 4.60703C41.9675 6.28355 41.4906 7.96006 41.1546 9.63242C40.9971 10.4145 41.4035 11.1342 41.9177 11.6085C43.5103 13.0853 44.8125 14.5829 45.588 16.6838L44.2484 16.8835C41.503 17.2911 38.882 17.8944 36.2071 18.5849C34.2289 19.0966 32.2921 19.7706 30.6291 20.9645C28.9661 22.1585 28.1408 24.0804 27.6846 25.9608C27.3113 27.5083 26.8966 28.7148 26.3285 30.2914L28.655 30.982C29.7872 28.5733 29.9407 25.083 31.7198 23.2983C34.4528 20.561 38.5958 20.2947 42.4527 19.5709C46.4216 18.8262 50.2702 18.2729 54.2763 17.9027C55.508 17.7904 56.719 17.6364 57.9673 17.6656C58.7719 17.6864 59.2571 18.9261 59.4645 19.5459C60.2358 21.8672 59.3815 24.8375 58.2908 24.9374C55.1763 25.2244 52.1737 25.395 49.0841 25.9109C44.9701 26.5973 41.6108 28.3279 39.3755 31.9097C37.9323 34.2227 37.7913 36.8935 39.1474 39.2814C39.8483 40.5128 40.3003 41.6942 40.5575 43.1045C41.0634 45.9126 41.2791 48.6125 41.1878 51.4912C41.1629 52.2692 41.051 52.9265 40.4911 53.5089C38.6083 55.4641 36.3812 56.6664 33.8266 57.7231C33.9054 58.3679 34.0464 58.9045 34.2869 59.566C35.784 59.3247 36.8831 58.7548 38.094 58.0392L40.7565 56.4667C40.8229 56.8994 40.5782 61.0345 40.574 61.0553C40.2879 62.4364 39.9727 64.0298 39.3631 65.2611C37.8369 67.1581 35.3901 67.6906 33.1589 69.3214C31.4254 70.5902 30.036 72.0754 29.1983 74.1055L30.3098 75.2578C30.795 74.5173 31.0272 73.9183 31.5083 73.3109C33.2045 71.1518 35.9333 69.5668 38.629 68.2439C36.9577 73.9349 34.0339 78.5526 37.219 84.4683C37.9157 84.46 38.4839 83.9399 38.7908 83.4283C37.0365 80.9655 37.8203 76.6057 38.7451 74.0223L41.8638 65.2903C43.6803 67.961 45.0737 70.3989 48.0431 71.6344C48.6445 71.4888 49.3412 70.6526 49.279 70.0078C48.3459 69.3006 47.1639 68.8638 46.3842 67.9985C44.7254 66.1556 43.502 63.9549 42.6352 61.6543L42.8135 59.5369V59.5535Z" fill="#A79854"/>
<path d="M7.06091 57.1239C5.50987 56.0465 3.28698 53.255 2.38289 51.7075C1.07653 49.4777 0.292709 46.1579 0.0646138 43.5288C-0.250572 39.9095 0.612043 36.3859 2.11332 33.1036L4.17033 28.619C5.67161 25.3492 5.77529 23.2234 5.54304 19.5084L5.1615 13.3972C5.11174 12.6318 5.65502 12.066 6.14853 11.6749C7.98573 10.2231 10.2377 10.144 12.1744 11.4212C12.7467 11.7997 13.2195 12.2574 13.3024 13.0187L14.2895 21.7923L14.6544 24.3299C14.9613 26.4765 16.0935 28.2737 17.1759 30.1L20.0333 34.909C21.2775 37.0057 21.2028 39.9178 19.6476 41.6692C18.0924 43.4206 16.3465 44.5896 14.5424 45.9832C10.9178 48.7829 8.54146 52.6185 7.06506 57.1281L7.06091 57.1239Z" fill="#A79854"/>
<path d="M55.6525 42.626C51.6836 43.275 50.9039 42.8632 47.3664 41.4695C45.3218 41.2532 43.2648 40.5917 41.693 39.2564C40.3328 38.0999 39.9015 36.5024 40.5028 34.8467C41.9419 30.8613 44.9859 28.9851 48.9423 27.995C51.6836 28.2862 53.2678 31.7599 53.1019 34.2268C56.1087 36.1321 56.428 39.4477 55.6566 42.626H55.6525Z" fill="#A79854"/>
</svg>
