<svg width="94" height="88" viewBox="0 0 94 88" fill="none" xmlns="http://www.w3.org/2000/svg">
<path d="M37.7516 47.0774C37.3499 46.7343 37.0635 46.4112 36.7971 45.9923C36.0812 44.8833 35.3415 43.87 34.5859 42.7769L30.9867 37.5788L27.9165 33.2464L26.7115 31.5629L24.1901 28.0722L22.4681 25.5868L19.8393 21.5496L17.5565 18.0629C17.1986 17.5164 16.8645 16.9379 16.6816 16.2957C16.6339 16.1321 16.9162 15.8249 17.0594 15.7571C18.511 15.035 19.9268 14.4207 21.45 13.8223L28.8233 10.93C30.3783 10.3196 31.8577 9.78905 33.3849 9.14278C34.912 8.4965 36.5426 7.9739 38.1731 7.42337L41.8637 6.17471L44.751 5.12551L48.7359 3.82898L55.0593 1.77048L56.3439 1.38351C57.2546 1.11224 58.1136 0.769153 59.0044 0.434049C59.4737 0.258518 59.9629 -0.0845656 60.4958 0.0191573C60.814 0.0909654 61.1878 0.533783 61.3747 0.821015L63.5541 4.16408C64.2063 5.1654 64.7313 6.17072 65.4074 7.16007L67.3123 9.94463L68.4139 11.5683C69.1497 12.6534 69.8456 13.6986 70.5376 14.8116L72.2398 17.5563L75.5804 22.7624L77.7757 26.1573L79.8875 29.3209L81.5101 31.7703C81.6015 31.9099 81.4584 32.1692 81.3152 32.2171L80.1181 32.6001C78.6427 33.0748 77.2189 33.5336 75.7594 34.0642L70.6927 35.9033L59.1397 39.8168L55.9183 40.9697L51.0784 42.6413C49.1933 43.2915 47.3957 43.9418 45.4987 44.5521L42.1381 45.6253L40.086 46.2835L37.7516 47.0734V47.0774Z" fill="#A79854"/>
<path d="M24.8202 81.194L22.6289 79.8416L20.0717 78.186L15.3789 75.2339L12.2729 73.1714L10.3321 71.823L8.89646 70.7858L5.62342 68.464L4.06446 67.3709C2.82762 66.5052 1.58681 65.7552 0.469282 64.71C0.258503 64.5105 0 63.948 0 63.6449L0.039769 58.726L0.0556772 50.6875L0.1034 47.6436L0.202824 40.3352L0.342019 35.512C0.373835 34.3392 0.429511 33.2222 0.409627 32.0493C0.393719 31.0161 0.421558 30.0307 0.481212 29.0054C0.509051 28.5387 0.688015 28.2036 1.02606 27.8884L3.44405 25.6344L5.9376 23.6557L12.941 18.0906C13.3626 17.7555 13.6927 17.3725 14.2296 17.2289C14.5636 17.1411 14.7704 17.4004 14.9494 17.6398C15.6454 18.5693 16.2578 19.5028 16.8862 20.4762L18.4094 22.8339L24.4623 31.8379L28.6898 37.6503L31.6447 42.0187C32.2929 42.9761 32.7901 43.9654 33.4781 44.895C34.3331 46.0439 35.1245 47.1649 35.7927 48.4415C35.7807 48.8803 35.7489 49.3471 35.741 49.7819L35.6733 54.238L35.6256 60.0824L35.5143 63.3895L35.4745 67.2672C35.4387 70.9573 35.2995 74.5358 35.2757 78.2259L35.2239 85.7298L35.212 86.6274C35.2041 87.0742 35.2359 87.4453 35.1086 87.924L32.9571 86.5676L30.6345 85.0955L28.2364 83.5277C27.0672 82.7658 26.0014 81.932 24.8123 81.2019L24.8202 81.194ZM13.2671 49.4388L13.3666 43.9176L13.462 38.3963L13.5058 36.5772C13.5177 35.9908 13.5495 35.4442 13.4938 34.8578L12.2172 34.036L8.48286 31.6863C8.42718 31.6504 8.26413 31.6344 8.20845 31.6703C8.16868 31.6942 8.10505 31.8418 8.10107 31.9097L7.99369 34.9575L7.75905 46.4668C7.75905 46.6263 7.79484 46.9614 7.90222 47.0253C9.21462 47.7952 10.5071 48.5811 11.7678 49.4189C12.2371 49.73 12.6109 49.9574 13.1399 50.2247C13.2234 49.9096 13.2552 49.7181 13.2632 49.4388H13.2671ZM13.6807 61.9454C13.7404 61.5345 13.6887 61.1236 13.7006 60.7486L13.8637 56.0172C13.8796 55.5625 13.8876 55.1555 13.8398 54.7087C12.4996 53.8111 11.2111 53.0572 9.839 52.2633L7.596 50.9707L6.39098 50.2846C6.26769 51.2739 6.36314 52.0758 6.36314 52.9973V56.2686C6.35518 56.9986 6.2836 57.6569 6.33928 58.4069L9.85889 60.5691L12.7859 62.3523C13.0564 62.5199 13.2154 62.6475 13.5694 62.7353L13.6807 61.9494V61.9454ZM30.2408 75.8163L30.4953 71.9586L30.5828 69.573L24.2555 65.847C23.2135 65.2326 22.3147 64.5943 21.2012 64.0159C21.054 64.4946 21.058 64.9055 21.0143 65.3722L20.7995 69.1581C20.7796 69.3696 20.7836 69.8842 20.9586 69.9959L24.8361 72.5171L29.5568 75.6129C29.7755 75.7565 29.9744 75.8722 30.2368 75.8203L30.2408 75.8163Z" fill="#A79854"/>
<path d="M37.4725 84.1184C37.4725 83.2208 37.4963 82.411 37.5162 81.5652L37.5997 78.1783L37.6872 76.04L37.731 71.1251L37.7707 60.0467C37.7747 58.7263 37.8344 57.4936 37.7668 56.1851C37.6952 54.8965 37.7111 53.6319 37.7668 52.3393L37.894 49.2197C38.5979 48.9284 39.2144 48.6412 39.9024 48.4178L42.2687 47.6558L44.5236 46.862L48.783 45.4617C50.501 44.8952 52.1793 44.4085 53.9013 43.7543C54.7842 45.713 55.7029 47.5282 56.6812 49.3832L58.5981 53.0215C59.0197 53.955 59.4531 54.8087 59.9264 55.7263L62.933 61.5387L65.1004 65.5361C65.1641 67.5706 65.0845 69.5134 65.0487 71.544L64.9692 76.0001L65.0209 78.2461L41.8829 86.6676C40.6143 87.1303 39.4291 87.5293 38.1446 87.9003C38.0213 87.9362 37.7827 87.9083 37.6833 87.8684C37.5838 87.8285 37.4764 87.5931 37.4764 87.4694V84.1184H37.4725Z" fill="#A79854"/>
<path d="M79.0367 72.96L79.1203 70.4387L79.2038 67.9654L79.2873 65.3164L79.331 63.4295L76.8852 64.3191L69.9772 66.5731L69.9136 69.3696L69.8261 72.4015L69.7466 74.7951L69.663 77.3483L69.5795 79.4108L69.5 81.4094L69.2733 85.6182C69.2455 86.1408 67.3803 86.4879 66.8155 86.6873C66.7638 86.2246 66.7957 85.8974 66.8076 85.4785L66.8831 82.323L67.0263 77.2406L67.1814 72.7805L67.2053 67.8337C67.2093 66.5332 67.3723 65.3603 66.7002 64.1715L65.0657 61.2752C64.3021 59.9189 63.5624 58.6143 62.8585 57.2261L61.9716 55.4747L58.8855 49.3351L57.1475 45.8086C56.7021 44.907 56.2527 44.0732 55.9067 43.0998C56.5232 42.8604 57.0004 42.637 57.5731 42.4695C60.0507 41.7474 62.3693 40.778 64.8191 39.9442L71.8265 37.5626L76.5949 35.907L79.9435 34.806L81.7252 34.1876C82.0513 34.0759 82.3615 34.1078 82.5444 34.4589L84.4733 38.1889L87.3486 44.1211L89.0587 47.6317L93.0714 56.0253L93.7237 57.4734C93.8311 57.7088 93.6958 57.8843 93.6879 58.1197L93.2782 76.9972C93.2703 77.2126 93.1748 77.456 92.972 77.5158L91.1665 78.0305C90.9199 78.1023 90.7012 77.7352 90.7012 77.4919L91.1028 59.488L82.0831 62.6117C82.0473 62.8271 81.9996 63.0944 81.9956 63.3218L81.928 67.2273L81.8445 69.9361L81.761 72.8204L81.6854 75.2339L81.4349 81.206C81.4269 81.3895 81.3752 81.8562 81.2082 81.9161L79.2435 82.5943C79.1799 82.6182 79.0527 82.6342 78.997 82.6342C78.9294 82.6342 78.8339 82.4307 78.8379 82.3589L78.8856 77.9547L78.9731 75.1502L79.0527 72.972L79.0367 72.96ZM90.3512 57.0306C90.4188 57.0066 90.5222 56.7593 90.4944 56.7394L89.1144 54.1184L82.1945 39.9004L80.6912 36.8525L77.1556 38.0852L78.2692 40.2754L79.9196 43.4948L83.3716 50.4242L87.0623 58.1955L90.3472 57.0266L90.3512 57.0306ZM79.9276 56.6835L81.5661 60.1462L84.8431 58.9893L84.513 58.3391L79.0686 47.3963L75.887 41.0254L74.7575 38.8911L72.5821 39.6051C72.1646 39.7408 71.8225 39.8525 71.3612 40.052L72.956 43.1317L75.6444 48.3458L78.7067 54.254C79.1322 55.0718 79.5378 55.8497 79.9316 56.6795L79.9276 56.6835ZM75.5768 62.1489L78.9771 60.9441L77.605 58.3271L71.5919 46.3312L68.9194 40.9216L65.2566 42.2501L66.6923 45.0586L69.671 51.0346C70.0727 51.8404 70.3988 52.5944 70.8323 53.3684C71.9816 55.4229 73.0793 57.4375 74.1053 59.5558L75.5847 62.1449L75.5768 62.1489ZM66.7201 59.1449L69.333 64.1675L73.0952 63.0505L71.4964 60.0026L67.8615 52.8737L62.9698 43.1038C62.6278 43.1995 62.3057 43.2634 61.9994 43.3751L59.1798 44.3963L61.0171 47.9548L62.6835 51.3139L63.634 53.149L65.3401 56.5479L66.7201 59.1489V59.1449Z" fill="#A79854"/>
</svg>
