<svg width="189" height="37" viewBox="0 0 189 37" fill="none" xmlns="http://www.w3.org/2000/svg">
<path d="M22.1426 17.2961C22.1426 17.4971 22.1109 17.5977 22.0421 17.5977C21.2114 17.5818 20.4125 17.8993 19.8146 18.476C19.1955 19.0633 18.603 20.0368 18.0368 21.4072L11.7724 36.2906C11.7036 36.4599 11.5237 36.5393 11.2221 36.5393C11.0052 36.5657 10.7935 36.4652 10.6718 36.2906L3.55552 21.1585C2.88886 19.6876 2.31743 18.7299 1.85183 18.2749C1.39681 17.8305 0.783059 17.5871 0.148146 17.5977C0.0476179 17.5977 0 17.4971 0 17.2961C0 17.095 0.0476179 16.9945 0.148146 16.9945C0.783059 16.9945 1.2857 17.0104 1.65077 17.0421L3.80419 17.0897L7.21156 17.0421C7.7142 17.0104 8.39673 16.9945 9.26444 16.9945C9.36497 16.9945 9.41259 17.095 9.41259 17.2961C9.41259 17.4971 9.36497 17.5977 9.26444 17.5977C7.29092 17.5977 6.30681 17.9839 6.30681 18.7511C6.30681 19.0315 6.37559 19.3066 6.50786 19.5553L12.4708 32.0843L16.9786 21.2114C17.1797 20.7352 17.2961 20.2273 17.3278 19.7088C17.3278 18.3067 16.0421 17.603 13.4707 17.603C13.402 17.603 13.3702 17.5024 13.3702 17.3014C13.3702 17.1003 13.402 16.9998 13.4707 16.9998C14.3755 16.9998 15.058 17.0157 15.5236 17.0474L18.5289 17.095L20.4336 17.0474C20.767 17.0157 21.3013 16.9998 22.0368 16.9998C22.1056 16.9998 22.1373 17.1003 22.1373 17.3014L22.1426 17.2961Z" fill="#5F5134"/>
<path d="M24.4493 36.0366C24.4493 35.8356 24.4969 35.7351 24.5974 35.7351C25.8355 35.7351 26.6503 35.5075 27.0524 35.0578C27.4545 34.6081 27.6556 33.6822 27.6556 32.2748V22.9574C27.6556 21.7881 27.5392 20.9363 27.3064 20.4019C27.1053 19.8887 26.6027 19.5659 26.0524 19.5977C25.4863 19.5977 24.7509 19.8305 23.8461 20.3014H23.7985C23.6662 20.3014 23.5657 20.2167 23.4969 20.0527C23.4281 19.8834 23.4652 19.767 23.5974 19.7035L30.2587 16.5977L30.4598 16.5501C30.5815 16.5607 30.6979 16.6136 30.7878 16.6982C30.8884 16.767 30.9519 16.8781 30.9624 16.9998C30.9624 17.2326 30.9466 17.9046 30.9148 19.0051C30.8831 20.1056 30.8619 21.4125 30.8672 22.9151V32.2854C30.8672 33.2536 30.9413 33.9785 31.0947 34.4652C31.2164 34.915 31.5392 35.2853 31.973 35.4652C32.4069 35.6504 33.0577 35.7403 33.9254 35.7403C34.0259 35.7403 34.0735 35.8409 34.0735 36.0419C34.0735 36.243 34.0259 36.3435 33.9254 36.3435C33.0894 36.3435 32.4386 36.3276 31.973 36.2959L29.2693 36.2483L26.4651 36.2959C25.9942 36.3276 25.3805 36.3488 24.6133 36.3435C24.5128 36.3435 24.4652 36.243 24.4652 36.0419L24.4493 36.0366ZM27.1794 10.2327C26.7614 9.83059 26.5498 9.26446 26.5551 8.52902C26.5286 7.93114 26.7561 7.34914 27.1794 6.92586C27.5974 6.52375 28.1741 6.32269 28.9096 6.32269C29.645 6.32269 30.1635 6.52375 30.5603 6.92586C30.973 7.35443 31.19 7.93643 31.1635 8.52902C31.1635 9.26446 30.9624 9.83059 30.5603 10.2327C30.1582 10.6348 29.608 10.8359 28.9096 10.8359C28.1741 10.8359 27.5974 10.6348 27.1794 10.2327Z" fill="#5F5134"/>
<path d="M55.3639 17.3966C56.6338 18.1321 57.6602 19.222 58.3216 20.5289C59.057 21.9151 59.4221 23.6082 59.4221 25.6135C59.4221 28.0208 58.9036 30.079 57.8665 31.8039C56.8983 33.4599 55.4856 34.8038 53.7819 35.6874C52.1364 36.5446 50.3058 36.9943 48.4434 36.989C45.9778 37.0207 43.5651 36.2483 41.581 34.7827L37.6234 36.5869H37.5229C37.4065 36.5975 37.3006 36.5234 37.2742 36.4123C37.2424 36.2959 37.2795 36.1636 37.3747 36.0842C38.3747 35.4176 39.0943 34.7403 39.5281 34.0525C39.962 33.37 40.1789 32.407 40.1789 31.169V6.46553C40.1789 5.26449 40.0678 4.40207 39.8509 3.88355C39.6339 3.36504 39.2265 3.10578 38.6234 3.10578C38.0202 3.10578 37.2689 3.32271 36.3694 3.75657H36.3218C36.1895 3.75657 36.089 3.66662 36.0202 3.48144C35.9515 3.29626 35.9885 3.19044 36.1208 3.1534L42.5863 0.0476186L42.835 0C42.9567 0.0105819 43.0731 0.0634907 43.163 0.148146C43.2635 0.216928 43.327 0.328038 43.3376 0.44973V20.4918C44.4434 19.3384 45.6868 18.3278 47.0466 17.4866C49.6074 15.9839 52.7661 15.9469 55.3639 17.386V17.3966ZM54.2581 33.7827C55.2951 32.2801 55.8137 30.1425 55.8137 27.3701C55.8137 24.3965 55.2369 22.1267 54.0835 20.5553C52.9301 18.9839 51.4169 18.2008 49.5492 18.2008C47.5439 18.2008 45.4751 19.2696 43.3376 21.4072V29.4759C43.3376 30.9785 43.6868 32.2219 44.3905 33.2113C45.036 34.153 45.9302 34.8991 46.9725 35.3647C47.8931 35.7932 48.8878 36.026 49.9037 36.0419C51.7767 36.0419 53.2264 35.2906 54.2634 33.788L54.2581 33.7827Z" fill="#5F5134"/>
<path d="M63.5917 36.0366C63.5917 35.8356 63.6394 35.7351 63.7399 35.7351C64.978 35.7351 65.7928 35.5075 66.1949 35.0578C66.597 34.6081 66.7981 33.6822 66.7981 32.2748V22.9574C66.7981 21.7881 66.6817 20.9363 66.4489 20.4019C66.2478 19.8887 65.7452 19.5659 65.1949 19.5977C64.6288 19.5977 63.8933 19.8305 62.9886 20.3014H62.941C62.8087 20.3014 62.7082 20.2167 62.6394 20.0527C62.5706 19.8834 62.6076 19.767 62.7399 19.7035L69.4012 16.5977L69.6023 16.5501C69.7239 16.5607 69.8403 16.6136 69.9303 16.6982C70.0308 16.767 70.0943 16.8781 70.1049 16.9998C70.1049 17.2326 70.089 17.9046 70.0573 19.0051C70.0255 20.1056 70.0044 21.4125 70.0097 22.9151V32.2854C70.0097 33.2536 70.0837 33.9785 70.2372 34.4652C70.3589 34.915 70.6816 35.2853 71.1155 35.4652C71.5493 35.6504 72.2001 35.7403 73.0678 35.7403C73.1684 35.7403 73.216 35.8409 73.216 36.0419C73.216 36.243 73.1684 36.3435 73.0678 36.3435C72.2319 36.3435 71.5811 36.3276 71.1155 36.2959L68.4118 36.2483L65.6076 36.2959C65.1367 36.3276 64.5229 36.3488 63.7558 36.3435C63.6552 36.3435 63.6076 36.243 63.6076 36.0419L63.5917 36.0366ZM66.3219 10.2327C65.9039 9.83059 65.6922 9.26446 65.6975 8.52902C65.6711 7.93114 65.8986 7.34914 66.3219 6.92586C66.7399 6.52375 67.3166 6.32269 68.052 6.32269C68.7874 6.32269 69.306 6.52375 69.7028 6.92586C70.1155 7.35443 70.3324 7.93643 70.306 8.52902C70.306 9.26446 70.1049 9.83059 69.7028 10.2327C69.3007 10.6348 68.7504 10.8359 68.052 10.8359C67.3166 10.8359 66.7399 10.6348 66.3219 10.2327Z" fill="#5F5134"/>
<path d="M81.2057 35.5604C79.7242 34.6134 78.5285 33.2801 77.7454 31.7034C76.92 30.0632 76.502 28.2537 76.5179 26.4177C76.5179 24.2484 77.0523 22.4019 78.1211 20.8834C79.1475 19.3966 80.5602 18.222 82.2057 17.476C83.7983 16.7353 85.5337 16.3543 87.2903 16.349C89.2585 16.349 90.9887 16.8358 92.4754 17.804C93.941 18.7511 95.1262 20.0739 95.9092 21.6347C96.7029 23.1955 97.1156 24.9204 97.1103 26.6717C97.1103 28.7457 96.6235 30.5552 95.6553 32.1108C94.7029 33.6451 93.3537 34.8938 91.7453 35.7192C90.0892 36.5763 88.248 37.0155 86.3855 36.9996C84.412 36.9996 82.6872 36.5234 81.2004 35.571L81.2057 35.5604ZM91.8775 34.0843C92.8299 32.7827 93.3061 30.7933 93.3061 28.1214C93.3061 26.0156 92.9728 24.1479 92.3061 22.5077C91.6394 20.8728 90.7188 19.603 89.5495 18.6982C88.4384 17.8146 87.0575 17.3384 85.6395 17.3437C83.9358 17.3437 82.6184 17.9786 81.6819 19.2485C80.7454 20.5183 80.2798 22.3701 80.2798 24.8092C80.2586 26.751 80.5867 28.6769 81.2586 30.497C81.9094 32.2166 82.8036 33.5711 83.9411 34.5552C85.0152 35.5181 86.4067 36.0472 87.8511 36.0313C89.5866 36.0313 90.9305 35.3806 91.8828 34.079L91.8775 34.0843Z" fill="#5F5134"/>
<path d="M100.876 36.1901C100.458 35.7562 100.247 35.1742 100.252 34.4388C100.226 33.8409 100.453 33.2589 100.876 32.8356C101.294 32.4335 101.871 32.2325 102.607 32.2325C103.342 32.2325 103.908 32.4229 104.31 32.8092C104.712 33.1954 104.913 33.7351 104.913 34.4388C104.913 35.206 104.712 35.7985 104.31 36.2165C103.908 36.6345 103.342 36.8409 102.607 36.8409C101.871 36.8409 101.294 36.6239 100.876 36.1901Z" fill="#5F5134"/>
<path d="M111.702 36.1901C111.368 35.7879 111.199 35.1689 111.199 34.3382C111.22 33.5128 111.321 32.6875 111.501 31.8832L116.31 5.77771C116.4 5.36501 116.453 4.94703 116.458 4.52375C116.458 3.65604 116.125 3.22218 115.458 3.22218C114.924 3.22218 114.157 3.47086 113.151 3.9735H113.104C112.94 3.9735 112.802 3.85709 112.776 3.69837C112.728 3.51318 112.765 3.40737 112.903 3.37033L119.818 0.0158691H119.919C120.051 0.0158691 120.178 0.0687779 120.268 0.164015C120.368 0.264543 120.4 0.349199 120.368 0.41269L114.606 31.8779C114.517 32.3065 114.464 32.7404 114.458 33.1795C114.458 34.1478 114.76 34.6345 115.363 34.6345C115.696 34.6345 116.114 34.4493 116.617 34.0843C117.268 33.5869 117.887 33.0525 118.469 32.4811C118.522 32.4229 118.591 32.3859 118.67 32.3806C118.781 32.3859 118.876 32.4547 118.919 32.5552C118.987 32.661 118.966 32.7986 118.871 32.8832C117.733 34.2218 116.723 35.2059 115.839 35.8409C114.956 36.4758 114.077 36.7932 113.21 36.7932C112.543 36.7932 112.04 36.5922 111.707 36.1901H111.702Z" fill="#5F5134"/>
<path d="M141.253 32.4282C141.364 32.4335 141.459 32.5023 141.502 32.6028C141.571 32.7192 141.571 32.8092 141.502 32.8779C140.401 34.1795 139.396 35.1583 138.497 35.8091C137.597 36.4599 136.724 36.7879 135.893 36.7879C135.227 36.7879 134.729 36.5869 134.417 36.1848C134.1 35.7827 133.941 35.1478 133.941 34.28C133.968 33.4758 134.052 32.6716 134.19 31.8727L134.989 27.1108C133.55 30.1531 131.899 32.5552 130.026 34.3277C128.153 36.1001 126.333 36.9837 124.566 36.9837C123.566 36.9837 122.788 36.6768 122.238 36.0578C121.687 35.4388 121.412 34.497 121.412 33.2271C121.412 32.9256 121.444 32.4441 121.513 31.7721C121.846 29.4653 122.74 27.1055 124.195 24.6823C125.534 22.3913 127.274 20.3649 129.333 18.6929C131.301 17.1215 133.158 16.3384 134.893 16.3384C136.296 16.3384 137.433 16.7882 138.301 17.6929C138.883 17.2326 139.333 16.6294 139.602 15.9416C139.655 15.8834 139.724 15.8464 139.803 15.8411C139.909 15.8411 140.01 15.8675 140.105 15.9152C140.206 15.9628 140.237 16.0051 140.206 16.0421L137.301 31.8779C137.206 32.3224 137.158 32.7774 137.153 33.2324C137.153 34.1689 137.438 34.6345 138.005 34.6345C138.708 34.6345 139.74 33.915 141.11 32.4811C141.153 32.4441 141.206 32.4282 141.258 32.4335L141.253 32.4282ZM130.407 32.3806C131.751 31.0949 132.883 29.6081 133.766 27.9732C134.682 26.3807 135.348 24.6558 135.745 22.8622C135.846 22.4177 135.893 21.9627 135.893 21.5077C135.893 20.5395 135.645 19.7723 135.142 19.2008C134.639 18.6347 133.925 18.349 132.989 18.349C131.851 18.349 130.719 18.8093 129.581 19.7246C128.444 20.6453 127.46 21.9045 126.624 23.5077C125.756 25.2061 125.185 27.0314 124.92 28.9203C124.788 29.9891 124.719 30.6928 124.719 31.0261C124.719 33.1002 125.423 34.1319 126.825 34.1319C127.962 34.1319 129.153 33.5499 130.407 32.3806Z" fill="#5F5134"/>
<path d="M164.755 32.3806C164.94 32.407 165.072 32.5816 165.041 32.7668C165.035 32.8039 165.02 32.8462 165.004 32.8779C163.866 34.2166 162.85 35.2007 161.946 35.8356C161.041 36.4705 160.157 36.7879 159.289 36.7879C158.623 36.7879 158.136 36.5975 157.834 36.2112C157.533 35.825 157.385 35.2007 157.385 34.333C157.411 33.5076 157.491 32.6875 157.633 31.878L159.088 23.9098C159.274 23.0527 159.374 22.1797 159.39 21.3066C159.39 19.5024 158.739 18.603 157.438 18.603C156.369 18.603 155.268 19.2855 154.131 20.6559C152.993 22.0262 151.924 24.0156 150.924 26.6188C149.925 29.2219 149.104 32.3118 148.47 35.8885C148.38 36.1795 148.157 36.4123 147.866 36.5128C147.438 36.6821 146.977 36.7562 146.512 36.7403C145.612 36.7403 145.157 36.6239 145.157 36.3911L145.358 35.3911C145.66 33.9573 145.845 33.0367 145.909 32.6346L147.962 21.4601C148.052 21.0474 148.099 20.6294 148.11 20.2061C148.11 19.1691 147.792 18.6559 147.157 18.6506C146.353 18.6506 145.253 19.386 143.851 20.8569C143.808 20.894 143.755 20.9098 143.702 20.9045C143.591 20.8992 143.496 20.8305 143.454 20.7299C143.385 20.6135 143.385 20.5236 143.454 20.4548C144.591 19.1215 145.639 18.1321 146.612 17.4972C147.581 16.8623 148.517 16.5448 149.417 16.5448C150.083 16.5448 150.57 16.7353 150.872 17.1215C151.173 17.5077 151.321 18.1162 151.321 18.9522C151.295 19.7088 151.21 20.4601 151.073 21.2061L150.073 26.7193C151.274 23.4442 152.676 20.8992 154.279 19.0792C155.882 17.2591 157.57 16.349 159.342 16.349C160.443 16.349 161.274 16.6665 161.824 17.3014C162.374 17.9363 162.649 18.9046 162.649 20.2061C162.633 21.132 162.533 22.0527 162.348 22.9627L160.697 31.8832C160.607 32.2959 160.554 32.7139 160.549 33.1372C160.549 34.1372 160.866 34.6398 161.501 34.6398C161.834 34.6398 162.252 34.4546 162.755 34.0896C163.406 33.5922 164.025 33.0578 164.607 32.4864C164.676 32.4176 164.723 32.3859 164.755 32.3859V32.3806Z" fill="#5F5134"/>
<path d="M183.194 31.878C183.104 32.3065 183.051 32.7404 183.046 33.1795C183.046 34.1478 183.348 34.6345 183.945 34.6345C184.279 34.6345 184.697 34.4494 185.199 34.0843C185.85 33.5869 186.469 33.0525 187.051 32.4811C187.104 32.4229 187.173 32.3859 187.252 32.3806C187.363 32.3859 187.459 32.4547 187.501 32.5552C187.57 32.661 187.549 32.7986 187.453 32.8832C186.284 34.2218 185.263 35.206 184.395 35.8409C183.527 36.4758 182.66 36.7932 181.792 36.7932C181.125 36.7932 180.628 36.6028 180.316 36.2165C179.998 35.8303 179.84 35.2218 179.84 34.3859C179.861 33.5446 179.961 32.7033 180.141 31.878L180.993 27.4177C179.522 30.3912 177.951 32.7298 176.284 34.4335C174.612 36.1372 172.909 36.989 171.173 36.989C170.051 37.0208 168.967 36.5975 168.168 35.8091C167.364 35.0261 166.967 33.7986 166.967 32.1266C166.967 31.4176 167.03 30.714 167.168 30.0208C168.099 25.222 170.893 20.9892 174.935 18.2432C176.871 16.9734 178.776 16.3385 180.649 16.3385C181.453 16.312 182.247 16.5025 182.956 16.8887L185.009 5.76715C185.083 5.3862 185.115 4.99996 185.109 4.61372C185.109 3.67723 184.76 3.21162 184.057 3.21162C183.554 3.21162 182.771 3.4603 181.702 3.96294H181.654C181.522 3.96294 181.427 3.87299 181.379 3.68781C181.332 3.50262 181.369 3.39681 181.506 3.35977L188.422 0.00531006H188.522C188.654 0.00531006 188.781 0.0582189 188.871 0.153456C188.972 0.253984 189.004 0.33864 188.972 0.402131L183.21 31.8674L183.194 31.878ZM177.279 31.9044C178.681 30.296 179.819 28.4653 180.633 26.4918C181.501 24.4389 181.935 22.8252 181.935 21.6559C181.935 20.5871 181.633 19.767 181.035 19.2009C180.432 18.6347 179.633 18.349 178.628 18.349C176.591 18.349 174.834 19.1585 173.369 20.7776C171.898 22.3966 170.914 24.7299 170.411 27.7669C170.279 28.5288 170.21 29.3013 170.21 30.0737C170.21 31.4441 170.459 32.4811 170.961 33.1795C171.438 33.8674 172.231 34.2642 173.067 34.2324C174.501 34.2324 175.909 33.4547 177.279 31.9044Z" fill="#5F5134"/>
</svg>
