<svg width="152" height="47" viewBox="0 0 152 47" fill="none" xmlns="http://www.w3.org/2000/svg">
<path d="M17.8158 13.9741C17.8158 14.1372 17.7872 14.2188 17.7347 14.2188C17.0662 14.2044 16.4215 14.4635 15.9392 14.929C15.4426 15.4041 14.9651 16.1911 14.5067 17.2996L9.469 29.3301C9.41647 29.4645 9.26844 29.5316 9.02491 29.5316C8.85301 29.5508 8.68111 29.4741 8.58083 29.3301L2.86028 17.0981C2.32069 15.908 1.86706 15.1354 1.48983 14.7707C1.12692 14.4108 0.630311 14.214 0.119377 14.2236C0.0382007 14.2236 0 14.142 0 13.9789C0 13.8157 0.0382007 13.7341 0.119377 13.7341C0.630311 13.7341 1.03142 13.7485 1.32747 13.7725L3.06083 13.8109L5.80173 13.7725C6.20284 13.7437 6.75675 13.7341 7.45391 13.7341C7.53509 13.7341 7.57329 13.8157 7.57329 13.9789C7.57329 14.142 7.53509 14.2236 7.45391 14.2236C5.86858 14.2236 5.07592 14.5355 5.07592 15.1546C5.07592 15.3801 5.13322 15.6008 5.23827 15.8024L10.0325 25.9278L13.6615 17.1413C13.8239 16.7526 13.9194 16.3447 13.9433 15.9272C13.9433 14.7947 12.9071 14.2284 10.8394 14.2284C10.7869 14.2284 10.7583 14.1468 10.7583 13.9837C10.7583 13.8205 10.7821 13.7389 10.8394 13.7389C11.5653 13.7389 12.1144 13.7533 12.4916 13.7773L14.9078 13.8157L16.4406 13.7773C16.708 13.7485 17.1378 13.7389 17.7299 13.7389C17.7824 13.7389 17.8111 13.8205 17.8111 13.9837V13.9741H17.8158Z" fill="#3F3926"/>
<path d="M19.6682 29.1192C19.6682 28.956 19.7064 28.8745 19.7875 28.8745C20.7808 28.8745 21.4397 28.6921 21.7644 28.3274C22.0891 27.9627 22.2467 27.2141 22.2467 26.0816V18.5475C22.2467 17.6022 22.1512 16.9159 21.965 16.4841C21.8074 16.0714 21.3967 15.8074 20.9574 15.8362C20.499 15.8362 19.9117 16.0234 19.1859 16.4025H19.1477C19.0379 16.4025 18.9615 16.3353 18.9041 16.2009C18.8516 16.0666 18.8755 15.9706 18.9853 15.9178L24.343 13.4081L24.5053 13.3697C24.6056 13.3793 24.6963 13.4225 24.768 13.4896C24.8491 13.5472 24.9017 13.6336 24.9112 13.7344C24.9112 13.9215 24.8969 14.4638 24.873 15.3564C24.8444 16.2489 24.83 17.2999 24.8348 18.5139V26.0864C24.8348 26.8686 24.8969 27.4588 25.0163 27.8475C25.1118 28.2122 25.3744 28.5098 25.723 28.6585C26.0716 28.8073 26.5968 28.8793 27.294 28.8793C27.3751 28.8793 27.4134 28.9608 27.4134 29.124C27.4134 29.2871 27.3751 29.3687 27.294 29.3687C26.6207 29.3687 26.1002 29.3543 25.723 29.3303L23.5455 29.292L21.2869 29.3303C20.9097 29.3591 20.4131 29.3687 19.7971 29.3687C19.7159 29.3687 19.6777 29.2871 19.6777 29.124H19.6682V29.1192ZM21.8647 8.26378C21.5304 7.93747 21.3585 7.48159 21.3633 6.88654C21.3394 6.40187 21.5257 5.93159 21.8647 5.59088C22.199 5.26456 22.6621 5.1062 23.2543 5.1062C23.8464 5.1062 24.2618 5.26936 24.5817 5.59088C24.9112 5.93639 25.0879 6.40666 25.064 6.88654C25.064 7.48159 24.9017 7.93747 24.5817 8.26378C24.2618 8.5901 23.8177 8.74846 23.2543 8.74846C22.6621 8.74846 22.199 8.5853 21.8647 8.26378Z" fill="#3F3926"/>
<path d="M44.5322 14.0556C45.554 14.6506 46.3801 15.5288 46.9102 16.5845C47.5023 17.7074 47.7983 19.0751 47.7983 20.6971C47.7983 22.6405 47.3829 24.3105 46.5473 25.6974C45.7689 27.0362 44.6325 28.1255 43.262 28.8357C41.9393 29.5316 40.4638 29.8915 38.9692 29.8867C36.9828 29.9155 35.0441 29.2868 33.4492 28.1063L30.2642 29.5652H30.183C30.0923 29.5748 30.0016 29.5124 29.9825 29.4212C29.9538 29.3252 29.9873 29.2244 30.0637 29.1573C30.8707 28.6198 31.4484 28.0727 31.797 27.5161C32.1456 26.9642 32.3223 26.1868 32.3223 25.1887V5.22105C32.3223 4.2469 32.2363 3.55588 32.0597 3.13359C31.883 2.7161 31.5583 2.50495 31.0712 2.50495C30.5842 2.50495 29.9825 2.68251 29.2567 3.03282H29.2185C29.1087 3.03282 29.0323 2.96083 28.975 2.81207C28.9224 2.66331 28.9463 2.57693 29.0561 2.54814L34.2562 0.0383901L34.4567 0C34.557 0.00959752 34.6478 0.0527864 34.7194 0.119969C34.8006 0.177554 34.8531 0.263932 34.8626 0.364706V16.5653C35.7508 15.6296 36.7536 14.8138 37.8471 14.1371C39.9051 12.9231 42.4502 12.8943 44.537 14.0556H44.5322ZM43.644 27.3001C44.4749 26.0861 44.8951 24.3585 44.8951 22.1175C44.8951 19.7133 44.4319 17.8802 43.5055 16.6085C42.5792 15.3416 41.3615 14.7034 39.8574 14.7034C38.2434 14.7034 36.5817 15.5672 34.8579 17.2947V23.8162C34.8579 25.0303 35.1396 26.0381 35.703 26.8347C36.2235 27.5929 36.9398 28.1975 37.7802 28.5766C38.5203 28.9221 39.3226 29.1093 40.1391 29.1237C41.6433 29.1237 42.8131 28.5142 43.644 27.3001Z" fill="#3F3926"/>
<path d="M51.1506 29.1192C51.1506 28.956 51.1888 28.8745 51.27 28.8745C52.2632 28.8745 52.9221 28.6921 53.2468 28.3274C53.5716 27.9627 53.7291 27.2141 53.7291 26.0816V18.5475C53.7291 17.6022 53.6336 16.9159 53.4474 16.4841C53.2898 16.0714 52.8792 15.8074 52.4399 15.8362C51.9815 15.8362 51.3941 16.0234 50.6683 16.4025H50.6301C50.5203 16.4025 50.4439 16.3353 50.3866 16.2009C50.334 16.0666 50.3579 15.9706 50.4677 15.9178L55.8254 13.4081L55.9877 13.3697C56.088 13.3793 56.1788 13.4225 56.2504 13.4896C56.3316 13.5472 56.3841 13.6336 56.3936 13.7344C56.3936 13.9215 56.3793 14.4638 56.3554 15.3564C56.3268 16.2489 56.3125 17.2999 56.3172 18.5139V26.0864C56.3172 26.8686 56.3793 27.4588 56.4987 27.8475C56.5942 28.2122 56.8568 28.5098 57.2054 28.6585C57.554 28.8073 58.0792 28.8793 58.7764 28.8793C58.8576 28.8793 58.8958 28.9608 58.8958 29.124C58.8958 29.2871 58.8576 29.3687 58.7764 29.3687C58.1031 29.3687 57.5826 29.3543 57.2054 29.3303L55.028 29.292L52.7693 29.3303C52.3921 29.3591 51.8955 29.3687 51.2795 29.3687C51.1983 29.3687 51.1601 29.2871 51.1601 29.124H51.1506V29.1192ZM53.3471 8.26378C53.0129 7.93747 52.841 7.48159 52.8457 6.88654C52.8219 6.40187 53.0081 5.93159 53.3471 5.59088C53.6814 5.26456 54.1446 5.1062 54.7367 5.1062C55.3288 5.1062 55.7442 5.26936 56.0641 5.59088C56.3936 5.93639 56.5703 6.40666 56.5464 6.88654C56.5464 7.48159 56.3841 7.93747 56.0641 8.26378C55.7442 8.5901 55.3001 8.74846 54.7367 8.74846C54.1446 8.74846 53.6814 8.5853 53.3471 8.26378Z" fill="#3F3926"/>
<path d="M65.3183 28.7352C64.1245 27.9722 63.1647 26.8925 62.5392 25.6161C61.8754 24.2916 61.5364 22.828 61.5507 21.3452C61.5507 19.5888 61.9805 18.0964 62.84 16.8679C63.6661 15.6682 64.8026 14.7133 66.1253 14.1134C67.405 13.5184 68.8041 13.2065 70.2175 13.2017C71.8028 13.2017 73.1924 13.5952 74.3909 14.3774C75.5704 15.1452 76.5254 16.2153 77.1509 17.4774C77.7908 18.7394 78.1203 20.1311 78.1203 21.5467C78.1203 23.2215 77.7287 24.6851 76.9504 25.9424C76.1864 27.1852 75.0977 28.193 73.8084 28.86C72.4761 29.551 70.9958 29.9061 69.4965 29.8917C67.9111 29.8917 66.5216 29.5078 65.3278 28.7352H65.3183ZM73.9039 27.5404C74.6679 26.4894 75.0547 24.8818 75.0547 22.7224C75.0547 21.0236 74.7873 19.5072 74.2477 18.1876C73.7081 16.8631 72.9727 15.841 72.032 15.1116C71.1391 14.3966 70.0313 14.0126 68.89 14.0174C67.5196 14.0174 66.4595 14.5309 65.7051 15.5579C64.9506 16.5848 64.5781 18.082 64.5781 20.0543C64.559 21.6235 64.8264 23.1783 65.366 24.6515C65.8913 26.0431 66.6075 27.1373 67.5244 27.9339C68.3887 28.7113 69.5108 29.1383 70.6664 29.1287C72.0607 29.1287 73.1446 28.6009 73.9087 27.55V27.5404H73.9039Z" fill="#3F3926"/>
<path d="M81.1431 29.2436C80.8088 28.8933 80.6369 28.4182 80.6417 27.8279C80.6178 27.3433 80.804 26.873 81.1431 26.5323C81.4773 26.206 81.9405 26.0476 82.5326 26.0476C83.1247 26.0476 83.5784 26.2012 83.9031 26.5131C84.223 26.825 84.3854 27.2617 84.3854 27.8279C84.3854 28.4518 84.223 28.9269 83.9031 29.2676C83.5784 29.6035 83.1247 29.7714 82.5326 29.7714C81.9405 29.7714 81.4773 29.5939 81.1431 29.2436Z" fill="#3F3926"/>
<path d="M89.8435 29.2438C89.5761 28.9175 89.4424 28.4184 89.4424 27.7466C89.4615 27.0796 89.5427 26.4125 89.6859 25.7599L93.5537 4.65976C93.6254 4.32865 93.6683 3.98794 93.6731 3.64723C93.6731 2.94661 93.4057 2.5963 92.8661 2.5963C92.4364 2.5963 91.8204 2.79784 91.0134 3.20574H90.9752C90.8463 3.20574 90.7317 3.11456 90.7126 2.985C90.6744 2.83623 90.703 2.74986 90.8128 2.72106L96.3758 0.00976562H96.457C96.562 0.00976562 96.6671 0.0529545 96.7387 0.129735C96.8199 0.211314 96.8438 0.278496 96.8199 0.331283L92.1833 25.7647C92.1069 26.1102 92.0687 26.4653 92.0639 26.8156C92.0639 27.5978 92.3074 27.9913 92.7897 27.9913C93.0571 27.9913 93.3914 27.8426 93.7973 27.545C94.3225 27.1468 94.8191 26.7101 95.2871 26.2494C95.3301 26.2014 95.3874 26.1726 95.4494 26.1678C95.5354 26.1726 95.6166 26.2302 95.65 26.3118C95.7025 26.3981 95.6882 26.5085 95.6118 26.5757C94.6998 27.6554 93.8832 28.452 93.1717 28.9655C92.4602 29.4789 91.7535 29.7333 91.0564 29.7333C90.5168 29.7333 90.1157 29.5701 89.8483 29.2486H89.8435V29.2438Z" fill="#3F3926"/>
<path d="M113.614 26.2058C113.704 26.2106 113.781 26.2682 113.814 26.3498C113.867 26.4458 113.867 26.5177 113.814 26.5705C112.926 27.6215 112.124 28.4133 111.398 28.9411C110.672 29.469 109.975 29.7329 109.302 29.7329C108.762 29.7329 108.366 29.5698 108.113 29.2482C107.855 28.9219 107.731 28.4133 107.731 27.7078C107.75 27.0552 107.821 26.4074 107.931 25.7643L108.576 21.9157C107.42 24.3727 106.093 26.3162 104.584 27.7462C103.08 29.1763 101.614 29.8913 100.191 29.8913C99.3839 29.8913 98.7583 29.6417 98.319 29.1427C97.8749 28.6436 97.6553 27.8806 97.6553 26.8537C97.6553 26.6089 97.6839 26.2202 97.7364 25.678C98.0039 23.816 98.7249 21.9061 99.8948 19.9482C100.969 18.1007 102.368 16.4595 104.025 15.1063C105.611 13.8394 107.1 13.2012 108.499 13.2012C109.626 13.2012 110.543 13.5659 111.24 14.2953C111.708 13.921 112.066 13.4363 112.286 12.8797C112.329 12.8317 112.386 12.8029 112.448 12.7981C112.534 12.7981 112.616 12.8221 112.692 12.8605C112.773 12.8989 112.797 12.9373 112.773 12.9613L110.433 25.7595C110.357 26.1195 110.319 26.4842 110.314 26.8537C110.314 27.6119 110.543 27.9862 110.997 27.9862C111.56 27.9862 112.396 27.4055 113.494 26.2442C113.528 26.2154 113.571 26.201 113.614 26.2058ZM104.89 26.1626C105.969 25.1213 106.881 23.9216 107.592 22.5972C108.328 21.3111 108.867 19.9147 109.182 18.4654C109.259 18.1055 109.302 17.7408 109.302 17.3713C109.302 16.5891 109.101 15.9653 108.695 15.5094C108.294 15.0487 107.716 14.8232 106.962 14.8232C106.05 14.8232 105.133 15.1927 104.221 15.9365C103.309 16.6803 102.516 17.6976 101.843 18.9933C101.146 20.3657 100.683 21.8438 100.473 23.365C100.363 24.2287 100.31 24.795 100.31 25.0637C100.31 26.7385 100.874 27.5735 102.005 27.5735C102.917 27.5735 103.877 27.1032 104.885 26.1578H104.89V26.1626Z" fill="#3F3926"/>
<path d="M132.513 26.1626C132.661 26.1866 132.766 26.3258 132.747 26.4745C132.747 26.5081 132.733 26.5369 132.718 26.5657C131.806 27.6454 130.985 28.442 130.259 28.9555C129.533 29.469 128.822 29.7233 128.125 29.7233C127.585 29.7233 127.198 29.5697 126.955 29.2578C126.711 28.9459 126.592 28.442 126.592 27.7414C126.611 27.0744 126.678 26.4121 126.793 25.7547L127.962 19.3148C128.11 18.6238 128.192 17.9183 128.206 17.2081C128.206 15.7493 127.681 15.0199 126.635 15.0199C125.775 15.0199 124.887 15.5718 123.975 16.6803C123.063 17.7888 122.204 19.3964 121.397 21.4982C120.59 23.6049 119.931 26.1002 119.42 28.9891C119.348 29.2242 119.167 29.4114 118.937 29.493C118.589 29.6273 118.221 29.6897 117.849 29.6753C117.123 29.6753 116.76 29.5793 116.76 29.3922L116.922 28.5812C117.166 27.4199 117.314 26.6761 117.366 26.3546L119.019 17.3233C119.09 16.9922 119.133 16.6515 119.138 16.3108C119.138 15.4758 118.885 15.0535 118.374 15.0535C117.729 15.0535 116.841 15.6485 115.714 16.8338C115.681 16.8626 115.638 16.877 115.595 16.8722C115.504 16.8722 115.428 16.8146 115.394 16.7283C115.342 16.6323 115.342 16.5603 115.394 16.5075C116.306 15.4278 117.152 14.6312 117.935 14.1177C118.713 13.6043 119.468 13.3499 120.193 13.3499C120.728 13.3499 121.12 13.5035 121.363 13.8154C121.607 14.1273 121.726 14.6168 121.726 15.2934C121.702 15.9029 121.635 16.5123 121.526 17.117L120.719 21.5702C121.688 18.9261 122.815 16.8674 124.104 15.3942C125.393 13.921 126.75 13.1868 128.173 13.1868C129.061 13.1868 129.724 13.4411 130.168 13.9546C130.613 14.468 130.832 15.2502 130.832 16.306C130.818 17.0546 130.737 17.7984 130.589 18.5326L129.261 25.7403C129.19 26.0714 129.147 26.4121 129.142 26.7529C129.142 27.5639 129.395 27.9669 129.906 27.9669C130.173 27.9669 130.508 27.8182 130.913 27.5207C131.439 27.1176 131.935 26.6857 132.403 26.225C132.456 26.1722 132.499 26.1434 132.523 26.1434L132.513 26.1626Z" fill="#3F3926"/>
<path d="M147.345 25.7598C147.269 26.1053 147.231 26.4604 147.226 26.8107C147.226 27.5929 147.469 27.9864 147.952 27.9864C148.219 27.9864 148.553 27.8376 148.959 27.5401C149.484 27.1418 149.981 26.7051 150.449 26.2444C150.492 26.1964 150.549 26.1676 150.611 26.1628C150.702 26.1676 150.779 26.2252 150.812 26.3068C150.869 26.3932 150.85 26.5036 150.774 26.5707C149.833 27.6505 149.012 28.4471 148.315 28.9605C147.617 29.474 146.915 29.7283 146.218 29.7283C145.679 29.7283 145.282 29.5748 145.029 29.2628C144.771 28.9509 144.647 28.4615 144.647 27.7848C144.662 27.1034 144.743 26.4268 144.891 25.7598L145.578 22.1559C144.394 24.5601 143.134 26.4508 141.792 27.828C140.45 29.2053 139.08 29.8915 137.68 29.8915C136.778 29.9155 135.904 29.5748 135.264 28.9413C134.62 28.3079 134.295 27.3146 134.295 25.9661C134.295 25.395 134.347 24.824 134.457 24.2673C135.207 20.3899 137.451 16.9684 140.703 14.7514C142.26 13.7245 143.793 13.211 145.297 13.211C145.941 13.1918 146.581 13.3454 147.149 13.6573L148.802 4.6644C148.859 4.35728 148.888 4.04536 148.883 3.73344C148.883 2.98004 148.601 2.60094 148.038 2.60094C147.637 2.60094 147.001 2.80248 146.142 3.21038H146.104C145.994 3.21038 145.922 3.1384 145.884 2.98964C145.846 2.84087 145.879 2.7545 145.984 2.7257L151.547 0.0144043H151.628C151.734 0.0144043 151.839 0.0575931 151.91 0.134373C151.991 0.215952 152.015 0.283135 151.991 0.335921L147.355 25.7694L147.345 25.7598ZM142.589 25.7789C143.721 24.4785 144.628 23.0005 145.287 21.4025C145.984 19.7421 146.333 18.4368 146.333 17.4963C146.333 16.6325 146.089 15.9703 145.607 15.5096C145.125 15.0489 144.48 14.8234 143.673 14.8234C142.035 14.8234 140.622 15.476 139.442 16.7861C138.258 18.0961 137.466 19.9772 137.064 22.4342C136.959 23.0485 136.902 23.6723 136.902 24.2961C136.902 25.4046 137.103 26.2396 137.509 26.8059C137.891 27.3625 138.53 27.6841 139.199 27.6553C140.355 27.6553 141.481 27.0266 142.584 25.7741L142.589 25.7789Z" fill="#3F3926"/>
<path d="M17.3003 39.2585H18.6469C19.8836 39.2585 20.4757 39.9352 20.4757 40.8229C20.4757 41.8067 19.769 42.3921 18.5896 42.3921H18.5227L20.7002 44.7147H20.0221L17.8829 42.3921H17.8017V44.7147H17.3051V39.2585H17.3003ZM18.5227 41.9459C19.5732 41.9459 19.96 41.49 19.96 40.8229C19.96 40.1559 19.5016 39.7384 18.5943 39.7384H17.7969V41.9506H18.5227V41.9459Z" fill="#3F3926"/>
<path d="M21.2489 42.7617C21.2489 41.4756 22.1275 40.6982 23.1064 40.6982C24.0137 40.6982 24.7491 41.3749 24.7491 42.6657C24.7491 42.7665 24.7443 42.8481 24.7347 42.9297H21.7455C21.8267 43.7886 22.3902 44.3261 23.1828 44.3261C23.6365 44.3261 24.1092 44.1581 24.5342 43.7694V44.3261C24.1331 44.6428 23.6699 44.7964 23.1589 44.7964C21.9986 44.7964 21.2441 43.9902 21.2441 42.7617H21.2489ZM24.2668 42.4978C24.2429 41.5716 23.6842 41.1589 23.0969 41.1589C22.4331 41.1589 21.841 41.6676 21.7503 42.4978H24.2668Z" fill="#3F3926"/>
<path d="M25.5277 42.7617C25.5277 41.4756 26.4063 40.6982 27.3852 40.6982C28.2925 40.6982 29.0279 41.3749 29.0279 42.6657C29.0279 42.7665 29.0183 42.8481 29.0135 42.9297H26.0243C26.1055 43.7886 26.669 44.3261 27.4616 44.3261C27.9153 44.3261 28.388 44.1581 28.813 43.7694V44.3261C28.4119 44.6428 27.9487 44.7964 27.4378 44.7964C26.2774 44.7964 25.5229 43.9902 25.5229 42.7617H25.5277ZM28.5456 42.4978C28.5217 41.5716 27.963 41.1589 27.3757 41.1589C26.7119 41.1589 26.1198 41.6676 26.0291 42.4978H28.5456Z" fill="#3F3926"/>
<path d="M33.1488 42.1188V44.7198H32.6522V42.3348C32.6522 41.5622 32.3036 41.1975 31.6446 41.1975C31.0382 41.1975 30.5655 41.6534 30.5655 42.2916V44.7246H30.0688V40.7896H30.4509L30.5177 41.399H30.532C30.7517 41.0343 31.1814 40.708 31.7449 40.708C32.5949 40.708 33.1536 41.2647 33.1536 42.1236L33.1488 42.1188Z" fill="#3F3926"/>
<path d="M36.0953 44.3211C36.4248 44.3211 36.8355 44.2492 37.1602 43.99V44.5323C36.8832 44.6955 36.5251 44.7962 36.0953 44.7962C34.9779 44.7962 34.1519 43.9085 34.1519 42.7424C34.1519 41.5763 34.9779 40.7029 36.0953 40.7029C36.506 40.7029 36.8546 40.7749 37.1602 40.9812V41.5235C36.8307 41.2739 36.5107 41.178 36.0858 41.178C35.3552 41.178 34.6485 41.7634 34.6485 42.7424C34.6485 43.7213 35.3552 44.3211 36.0953 44.3211Z" fill="#3F3926"/>
<path d="M38.1626 43.2322V40.78H38.6592V43.2562C38.6592 43.9184 39.0555 44.3215 39.6906 44.3215C40.3257 44.3215 40.7555 43.9184 40.7555 43.2514V40.7848H41.2521V43.237C41.2521 44.1632 40.6552 44.8014 39.6906 44.8014C38.7261 44.8014 38.1626 44.1632 38.1626 43.237V43.2322Z" fill="#3F3926"/>
<path d="M42.2645 42.7617C42.2645 41.4756 43.1432 40.6982 44.122 40.6982C45.0293 40.6982 45.7647 41.3749 45.7647 42.6657C45.7647 42.7665 45.7647 42.8481 45.7504 42.9297H42.7612C42.8423 43.7886 43.4058 44.3261 44.1984 44.3261C44.6521 44.3261 45.1248 44.1581 45.5498 43.7694V44.3261C45.1487 44.6428 44.6855 44.7964 44.1746 44.7964C43.0142 44.7964 42.2598 43.9902 42.2598 42.7617H42.2645ZM45.2824 42.4978C45.2585 41.5716 44.6998 41.1589 44.1125 41.1589C43.4488 41.1589 42.8567 41.6676 42.7659 42.4978H45.2824Z" fill="#3F3926"/>
<path d="M49.8856 42.1188V44.7198H49.389V42.3348C49.389 41.5622 49.0404 41.1975 48.3814 41.1975C47.775 41.1975 47.3023 41.6534 47.3023 42.2916V44.7246H46.8057V40.7896H47.1877L47.2545 41.399H47.2688C47.4885 41.0343 47.9183 40.708 48.4817 40.708C49.3317 40.708 49.8904 41.2647 49.8904 42.1236H49.8856V42.1188Z" fill="#3F3926"/>
<path d="M51.7479 40.7802H52.8939V41.2264H51.7479V43.3715C51.7479 44.0337 52.1204 44.3025 52.6408 44.3025C52.7507 44.3025 52.8653 44.2881 52.9894 44.2641V44.7103C52.9464 44.7199 52.7793 44.7487 52.574 44.7487C51.8004 44.7487 51.2513 44.2785 51.2513 43.3907V41.2264H50.6592V40.7802H51.2656V39.854H51.7479V40.7802Z" fill="#3F3926"/>
<path d="M53.8291 40.78H54.2254L54.2827 41.4182H54.2923C54.5645 40.8952 55.0802 40.7368 55.4335 40.7368C55.529 40.7368 55.6102 40.7464 55.6818 40.7512V41.2359C55.6007 41.2215 55.5147 41.2119 55.424 41.2119C54.8844 41.2119 54.3257 41.5718 54.3257 42.3588V44.715H53.8291V40.78Z" fill="#3F3926"/>
<path d="M56.0547 42.7473C56.0547 41.4852 56.919 40.6982 57.8453 40.6982C58.3993 40.6982 58.9627 40.9718 59.2779 41.5524H59.2874L59.3543 40.7798H59.7554V44.7148H59.3543L59.2874 43.9422H59.2779C58.9627 44.5229 58.3993 44.7964 57.8453 44.7964C56.919 44.7964 56.0547 44.0046 56.0547 42.7473ZM57.9074 44.3213C58.6619 44.3213 59.2683 43.6831 59.2683 42.7425C59.2683 41.802 58.6619 41.1781 57.9074 41.1781C57.153 41.1781 56.5465 41.802 56.5465 42.7473C56.5465 43.6927 57.1434 44.3165 57.9074 44.3165V44.3213Z" fill="#3F3926"/>
<path d="M60.9106 44.3648C60.9106 44.1392 61.073 43.9761 61.2927 43.9761C61.5123 43.9761 61.6747 44.1392 61.6747 44.3648C61.6747 44.5903 61.5123 44.7487 61.2927 44.7487C61.073 44.7487 60.9106 44.5855 60.9106 44.3648Z" fill="#3F3926"/>
<path d="M65.0322 39.2585H66.3788C67.6155 39.2585 68.2077 39.9352 68.2077 40.8229C68.2077 41.8067 67.5009 42.3921 66.3215 42.3921H66.2546L68.4321 44.7147H67.754L65.6148 42.3921H65.5336V44.7147H65.037V39.2585H65.0322ZM66.2546 41.9459C67.3052 41.9459 67.6919 41.49 67.6919 40.8229C67.6919 40.1559 67.2335 39.7384 66.3263 39.7384H65.5288V41.9506H66.2546V41.9459Z" fill="#3F3926"/>
<path d="M68.9809 42.7617C68.9809 41.4756 69.8595 40.6982 70.8384 40.6982C71.7456 40.6982 72.481 41.3749 72.481 42.6657C72.481 42.7665 72.4714 42.8481 72.4667 42.9297H69.4775C69.5586 43.7886 70.1221 44.3261 70.9148 44.3261C71.3684 44.3261 71.8411 44.1581 72.2661 43.7694V44.3261C71.865 44.6428 71.4018 44.7964 70.8909 44.7964C69.7305 44.7964 68.9761 43.9902 68.9761 42.7617H68.9809ZM71.9987 42.4978C71.9748 41.5716 71.4161 41.1589 70.8288 41.1589C70.1651 41.1589 69.573 41.6676 69.4822 42.4978H71.9987Z" fill="#3F3926"/>
<path d="M73.2646 42.7473C73.2646 41.4852 74.1289 40.6982 75.0553 40.6982C75.6092 40.6982 76.1822 40.9765 76.464 41.5044V38.8555H76.9606V44.7148H76.5595L76.4926 43.9422C76.1775 44.5228 75.6092 44.7963 75.0553 44.7963C74.1289 44.7963 73.2646 44.0045 73.2646 42.7473ZM75.1174 44.3213C75.8718 44.3213 76.4783 43.683 76.4783 42.7425C76.4783 41.8019 75.8718 41.1781 75.1174 41.1781C74.3629 41.1781 73.7565 41.8019 73.7565 42.7473C73.7565 43.6926 74.3534 44.3165 75.1174 44.3165V44.3213Z" fill="#3F3926"/>
<path d="M78.531 39.0762C78.7364 39.0762 78.8748 39.2153 78.8748 39.4073C78.8748 39.5992 78.7364 39.7432 78.531 39.7432C78.3257 39.7432 78.1968 39.604 78.1968 39.4073C78.1968 39.2105 78.3353 39.0762 78.531 39.0762ZM78.2827 40.7797H78.7793V44.7147H78.2827V40.7797Z" fill="#3F3926"/>
<path d="M82.4277 41.0438V41.5956C82.1507 41.3461 81.7353 41.1685 81.2673 41.1685C80.7277 41.1685 80.4174 41.4181 80.4174 41.778C80.4174 42.1907 80.7898 42.3202 81.3533 42.4978C81.9358 42.6801 82.6234 42.8625 82.6234 43.6495C82.6234 44.3453 82.0839 44.7964 81.2291 44.7964C80.7468 44.7964 80.2645 44.6476 79.8921 44.3357V43.7407C80.1929 44.0622 80.6609 44.3261 81.2243 44.3261C81.7878 44.3261 82.1364 44.0478 82.1364 43.6591C82.1364 43.2176 81.7353 43.0784 81.1479 42.8961C80.489 42.6897 79.9207 42.4978 79.9207 41.8164C79.9207 41.1349 80.446 40.6982 81.2721 40.6982C81.7114 40.6982 82.1555 40.8326 82.4277 41.0438Z" fill="#3F3926"/>
<path d="M83.392 42.7617C83.392 41.4756 84.2706 40.6982 85.2495 40.6982C86.1568 40.6982 86.8921 41.3749 86.8921 42.6657C86.8921 42.7665 86.8921 42.8481 86.8778 42.9297H83.8886C83.9698 43.7886 84.5332 44.3261 85.3259 44.3261C85.7795 44.3261 86.2523 44.1581 86.6772 43.7694V44.3261C86.2761 44.6428 85.8129 44.7964 85.302 44.7964C84.1417 44.7964 83.3872 43.9902 83.3872 42.7617H83.392ZM86.4098 42.4978C86.386 41.5716 85.8273 41.1589 85.2399 41.1589C84.5762 41.1589 83.9841 41.6676 83.8934 42.4978H86.4098Z" fill="#3F3926"/>
<path d="M91.013 42.1191V44.72H90.5164V42.335C90.5164 41.5624 90.1678 41.1977 89.5089 41.1977C88.9024 41.1977 88.4297 41.6536 88.4297 42.2918V44.7248H87.9331V40.7898H88.3151L88.382 41.3992H88.3963C88.6159 41.0345 89.0457 40.7082 89.6092 40.7082C90.4591 40.7082 91.0178 41.2649 91.0178 42.1239H91.013V42.1191ZM88.9645 39.2014C89.4898 39.2014 89.6426 39.6477 90.0294 39.6477C90.3015 39.6477 90.4018 39.4222 90.3923 39.2206H90.7791C90.8173 39.8157 90.4114 40.0364 90.0485 40.0364C89.5232 40.0364 89.3704 39.5901 88.9836 39.5901C88.7115 39.5901 88.6112 39.8253 88.6207 40.0172H88.2244C88.1957 39.4222 88.5873 39.2014 88.9645 39.2014Z" fill="#3F3926"/>
<path d="M92.0156 42.7473C92.0156 41.4852 92.8799 40.6982 93.8063 40.6982C94.3602 40.6982 94.9237 40.9718 95.2388 41.5524H95.2484L95.3152 40.7798H95.7163V44.7148H95.3152L95.2484 43.9422H95.2388C94.9237 44.5229 94.3602 44.7964 93.8063 44.7964C92.8799 44.7964 92.0156 44.0046 92.0156 42.7473ZM93.8684 44.3213C94.6228 44.3213 95.2293 43.6831 95.2293 42.7425C95.2293 41.802 94.6228 41.1781 93.8684 41.1781C93.1139 41.1781 92.5075 41.802 92.5075 42.7473C92.5075 43.6927 93.1091 44.3165 93.8684 44.3165V44.3213Z" fill="#3F3926"/>
<path d="M96.8721 44.3648C96.8721 44.1392 97.0344 43.9761 97.2541 43.9761C97.4737 43.9761 97.6361 44.1392 97.6361 44.3648C97.6361 44.5903 97.4737 44.7487 97.2541 44.7487C97.0344 44.7487 96.8721 44.5855 96.8721 44.3648Z" fill="#3F3926"/>
<path d="M100.993 39.2585H102.34C103.576 39.2585 104.169 39.9352 104.169 40.8229C104.169 41.8067 103.462 42.3921 102.282 42.3921H102.216L104.393 44.7147H103.715L101.576 42.3921H101.495V44.7147H100.998V39.2585H100.993ZM102.216 41.9459C103.266 41.9459 103.653 41.49 103.653 40.8229C103.653 40.1559 103.194 39.7384 102.287 39.7384H101.49V41.9506H102.216V41.9459Z" fill="#3F3926"/>
<path d="M104.942 42.7617C104.942 41.4756 105.821 40.6982 106.8 40.6982C107.707 40.6982 108.442 41.3749 108.442 42.6657C108.442 42.7665 108.433 42.8481 108.428 42.9297H105.439C105.52 43.7886 106.084 44.3261 106.876 44.3261C107.33 44.3261 107.803 44.1581 108.228 43.7694V44.3261C107.826 44.6428 107.363 44.7964 106.852 44.7964C105.692 44.7964 104.938 43.9902 104.938 42.7617H104.942ZM107.96 42.4978C107.936 41.5716 107.378 41.1589 106.79 41.1589C106.126 41.1589 105.534 41.6676 105.444 42.4978H107.96Z" fill="#3F3926"/>
<path d="M112.444 41.4998L112.511 40.78H112.907V44.4606C112.907 45.7227 112.009 46.3418 111.078 46.3418C110.553 46.3418 110.028 46.1498 109.622 45.8427V45.2572C110.032 45.6411 110.529 45.8523 111.078 45.8523C111.78 45.8523 112.41 45.3532 112.41 44.5662V43.8848C112.105 44.3839 111.56 44.6622 111.006 44.6622C110.08 44.6622 109.216 43.8704 109.216 42.6851C109.216 41.4998 110.08 40.708 111.006 40.708C111.56 40.708 112.133 40.9671 112.444 41.4998ZM111.073 44.1871C111.828 44.1871 112.434 43.5393 112.434 42.6515C112.434 41.7637 111.828 41.1831 111.073 41.1831C110.319 41.1831 109.712 41.8165 109.712 42.6899C109.712 43.5633 110.309 44.1871 111.073 44.1871Z" fill="#3F3926"/>
<path d="M113.967 42.7617C113.967 41.4756 114.846 40.6982 115.825 40.6982C116.732 40.6982 117.467 41.3749 117.467 42.6657C117.467 42.7665 117.463 42.8481 117.453 42.9297H114.464C114.545 43.7886 115.108 44.3261 115.901 44.3261C116.355 44.3261 116.827 44.1581 117.252 43.7694V44.3261C116.851 44.6428 116.388 44.7964 115.877 44.7964C114.717 44.7964 113.962 43.9902 113.962 42.7617H113.967ZM116.985 42.4978C116.961 41.5716 116.402 41.1589 115.815 41.1589C115.151 41.1589 114.559 41.6676 114.469 42.4978H116.985Z" fill="#3F3926"/>
<path d="M121.588 42.1188V44.7198H121.091V42.3348C121.091 41.5622 120.743 41.1975 120.084 41.1975C119.477 41.1975 119.004 41.6534 119.004 42.2916V44.7246H118.508V40.7896H118.89L118.957 41.399H118.971C119.191 41.0343 119.62 40.708 120.184 40.708C121.034 40.708 121.593 41.2647 121.593 42.1236H121.588V42.1188Z" fill="#3F3926"/>
<path d="M122.595 42.7617C122.595 41.4756 123.474 40.6982 124.453 40.6982C125.36 40.6982 126.095 41.3749 126.095 42.6657C126.095 42.7665 126.086 42.8481 126.081 42.9297H123.092C123.173 43.7886 123.736 44.3261 124.529 44.3261C124.983 44.3261 125.455 44.1581 125.88 43.7694V44.3261C125.479 44.6428 125.016 44.7964 124.505 44.7964C123.345 44.7964 122.59 43.9902 122.59 42.7617H122.595ZM125.613 42.4978C125.589 41.5716 125.03 41.1589 124.443 41.1589C123.779 41.1589 123.187 41.6676 123.096 42.4978H125.613Z" fill="#3F3926"/>
<path d="M127.132 40.78H127.528L127.585 41.4182H127.595C127.867 40.8952 128.383 40.7368 128.736 40.7368C128.832 40.7368 128.913 40.7464 128.985 40.7512V41.2359C128.903 41.2215 128.817 41.2119 128.727 41.2119C128.187 41.2119 127.628 41.5718 127.628 42.3588V44.715H127.132V40.78Z" fill="#3F3926"/>
<path d="M129.357 42.7473C129.357 41.4852 130.221 40.6982 131.148 40.6982C131.702 40.6982 132.265 40.9718 132.58 41.5524H132.59L132.657 40.7798H133.058V44.7148H132.657L132.59 43.9422H132.58C132.265 44.5229 131.702 44.7964 131.148 44.7964C130.221 44.7964 129.357 44.0046 129.357 42.7473ZM131.21 44.3213C131.964 44.3213 132.571 43.6831 132.571 42.7425C132.571 41.802 131.964 41.1781 131.21 41.1781C130.455 41.1781 129.849 41.802 129.849 42.7473C129.849 43.6927 130.446 44.3165 131.21 44.3165V44.3213Z" fill="#3F3926"/>
<path d="M134.213 44.3648C134.213 44.1392 134.376 43.9761 134.595 43.9761C134.815 43.9761 134.977 44.1392 134.977 44.3648C134.977 44.5903 134.815 44.7487 134.595 44.7487C134.376 44.7487 134.213 44.5855 134.213 44.3648Z" fill="#3F3926"/>
</svg>
