<svg width="48" height="40" viewBox="0 0 48 40" fill="none" xmlns="http://www.w3.org/2000/svg">
<path d="M17.8572 38.1843L12.864 36.3083C11.5628 35.8188 8.10954 37.2673 6.71079 37.7657L2.65152 39.2098C2.1576 39.3847 1.65952 39.4822 1.149 39.5929C0.684135 39.6926 0.240022 39.4578 0.181914 38.8908C0.15286 38.6228 0.107204 38.2773 0.103053 37.9871L0.0221166 32.3902C0.00758956 31.316 -0.0193893 30.2949 0.0221166 29.2207L0.22757 24.111C0.296055 22.4211 0.208893 20.8042 0.208893 19.1231V11.5084L0.310583 8.32568C0.352089 6.95689 0.428874 5.67227 0.704888 4.31456C0.746394 4.113 1.05976 3.94246 1.23409 3.87823L4.12498 2.81731L8.64705 1.05649C9.61206 0.679964 10.7369 0.0974539 11.7828 0.343304C13.4202 0.726475 14.9144 1.39758 16.4958 1.96016L21.2648 3.65896L23.9897 4.53383C25.3636 4.13515 26.5984 3.57479 27.9058 3.01665L30.5456 1.88706C32.1954 1.18052 33.8204 0.531568 35.547 0C36.9499 0.203768 38.1453 0.770772 39.4071 1.35328L42.5802 2.82174C44.3421 3.63681 45.828 4.05763 47.5028 4.96794C47.8992 5.18278 48.0445 5.65012 47.9884 6.11081C47.8618 7.12301 47.8266 8.0754 47.7788 9.09424L47.6502 11.7919L47.5505 15.1165L47.5568 24.3679C47.5568 25.9117 47.6211 27.3779 47.5609 28.904L47.4551 31.5463L47.3741 36.3016C47.3617 37.017 47.2766 37.7191 47.1147 38.3903C46.9757 38.9661 46.405 39.3581 45.8571 39.2385C43.9395 38.8177 42.1029 38.3415 40.2455 37.728L37.1948 36.7225C36.1904 36.3924 35.8438 36.2308 34.7916 36.2972L28.9995 38.4102C27.5011 38.9573 26.1024 39.4379 24.5895 39.8764C23.8942 40.078 23.1845 40.0226 22.4955 39.7856L17.8572 38.1865V38.1843ZM11.1872 32.8575C11.21 33.5574 11.1955 34.1133 11.2515 34.8044C11.6542 34.831 11.9447 34.8 12.2518 34.6449L12.1688 26.4366L12.1315 19.6481C13.8872 20.0312 15.5017 20.4897 17.1973 20.9615L23.2135 22.6381L23.2364 38.5143C23.6701 38.6804 24.1038 38.6317 24.4733 38.4323L24.5002 32.3636C24.5023 31.8276 24.5708 31.316 24.4878 30.7866L24.411 27.9693L24.3882 22.7179L30.1679 20.9482L35.4599 19.3668L35.3104 27.4555L35.2544 34.7778L36.4788 34.9262L36.5702 32.3348L36.6552 23.1298L36.7507 19.4576L43.6345 21.8563L45.8779 22.6071C46.1456 22.2461 46.1954 21.5086 45.9629 21.1542L43.2298 20.2173L37.9253 18.3147L36.7196 17.9116L36.732 1.9225C36.732 1.70545 36.7507 1.4751 36.6511 1.39536C36.3398 1.1473 35.6217 1.41308 35.4516 1.8029L35.435 15.6702L35.3208 17.936L33.092 18.6137L26.3597 20.6891C25.6811 20.8972 25.1249 21.0656 24.3965 21.214L24.4172 18.709L24.4504 10.1264C24.4546 9.18726 24.3404 8.32125 24.4151 7.40651C24.4566 6.90816 24.4421 6.48069 24.4297 5.92255C23.9814 5.88933 23.6286 5.89376 23.2239 6.00228L23.2177 21.2716L12.1356 18.2438L12.1066 10.8418L12.009 8.78194L11.9136 1.91586C11.8845 1.65672 11.1582 1.58141 11.0295 1.78518C10.8842 2.23258 10.8801 2.81952 10.8759 3.33559L10.8406 9.08316V10.1308L10.9236 13.7654L10.9672 18.1752L1.29012 21.389C1.11787 21.7057 1.10127 22.1797 1.19466 22.503C1.3337 22.5584 1.61594 22.565 1.76952 22.5318L5.57353 21.2118C7.38734 20.5827 9.12644 19.998 11.0419 19.5639L11.1042 30.2329L11.1893 32.8619L11.1872 32.8575Z" fill="#DEDAA9"/>
</svg>
