<svg width="98" height="90" viewBox="0 0 98 90" fill="none" xmlns="http://www.w3.org/2000/svg">
<path d="M43.5461 28.3536L42.5036 29.8588C41.99 30.6038 40.7517 31.1429 39.8491 30.8886C38.8447 30.6038 38.3997 28.7934 37.7081 29.6147C36.9631 30.4996 35.9562 30.8047 34.8654 30.8759C35.1095 31.5115 35.2545 32.0557 35.046 32.5718C34.5044 33.9017 32.4677 33.7084 31.2218 32.9278L29.4648 34.0949C28.9715 34.4229 28.163 34.7331 27.6086 34.517C26.7492 34.1839 26.4416 33.3448 26.1746 32.4625C25.2185 33.1312 24.143 33.3931 22.9556 33.1083C23.4946 38.392 21.0409 36.5664 21.0562 37.8987C21.0892 40.5507 18.277 42.084 17.1913 41.3415C16.1056 40.5991 16.7947 39.4167 17.293 38.509C16.8175 38.6666 16.276 38.8955 15.8234 38.9336C14.7148 39.0277 14.0816 38.3488 13.8528 37.2478L12.1695 38.7632C11.2466 39.5947 10.049 39.7244 8.90984 39.0277C8.35808 40.0626 7.51646 40.9016 6.32903 40.9677C4.92802 41.0466 3.93383 40.0397 3.96943 38.5395C2.98033 38.776 1.16232 40.1693 0.297811 38.3386C-0.200553 37.286 0.00540312 36.0375 0.836857 35.2137L1.86918 35.0586C1.17503 34.4941 0.437657 33.9881 0.0969393 33.1439C-0.172584 32.4778 0.163049 31.8624 0.574962 31.3336C1.02756 30.7564 1.87681 30.1207 2.60147 30.6928C3.0439 31.0412 3.70753 32.0175 4.361 31.509C4.77291 31.1886 4.16521 30.5072 3.82958 30.2962C3.21934 29.9148 2.75912 29.2333 3.06678 28.5468C3.63888 27.2678 5.22805 26.8152 6.51973 27.5831C7.2571 26.2864 8.81067 26.0143 9.99302 26.8915C10.4075 27.1992 10.794 27.6543 11.2084 28.0789C12.256 27.4153 13.3697 27.0568 14.5342 27.4458L13.685 26.3677C13.3926 25.9965 13.4739 25.3964 13.8147 25.1066L15.0529 24.0513C12.6908 23.7691 11.9026 24.2319 9.55314 23.0648C8.75728 22.6707 8.49538 21.8392 8.81576 21.0586C8.28943 20.6111 7.78344 20.095 7.49611 19.4822C7.1554 18.7524 7.50374 18.099 7.99702 17.6082C9.53788 16.0775 10.5066 18.015 12.1187 18.2693C12.3043 17.087 13.1307 16.4589 14.1706 16.2148C14.9741 13.634 17.3795 14.3256 17.8499 14.2366C18.8288 14.051 19.7162 13.4611 20.6265 14.5214C21.6512 15.7165 22.2131 17.0285 22.0199 18.7575C23.0649 18.2541 24.0133 17.9972 25.0787 18.104C24.6134 17.1836 24.293 15.9606 25.1372 15.2257C25.9254 14.5392 27.2806 14.8494 28.0612 15.4978L29.1012 14.379C28.0638 13.9595 27.4001 13.6773 27.3061 12.4873C26.4441 12.7187 25.4474 12.6475 24.7761 11.9406C24.3515 11.4906 24.0743 10.6388 24.3642 10.0412C24.682 9.38776 25.3864 8.97585 25.9585 8.59699L25.7016 7.67909C25.5516 7.14513 25.8034 6.47132 26.1364 6.15094C26.5738 5.72886 27.2806 5.5407 27.8578 5.82548C28.6206 6.2018 29.1012 6.9112 29.5029 7.67909L31.0082 7.30277C30.5988 6.4942 30.1767 5.6119 30.7234 4.83892C31.0514 4.37362 31.9719 4.40413 32.3278 4.01764C32.6431 3.67438 32.7118 2.95481 33.0729 2.75139C33.6119 2.44627 34.2552 2.15895 34.7663 2.49967C35.4426 2.95226 35.5621 3.72269 35.7833 4.5694C37.3039 3.94899 37.0064 1.07069 39.8999 2.04961C40.9145 0.729967 42.0663 -0.655789 43.8843 0.338396C44.3496 0.592663 46.31 -0.327784 46.7423 1.58431L47.1033 3.1811C47.7822 2.79716 48.4052 2.32677 49.0891 2.16403C49.9435 1.96062 50.5817 2.70308 50.9326 3.45571C51.9064 2.77428 52.9642 1.89197 54.4186 2.20726C55.5882 2.45898 55.9518 3.75829 55.6009 4.85672C56.6968 5.10336 59.5955 5.60173 59.7989 7.00528L59.987 8.29696C61.3041 7.97404 63.44 7.66129 64.096 8.79786C64.7469 9.92427 62.7865 11.3888 62.0161 11.9838L63.562 12.7161C63.8646 12.8611 64.1824 13.3798 64.2511 13.6823C64.4927 14.735 63.1374 15.6453 61.8483 15.5588C61.7796 15.6809 61.683 16.0521 61.6499 16.2453C62.5119 16.3547 63.0255 16.7361 63.5646 17.4074C64.541 16.6115 65.3216 15.6555 66.4708 15.2003C67.193 14.9155 68.1516 15.4444 68.6474 15.9606C69.1788 16.5098 69.9619 16.6751 70.4857 16.1131C70.1374 15.8589 69.5475 15.5003 69.4661 15.1545C69.1762 13.9366 70.1552 12.9094 71.307 12.7873C72.4588 12.6653 73.4556 13.1611 74.4192 13.8985C74.5184 13.0797 74.9074 12.3703 75.4821 12.0296C76.2194 11.5897 77.056 11.6787 77.7984 12.1084C78.5409 12.5381 78.9401 13.2933 79.174 14.1298C79.4232 15.0172 80.0741 14.3333 81.4574 14.946C82.21 15.2791 82.4286 16.0013 82.21 16.7819C81.943 17.7379 83.016 18.0862 82.566 19.0779C82.1159 20.0695 80.659 20.0466 79.7538 20.095C79.8275 21.2366 79.1893 21.9511 78.4468 22.8309C80.0182 22.452 81.4853 22.6071 83.0262 22.9834C83.0338 22.3732 83.0465 21.5799 83.5932 21.1959C84.5975 20.4865 85.5053 21.7324 86.5325 21.3739C87.5598 21.0154 88.4421 21.3892 89.0065 22.2232L90.0211 23.7157C90.8246 23.8784 91.6153 24.1531 92.1035 24.8447C92.4493 25.3329 92.5129 25.9711 92.2408 26.5508C92.0501 26.9551 91.4399 27.3543 90.8627 27.6187C91.2212 28.4069 91.2899 29.1926 90.8144 29.9478C90.3465 30.6928 89.7541 31.0666 88.7192 30.8937L89.3396 32.1726C90.5703 32.2871 91.7247 32.6863 92.368 33.7644C92.8587 34.5882 92.6426 35.5544 92.1213 36.2536C91.6001 36.9529 90.6288 37.2961 89.7134 37.0876C88.6023 36.8359 87.8674 36.0375 87.2063 35.1196C85.4849 35.7298 84.3051 36.0324 82.9321 34.517C82.2964 34.4483 81.5336 35.084 81.554 35.8392C82.8863 36.0451 84.028 36.7545 84.6509 38.0411C84.8823 38.5166 84.623 39.7574 83.9314 39.8286L80.8217 39.3989C80.3284 37.9725 79.7334 36.5816 78.635 35.529C77.562 34.4992 75.8482 34.1229 74.5718 34.8857C73.9641 35.2493 73.4505 35.5315 72.7182 35.1323C73.0131 33.3016 71.9656 31.7175 70.2721 31.0895C67.9431 30.2224 66.1072 31.2598 64.5537 32.971C63.3052 32.2413 61.8381 32.6176 61.1211 33.9856C60.0633 33.4211 58.9623 33.383 57.8486 33.4211C56.5544 32.2515 57.5817 30.9394 57.7546 29.7952C57.2155 29.841 56.8697 29.8741 56.3459 29.9478C55.1763 30.1131 53.816 29.5842 53.5592 28.2951C53.4803 27.8984 53.4575 27.4 53.399 26.9881C52.2929 27.1763 51.3775 26.9068 50.5105 26.411C49.2188 27.7382 48.2704 26.8661 46.8821 26.3423C46.8974 27.3339 46.8262 28.2595 46.3303 29.0528C45.9184 29.7113 45.1302 29.9453 44.464 29.4393C44.1309 29.1875 43.864 28.796 43.5334 28.3561L43.5461 28.3536Z" fill="#A79854"/>
<path d="M31.842 55.6284C32.0785 57.6016 30.9648 59.9484 28.6662 59.8467C29.8028 62.4199 28.3637 63.9099 26.4083 65.1152C26.7414 66.2568 26.5406 67.5154 25.7549 68.3927C23.9623 70.3912 21.2569 69.2902 18.9659 68.3774L17.4683 69.2902C16.2682 70.02 14.679 70.3581 13.4077 69.575C12.5355 69.0359 12.1363 68.0341 11.8261 67.0628L10.7963 68.2935C9.6801 69.6284 7.4934 70.1191 6.66703 69.0665C6.44328 68.7817 6.32123 68.1282 6.50939 67.8002L7.11963 66.7196L5.49486 66.417C4.83122 66.2924 4.04045 65.5525 4.05062 64.8151C4.06588 63.8057 4.8058 62.8979 5.63217 62.4301L7.17557 61.5529L6.41785 60.813C5.76438 60.1773 5.60674 59.2696 6.08476 58.4305C6.56278 57.5914 7.38152 56.9049 8.23586 56.2514L6.87553 55.3233C6.34666 55.8624 5.87626 56.376 5.28128 56.821C4.29726 57.5558 2.80471 57.599 1.92241 56.6862C1.34776 56.0912 1.31979 54.975 1.80799 54.3393C2.14108 53.9071 2.56316 53.5918 3.01576 53.2307C2.1487 52.2416 2.17413 50.833 3.03864 49.8108C3.65651 49.0785 4.64307 48.5878 5.63725 48.5064L7.58748 48.3462C8.2918 47.0774 9.33938 46.0578 10.8167 45.7629C13.4077 45.2467 14.4527 45.9383 16.2656 47.8377C17.6488 46.8461 19.3219 46.2511 21.0484 46.6528C21.7222 46.8105 22.4062 47.3165 23.08 47.6801C24.1428 45.979 26.7719 45.1679 28.6383 44.6695C28.4552 42.3303 29.6502 40.9191 31.8242 40.4995C31.6996 39.4698 32.1573 38.5391 33.1159 38.262C33.5863 38.1272 34.1965 38.323 34.5271 38.6688L35.651 39.8334C36.5205 39.1113 37.2401 38.7273 38.2546 38.8875C39.9633 39.157 40.8583 40.5377 41.0312 42.2515C42.4577 41.6183 43.9528 41.8319 45.4453 41.8777C46.32 41.4047 47.4439 40.9369 48.4101 40.6114C48.9084 38.8595 49.8797 38.3408 51.7054 38.0128C51.8681 36.6754 52.8114 35.8541 54.0726 35.5439C55.1278 35.2845 55.9364 35.788 56.8695 36.0473C57.6222 35.8668 58.4231 35.1167 59.4097 35.4015C60.1191 35.6049 60.9175 36.0956 61.4057 36.9932C61.6905 36.3194 62.0083 35.6151 62.6643 35.221C63.3762 34.7913 64.284 34.9998 65.0315 35.1167C65.5324 34.476 65.9749 33.731 66.6894 33.2606C68.0497 32.363 70.1931 32.869 70.7373 34.5014C71.1441 35.7219 70.2872 36.9474 69.8372 38.0662C71.3577 38.023 71.523 37.3034 73.3105 38.0713C74.0961 37.1839 75.2531 36.5279 76.4913 36.8457C78.1822 37.2805 78.7492 39.5842 78.6755 41.1632C82.253 40.5148 86.0493 41.659 86.6646 45.6307C88.4343 45.3535 89.5759 43.5787 91.0685 43.9881C91.6838 44.1559 92.1313 44.667 92.4085 45.3205L92.9119 46.5079L94.6943 46.0629C95.3376 45.9027 96.1818 46.1799 96.4971 46.7825C96.9624 47.675 96.7285 48.7098 96.1004 49.5235C96.7208 49.8006 97.4709 50.0193 97.7989 50.6067C98.1651 51.2601 97.9591 52.2492 97.3972 52.7323C96.9904 53.0832 96.2072 52.9663 95.6962 52.9917C95.5334 53.5028 95.2944 54.0901 94.9105 54.5097C94.468 54.9928 93.84 55.1225 93.3543 54.6241L92.4034 53.6528C92.4441 54.8733 91.7347 55.5547 90.6057 55.8471C91.2058 57.4846 93.5171 57.1718 93.7815 58.6212C94.1502 60.6299 91.2694 61.3952 89.6777 61.4029C89.82 62.2419 89.7132 62.9361 89.1945 63.5006C88.775 63.9582 87.9893 64.4693 87.2545 64.21L85.9221 63.737C85.5916 64.7516 84.7576 65.2245 83.7685 65.0719C82.6522 64.899 81.7165 64.4108 81.0656 63.3607C80.463 64.1998 79.69 64.4464 78.7976 64.4846C77.9051 64.5227 77.1524 64.0142 76.4303 63.2285C74.7089 64.1896 72.5248 63.915 71.2916 62.3208C70.6991 61.5554 70.7729 60.4748 70.75 59.4882C70.122 59.3001 69.4176 59.0763 68.8557 58.7127C68.0344 58.1838 67.8488 57.271 68.1539 56.2997C65.6291 55.6895 65.7791 53.6121 65.4994 53.2307C65.4383 53.1493 63.2084 54.0113 62.4049 52.2899C61.7693 50.9296 62.766 50.0244 63.1093 49.0353C62.2168 49.3277 61.6065 49.9405 60.9963 50.688C59.163 52.9281 57.3094 52.0585 55.1965 50.8075C53.7751 52.356 51.6698 52.3535 50.2027 50.7999L49.1093 51.8907C48.077 52.9205 46.6633 52.8163 45.458 51.9161C45.2826 53.0248 45.1707 54.0189 44.8147 54.9546C44.2909 56.3302 42.8848 57.0905 41.4788 56.8362C40.4668 56.6531 40.0854 55.6793 39.8794 54.8453C37.5503 55.1784 36.3095 54.502 34.7305 52.7934C34.1355 54.1028 33.1998 55.1936 31.8471 55.6361L31.842 55.6284Z" fill="#A79854"/>
<path d="M59.1809 89.5326C57.0705 90.2598 55.6415 88.607 53.6786 88.6757L53.4802 89.1918C53.4319 89.319 53.0454 89.3342 52.9081 89.2783C50.6757 88.396 50.5485 87.384 47.2227 86.3085C46.8159 86.1762 46.315 86.2907 45.9743 86.5017C44.8301 87.2086 43.6579 87.679 42.3891 88.0782C41.7 88.2943 41.2017 88.1163 40.5152 87.8519C39.3913 87.7323 38.8116 88.5206 37.464 88.2689C34.5526 87.7247 35.7298 87.8137 32.5261 88.3426C32.5871 88.04 32.7498 87.6968 32.971 87.5289C35.1857 85.8533 37.4284 86.0822 38.0335 85.6372C39.0302 84.9049 39.9583 84.2718 40.8228 83.4047C41.2551 82.9191 41.3492 81.841 41.4585 81.1799C42.145 77.0913 44.2376 75.7055 43.9732 74.9758C43.0044 72.3034 41.8831 71.5559 42.3484 68.8327C42.1857 68.375 41.7433 67.7266 41.4 67.3427L39.5769 65.3034C38.1835 65.1611 36.9961 65.7077 36.0273 66.646C34.9747 67.6656 33.444 67.7825 32.3989 66.7146C31.0081 65.2958 30.2097 65.5781 28.2544 65.6009L29.3503 64.5661C29.9148 64.0321 30.2478 63.46 30.6089 62.6311L32.6685 63.4778C33.622 63.8694 34.3263 63.4829 34.8857 62.7252C35.2874 62.181 35.8646 61.792 36.4876 61.3114C35.9485 60.4673 35.3586 59.6384 34.7535 58.7866L33.4592 56.966C34.2449 56.3329 34.7382 55.7786 35.2773 55.0082C36.8664 56.5058 38.0793 58.1179 39.254 59.8825C39.8083 60.719 40.6245 61.6089 41.5424 61.9675L44.9903 63.3151C44.769 62.0412 44.4512 60.9453 44.019 59.8189L43.3401 58.0517C44.3368 57.561 44.9191 57.1593 45.4988 56.1905L46.6938 57.8738L48.3618 55.7379C48.7229 55.2752 48.372 54.3674 48.2983 53.8385C49.0153 53.4978 49.7247 53.0732 50.3833 52.5901L51.8021 53.3605L52.2013 55.3184C51.5961 56.7245 49.7044 58.3238 49.534 59.6536C49.412 60.6071 49.5162 61.5784 49.9383 62.448C50.0781 62.7328 50.7214 62.4684 50.9681 62.359C52.7988 61.5403 54.4643 60.5029 55.7051 58.9366C55.1431 56.7219 54.6778 54.7844 55.5169 52.6816L57.9655 53.5716C58.0316 54.9853 58.0367 56.9813 59.3716 57.767C61.8863 56.7321 62.9008 57.8916 65.0875 55.9947C65.0875 55.9947 65.5834 56.6685 65.7486 56.8414C65.9317 57.0321 66.4758 57.4415 66.4758 57.4415C66.4758 57.4415 66.6818 58.5857 67.0912 59.2493C66.6335 59.496 66.2012 59.6485 65.7334 59.7782L63.1373 60.4902C61.065 61.0572 59.0741 61.8403 57.6375 63.4524C56.7679 64.4288 56.3077 65.6696 56.7247 66.9486C59.7556 66.2214 59.7174 64.8737 62.4101 63.61C63.8467 62.9337 65.1765 63.8796 65.952 63.0405C66.8344 62.0819 67.9582 61.4259 69.2652 61.2886C69.5703 62.0997 69.9618 62.7989 70.4627 63.4778C68.4515 64.8915 68.2125 66.2595 65.9571 67.363C65.3494 67.6605 64.7011 67.6122 64.073 67.4164C63.3382 67.185 62.5398 67.4317 62.1355 68.1284C60.9532 70.1701 59.2648 71.8432 57.0552 72.7662C56.5314 72.9849 56.5492 73.3764 56.5823 73.8545L56.9205 78.5762C56.984 79.4509 57.2841 80.4654 57.5409 81.2892C59.2089 82.7741 59.4886 82.3826 60.2361 84.7117L62.5093 86.1686C63.2822 86.6644 63.9408 87.356 64.7417 87.8163C65.5452 88.279 66.5521 88.3858 67.0962 89.352L61.6905 88.2816C58.6978 87.6891 58.052 86.0593 55.9771 86.4432L57.5027 88.518C58.1079 88.7698 58.5554 88.902 59.1885 89.5376L59.1809 89.5326Z" fill="#A79854"/>
<path d="M39.2846 37.6036C36.4571 36.4645 34.5654 37.7841 32.2007 34.7889C33.0423 34.7278 33.7136 34.6668 34.4687 34.438C35.6841 34.0667 35.4095 35.2643 37.3674 35.3177L39.1244 35.366C39.1854 34.9058 39.0176 34.0693 38.5218 33.7616L36.18 32.2996C37.1182 31.9614 37.7844 31.7122 38.5192 31.2571L40.6627 32.6784C41.9086 33.5048 40.8153 34.0845 42.6841 36.1314C43.1647 36.6577 46.2591 40.0776 45.6133 40.5709L42.2163 40.5887C41.4255 39.5131 40.6144 38.1426 39.2846 37.6061V37.6036Z" fill="#A79854"/>
<path d="M47.342 32.3759L46.5996 30.6036C46.5411 30.3214 46.9759 29.8103 47.2403 29.6222L48.6846 31.2901L49.4118 28.183L51.5934 28.2644L52.2799 28.0813C52.1807 28.9306 51.9926 29.734 52.0104 30.5528L52.1121 34.9974C51.334 35.4194 50.9704 36.1873 50.5941 36.9451L49.0558 37.6723C48.5752 35.8949 48.0743 34.1278 47.342 32.3784V32.3759Z" fill="#A79854"/>
<path d="M27.3978 43.8229L25.4602 44.5018C24.4178 42.6304 23.8329 41.3082 21.8853 40.2377L22.2387 37.9951C22.7752 38.0841 23.2786 38.2265 23.8406 38.4197C24.5627 37.273 24.5271 35.9838 24.2093 34.5548L25.7628 34.3794C26.49 36.6703 26.6045 36.6119 25.8569 38.9206C26.4214 39.869 27.1664 40.7361 27.9038 41.5879C27.6444 42.3049 27.4766 42.8338 27.4029 43.8254L27.3978 43.8229Z" fill="#A79854"/>
</svg>
