<svg width="89" height="94" viewBox="0 0 89 94" fill="none" xmlns="http://www.w3.org/2000/svg">
<path d="M3.83498 57.0189C5.69849 58.0751 7.54832 58.7647 9.44468 59.5884C15.9766 62.4179 16.6798 65.6304 20.177 67.1328C21.4002 67.6581 22.7273 67.8251 24.0053 68.1835C26.7992 68.9689 29.1169 70.6026 30.7752 72.9531L32.0777 74.803C33.5198 74.9617 34.8826 75.1286 36.0812 75.8839C36.9267 76.4175 37.7805 77.0496 38.4646 77.7939L43.267 83.0123C44.5094 84.3614 45.9843 85.3684 47.5715 86.4246L45.1607 79.5917C43.1111 73.785 41.2311 63.8901 41.2476 57.703C42.1834 58.4993 42.9961 58.9234 44.0278 59.2573C44.8432 68.6214 46.6246 76.6939 50.1464 85.2014L50.286 81.3212C50.3982 78.1579 51.6214 75.3065 53.8735 73.0845C54.9899 71.9845 56.1584 71.0814 57.4308 70.1264C58.2819 69.4888 59.3463 68.8293 59.828 67.847C61.1414 65.1625 62.5781 62.7052 64.7618 60.6748C67.4982 58.1271 70.615 56.3211 74.2545 55.3825C75.7212 55.0049 77.1277 54.63 78.5397 54.0581C79.4537 53.6859 80.239 53.0209 80.9806 52.397L82.9974 50.7004C85.0251 48.9956 88.4429 48.67 88.1884 49.3021C88.1419 49.4198 88.0242 49.6442 87.9257 49.7865C86.3386 52.0988 85.3452 54.6655 84.6639 57.3883C83.8895 60.4887 81.8207 64.462 79.4592 66.6703C75.8936 70.006 72.4402 71.7163 67.7883 73.1721C66.4282 73.599 66.1245 74.8905 64.302 76.2971C62.3537 77.8021 60.1509 78.4917 57.7975 79.1129C55.8875 79.6164 54.0541 80.7027 53.1866 82.5362C52.2343 84.5474 51.7801 86.9391 52.0811 89.1638C52.2754 90.6086 53.556 91.5965 54.1444 92.9237C53.6354 93.5749 53.1866 92.6774 51.6734 93.0413C51.2821 93.1371 50.8004 92.9866 50.6007 92.6473L49.1066 90.1051C48.4499 88.9887 42.5939 87.1689 41.0286 86.7585C36.6449 85.6119 32.4171 84.3367 28.1729 82.7852C25.9016 81.956 23.9204 80.8423 21.7614 79.7696C15.3089 76.5598 10.5064 73.1967 5.90373 67.5979C4.34396 65.7016 3.32053 63.6164 2.28068 61.4382C1.76076 60.3519 -0.981151 54.5041 0.370649 53.7133L1.77171 55.2183C2.36551 55.8586 3.01678 56.5537 3.84319 57.0216L3.83498 57.0189ZM54.5138 78.1113C56.6373 74.7866 59.8444 74.097 62.7724 72.0665C63.6097 71.4864 64.2555 70.608 64.8083 69.7406C67.6815 65.2227 70.8859 63.5015 75.5351 61.0743C78.2442 59.6595 80.5209 57.7823 82.6225 55.5768C82.4583 55.2375 82.1299 54.9228 81.7933 54.827C80.0365 56.6221 77.0401 58.9207 74.8838 60.0536L69.8652 62.6915C67.5557 63.9065 65.9056 65.7727 64.551 67.9728C62.4495 71.3824 61.6149 71.6725 58.1451 73.3691C56.5251 74.1599 55.1432 75.1615 54.0979 76.6364C53.9145 76.8936 53.3152 77.7255 53.3152 77.7255L54.5138 78.1141V78.1113ZM39.9751 83.6827L40.6674 82.8344C38.7191 80.5988 35.2876 79.0664 32.491 78.1661L27.7077 76.6282C25.8305 76.0234 24.3719 74.8522 23.1241 73.3691C21.6437 71.6096 19.8842 70.3946 17.8291 69.3903L15.9464 68.4709C14.8847 67.9509 13.8503 67.5131 12.9035 66.7825C10.6679 65.0558 8.73047 63.2005 6.75749 61.1701L5.92014 61.887C7.85754 64.0269 11.3739 67.4009 13.7327 68.7172C15.7166 69.8227 17.7799 70.6135 19.5859 72.0146C20.4315 72.6713 21.3017 73.3746 22.0268 74.1572C23.4771 75.7252 25.0177 76.9347 27.0646 77.6653L33.5773 79.9913C34.7978 80.4264 35.9416 81.0503 37.0663 81.6742C38.1171 82.2598 38.9681 83.0369 39.9724 83.68L39.9751 83.6827Z" fill="#A79854"/>
<path d="M63.763 39.5929L51.7828 34.4402C52.5627 33.0446 51.7172 32.0951 51.7172 32.0951C51.7172 32.0951 51.8895 31.8789 51.8868 31.2249C51.8868 30.7323 51.6706 30.4149 51.6706 30.4149C55.2472 28.7046 53.9008 27.818 53.9008 27.818C55.1213 26.5018 54.6424 25.3415 53.6929 25.0816C53.3016 24.9748 52.601 25.0323 52.601 25.0323C51.9197 24.0636 50.8415 24.6656 49.4733 25.5303C49.4733 25.5303 49.2626 24.8189 48.1789 24.6602C48.1789 24.6602 48.0421 23.7544 47.3525 23.5191L51.5147 15.8926L54.4673 10.4252C55.1103 9.2376 56.0982 8.20049 57.502 7.97337C60.2658 7.52733 61.8119 9.68911 62.8353 12.0561C62.8353 12.0561 64.6605 12.6445 65.5498 13.6706C66.4474 14.7077 67.4845 16.1279 67.23 18.391C67.23 18.391 67.5009 18.6044 68.1057 19.1025C70.1389 20.7744 71.3785 23.2263 71.1568 25.9244C71.0528 27.1914 70.5849 28.3762 70.2073 29.5857C70.2073 29.5857 71.0118 30.6119 71.1951 31.0032C72.0598 32.8585 71.3839 34.8835 70.2784 36.1505C70.2784 36.1505 70.4317 38.709 69.192 39.9596C67.8567 41.3086 65.621 40.3892 63.7657 39.5902L63.763 39.5929Z" fill="#A79854"/>
<path d="M34.7346 59.3368C33.2132 60.2042 31.6698 60.7898 30.1401 60.0318C29.4834 59.7062 29.0072 59.1589 28.6926 58.4885C27.8196 59.0713 27.1492 59.3176 25.4362 59.2136C21.9609 59.0029 17.8946 55.9573 18.0588 52.3452C18.0588 52.3452 17.755 52.2111 17.0928 51.9648C15.1144 51.2342 13.8529 49.1408 14.4357 47.0584C14.5288 46.7273 14.7641 46.3195 14.931 45.9501C12.9498 44.3137 13.0374 40.2583 15.4373 38.8983C16.4005 38.351 17.5416 38.1677 18.6608 37.9734L32.1213 35.6365C32.1815 36.3562 32.4004 36.7639 32.7972 37.2428C31.6972 38.6329 31.2922 40.4882 31.9517 42.13C32.2663 42.9099 33.6619 42.9373 34.4172 42.5515C34.4172 42.5515 35.6185 43.1124 36.4887 42.3024L37.9718 40.9233C38.5218 41.4925 39.2032 41.777 40.161 41.5417L40.2184 53.7818C40.2294 56.1461 39.8682 59.5119 36.9347 59.8649C36.2287 59.9497 35.509 59.8211 34.7346 59.334V59.3368Z" fill="#A79854"/>
<path d="M31.791 34.3774L24.5176 35.4939C21.6443 35.9946 18.8969 36.4981 15.9881 36.8101C15.2493 36.8895 14.3599 36.7417 13.6758 36.5064C12.0887 35.9618 10.9449 33.6112 11.8287 31.9994C9.80376 30.218 10.5207 28.0426 11.7986 26.1407C10.9859 25.577 10.4496 24.7753 10.2306 23.8202C9.40698 20.2081 12.3021 17.1023 15.5503 16.2129C15.6597 14.6176 16.5655 13.7146 18.2265 13.2248C18.6862 13.0879 20.1256 12.9374 20.1256 12.9374C20.7659 10.9289 23.018 9.61539 24.9855 10.5485C25.9132 10.9891 26.5371 11.9332 27.1172 12.7541L32.7844 20.7855L35.072 23.7655C35.072 23.7655 34.8449 23.9023 34.6752 24.1924C34.4591 24.5618 34.5329 24.9559 34.5329 24.9559C34.5247 24.9723 33.6874 25.3691 33.6026 26.097C32.5463 24.9969 31.1617 24.819 30.0425 25.7795C29.5006 25.5497 28.3185 25.744 28.0175 26.4007C27.5167 27.4925 28.6168 28.6117 29.0573 29.4573C29.0573 29.4573 28.5347 30.6805 31.8157 31.641C31.6706 31.9858 31.5749 32.5905 31.8704 33.0721C31.8704 33.0721 31.4873 33.7097 31.7883 34.3801L31.791 34.3774Z" fill="#A79854"/>
<path d="M41.3682 17.3733C39.6196 17.1571 39.3487 18.84 39.3487 18.84C38.8397 19.0261 38.4566 19.5487 38.4539 20.1617C38.4539 20.6707 38.5414 22.1921 38.5414 22.1921C38.5414 22.1921 38.2103 22.2031 37.9312 22.3618C37.5536 22.578 37.4222 22.7942 37.4222 22.7942C37.4222 22.7942 37.1048 22.7449 36.7682 22.7969C36.4015 22.8544 36.1389 23.0295 36.1389 23.0295C33.0029 18.8592 30.0092 14.552 27.2126 10.16C26.6899 9.34184 26.4081 8.41418 26.3944 7.49748C26.3698 5.66406 27.6258 4.24659 29.4318 4.38615C30.0256 4.43267 30.4553 4.56675 30.4553 4.56675C31.5663 2.53358 32.9317 1.93977 34.7843 2.19152C34.7843 2.19152 35.5149 1.07232 37.2061 0.494933C39.3049 -0.22475 40.5308 -0.10982 42.1617 0.51956C44.2196 1.31313 45.1609 2.44601 45.1609 2.44601C46.2445 2.02734 47.4869 1.95619 48.7566 3.00698C49.4845 3.609 49.8949 4.42446 49.8949 4.42446C51.0853 3.9018 52.6368 4.3451 53.4879 5.36579C54.1911 6.20861 54.3827 7.34697 53.8244 8.41145L48.4446 18.6703L46.2965 22.7695C45.793 22.2387 45.1308 22.1319 44.6492 22.1429C44.4932 21.2344 44.3372 20.1945 43.9569 19.3271C43.6586 18.6512 43.0566 18.3009 42.5038 18.3858C42.5038 18.3858 42.1645 17.4691 41.3682 17.3705V17.3733Z" fill="#A79854"/>
<path d="M46.2135 57.681C44.6619 58.3733 42.9736 57.8452 42.2265 56.2662C41.8461 55.4617 41.6929 54.4164 41.6902 53.4614L41.6519 41.588C41.6519 41.588 42.9243 41.8671 44.0928 41.3445C47.1439 44.9429 48.5367 43.4214 48.5367 43.4214C49.3932 43.8127 50.6903 43.8866 51.0105 42.7154C51.1473 42.2174 50.7314 41.4484 50.7314 41.4484C50.9174 40.9012 51.1117 40.2061 50.7751 39.667L49.5957 37.4943C50.5617 37.1276 50.7396 36.802 50.8955 35.7402L55.8676 37.6284C58.4536 38.7147 64.2521 41.3937 66.4495 42.8413C67.0077 43.208 67.2923 43.8319 67.1828 44.516C67.0487 45.3561 66.4358 45.9909 65.7763 46.5109C65.738 48.8642 65.3959 51.1737 62.6677 51.6034C62.1587 54.8597 60.1584 57.4374 57.099 58.6825C55.802 59.2079 54.2833 58.9261 52.9068 58.677C50.7177 60.1164 47.7514 60.0644 46.208 57.6892L46.2135 57.681Z" fill="#A79854"/>
<path d="M43.6144 40.1269C43.6144 40.1269 42.4761 41.5252 40.9355 40.2911C40.5688 40.4142 40.0626 40.5756 39.3319 40.3321C38.6013 40.0886 38.418 39.4154 38.418 39.4154C37.5341 39.8067 36.642 39.5276 36.2589 38.7258C35.936 38.6629 35.3887 38.63 35.1123 38.3071C34.6937 37.8173 34.7046 37.281 34.7046 37.281C34.7046 37.281 34.0096 37.032 33.7113 36.3944C33.3446 35.6145 33.6429 34.9495 33.6429 34.9495C32.6769 34.1669 33.3856 32.9191 33.3856 32.9191C32.8028 32.3499 32.8001 31.5481 33.5608 30.8996C33.5608 30.8996 33.2297 30.4399 33.3145 29.8844C33.3939 29.3699 33.8864 29.0033 33.8864 29.0033C33.4486 27.7308 34.7484 27.3751 34.7484 27.3751C34.5541 25.9959 36.0181 25.6073 36.0181 25.6073C36.1193 24.8548 36.6995 24.0093 37.8679 24.1324C38.2757 23.0624 39.5563 23.1418 40.0954 23.5359C41.0422 22.4194 42.1149 23.4346 42.1149 23.4346C43.1602 22.5507 44.2931 23.9956 44.2931 23.9956C45.9678 23.8478 46.0882 25.175 46.0882 25.175C47.1773 25.0354 47.295 26.2449 47.295 26.2449C47.295 26.2449 48.7945 26.3133 48.603 27.6925C48.603 27.6925 49.8973 27.8239 49.5525 29.2714C49.5525 29.2714 50.6881 29.9309 50.1846 30.8859C50.1846 30.8859 50.9262 31.6768 50.3516 32.6974C50.513 32.9902 50.6772 33.4144 50.5759 33.8905C50.4501 34.4898 50.1518 34.5473 49.8398 34.7908C49.9712 35.858 49.7058 36.367 48.7371 36.6105C48.7371 36.6105 48.7425 37.9514 47.4017 38.0143C47.4017 38.0143 47.1937 38.6738 46.9994 38.9776C46.7477 39.3716 46.0389 39.6398 45.4752 39.5194C45.4752 39.5194 45.0182 40.603 43.6117 40.1132L43.6144 40.1269ZM41.428 36.9088C41.428 36.9088 41.6415 37.2782 42.2818 37.2126C42.5691 37.1825 42.9194 36.7939 42.9194 36.7939C42.9194 36.7939 43.3873 37.1469 44.0194 36.7939C44.4272 36.5668 44.3971 35.9675 44.3971 35.9675C44.6516 36.107 45.0784 36.2056 45.4205 35.8772C45.8857 35.4311 45.6504 34.8565 45.6367 34.6868C45.6367 34.6868 46.2332 34.6732 46.3892 34.2901C46.6382 33.6908 46.3098 33.2666 46.3098 33.2666C46.4193 33.2064 46.7641 33.0641 46.8407 32.6701C46.9556 32.0735 46.7422 31.7616 46.4056 31.6029C46.6902 31.3812 46.7258 30.979 46.6163 30.6533C46.4904 30.2784 46.3646 30.1416 45.9733 29.9911C46.1046 29.8023 46.1949 29.5287 45.9103 29.1948C45.7407 28.9978 45.3083 28.9157 45.0182 28.9403C45.1113 28.5627 45.1277 28.3219 44.8814 28.0701C44.6132 27.7965 44.0769 27.8567 44.0769 27.8567C44.0769 27.8567 44.0824 27.2601 43.6747 27.1096C43.2669 26.9591 42.9358 27.0604 42.9358 27.0604C42.9358 27.0604 42.8017 26.5596 42.3393 26.5322C41.9288 26.5076 41.7783 26.732 41.5813 26.8907C41.5813 26.8907 41.2693 26.4255 40.8041 26.5213C40.4046 26.6034 40.1638 26.992 40.1638 26.992C39.8491 26.8387 39.5563 26.8387 39.2143 27.0905C39.0063 27.2437 38.9242 27.5995 38.9242 27.5995C38.9242 27.5995 38.552 27.5529 38.251 27.8539C38.0184 28.0893 38.0321 28.3711 38.1197 28.6119C38.1197 28.6119 37.6463 28.508 37.359 28.8938C37.1072 29.2359 37.2796 29.7202 37.2796 29.7202C36.6612 29.8817 36.3437 30.5658 36.6201 31.1404L36.642 31.1897C36.3957 31.3046 36.2124 31.6302 36.1878 31.8273C36.1412 32.1912 36.2698 32.4977 36.7214 32.8315C36.7214 32.8315 36.2288 33.2256 36.5599 33.8112C36.7296 34.1122 37.14 34.2517 37.14 34.2517C37.14 34.2517 36.9485 34.8346 37.3042 35.1247C37.5861 35.3545 38.0321 35.2505 38.0321 35.2505C38.0294 35.4093 38.0403 35.754 38.3468 36.0386C38.563 36.2411 38.9652 36.2001 38.9652 36.2001C38.9652 36.2001 38.9789 36.6215 39.2964 36.7528C39.6494 36.8979 40.0434 36.7118 40.0434 36.7118C40.224 36.9772 40.3718 37.1469 40.6783 37.1743C41.0887 37.2126 41.4253 36.9143 41.4253 36.9143L41.428 36.9088Z" fill="#A79854"/>
<path d="M43.0208 33.3239C42.375 34.0244 41.7292 33.5948 41.7292 33.5948C40.7906 34.6018 39.7206 33.3896 40.0463 32.7164C40.0463 32.7164 39.2171 32.4893 39.2144 31.8408C39.2089 31.132 39.7015 30.9815 40.1147 30.9295C40.1968 30.5546 40.2871 30.1387 40.6155 29.9636C41.3652 29.564 42.0056 30.4588 42.0056 30.4588C42.9332 30.1743 43.382 30.8529 43.382 31.4002C43.382 31.7532 43.2753 31.9146 43.0974 32.1992C43.1603 32.4346 43.3191 33.0037 43.0208 33.3266V33.3239Z" fill="#A79854"/>
</svg>
