<svg width="284" height="56" viewBox="0 0 284 56" fill="none" xmlns="http://www.w3.org/2000/svg">
<path d="M23.8915 18.6424C23.8915 18.859 23.8573 18.9673 23.7832 18.9673C22.8884 18.9502 22.0221 19.2921 21.3781 19.9134C20.7113 20.546 20.073 21.6003 19.4574 23.0765L12.6981 39.1314C12.624 39.3138 12.4245 39.3993 12.1053 39.3993C11.8717 39.4278 11.6437 39.3195 11.5126 39.1314L3.83563 22.8086C3.11182 21.2242 2.502 20.1869 2.00046 19.7025C1.51032 19.2237 0.849197 18.9616 0.16528 18.973C0.0569936 18.973 0 18.8647 0 18.6481C0 18.4315 0.0569936 18.3232 0.16528 18.3232C0.849197 18.3232 1.39063 18.3403 1.78958 18.3745L4.1149 18.4258L7.79095 18.3745C8.33239 18.3403 9.0676 18.3232 10.008 18.3232C10.1163 18.3232 10.1733 18.4315 10.1733 18.6481C10.1733 18.8647 10.1163 18.973 10.008 18.973C7.88214 18.973 6.81637 19.389 6.81637 20.2154C6.81637 20.5175 6.89616 20.8138 7.03294 21.0817L13.4675 34.5948L18.3347 22.8656C18.5512 22.347 18.6766 21.7998 18.7108 21.2413C18.7108 19.7253 17.3259 18.973 14.5503 18.973C14.4762 18.973 14.442 18.8647 14.442 18.6481C14.442 18.4315 14.4762 18.3232 14.5503 18.3232C15.5249 18.3232 16.2601 18.3403 16.7674 18.3745L20.0103 18.4258L22.062 18.3745C22.4211 18.3403 22.9967 18.3232 23.7889 18.3232C23.863 18.3232 23.8972 18.4315 23.8972 18.6481L23.8915 18.6424Z" fill="#3F3926"/>
<path d="M26.3764 38.8638C26.3764 38.6472 26.4277 38.5389 26.5359 38.5389C27.8696 38.5389 28.753 38.2938 29.1861 37.8094C29.6193 37.325 29.8358 36.3219 29.8358 34.8116V24.758C29.8358 23.4984 29.7105 22.5752 29.4597 21.9995C29.2431 21.4467 28.7017 21.099 28.1089 21.1332C27.4934 21.1332 26.7012 21.384 25.7323 21.8912H25.6753C25.5329 21.8912 25.4246 21.8001 25.3505 21.6234C25.2764 21.441 25.3163 21.3156 25.4588 21.2472L32.6456 17.896L32.8622 17.8447C32.9933 17.8561 33.1186 17.9131 33.2155 18.0043C33.3238 18.0784 33.3922 18.1981 33.4036 18.3292C33.4036 18.5799 33.3865 19.3038 33.3466 20.4892C33.3124 21.6804 33.2896 23.0824 33.2896 24.7067V34.8173C33.2896 35.8602 33.3694 36.6467 33.5347 37.1711C33.6658 37.6612 34.0134 38.0602 34.4808 38.254C34.9481 38.4534 35.6491 38.5503 36.5895 38.5503C36.6978 38.5503 36.7491 38.6586 36.7491 38.8752C36.7491 39.0917 36.6978 39.2 36.5895 39.2C35.689 39.2 34.988 39.1829 34.4808 39.1487L31.5627 39.0974L28.5364 39.1487C28.0292 39.1829 27.3623 39.2057 26.5359 39.2C26.4277 39.2 26.3764 39.0917 26.3764 38.8752V38.8638ZM29.3229 11.0227C28.8727 10.5895 28.6447 9.97969 28.6447 9.18749C28.6162 8.54346 28.8613 7.91084 29.3229 7.4549C29.7731 7.02175 30.3944 6.80518 31.1866 6.80518C31.9788 6.80518 32.5373 7.02175 32.9705 7.4549C33.415 7.91654 33.6487 8.54346 33.6202 9.18749C33.6202 9.97969 33.4036 10.5952 32.9705 11.0227C32.5373 11.4558 31.9446 11.6724 31.1866 11.6724C30.3944 11.6724 29.7731 11.4558 29.3229 11.0227Z" fill="#3F3926"/>
<path d="M59.7353 18.7507C61.1032 19.5429 62.2088 20.717 62.927 22.1304C63.7192 23.6236 64.1181 25.4531 64.1181 27.6188C64.1181 30.212 63.5596 32.4405 62.4425 34.2927C61.3995 36.0766 59.8721 37.5299 58.0369 38.4817C56.2588 39.4107 54.2868 39.8894 52.2806 39.8894C49.6191 39.9236 47.0202 39.0915 44.8772 37.5128L40.6085 39.4563H40.5002C40.3748 39.4677 40.2608 39.3879 40.2323 39.2682C40.1981 39.1371 40.238 39.0004 40.3406 38.9149C41.4235 38.1968 42.1986 37.4672 42.6659 36.7263C43.1333 35.9854 43.3669 34.9538 43.3669 33.6202V6.97025C43.3669 5.67081 43.2472 4.74752 43.0136 4.18899C42.7799 3.63046 42.3354 3.35119 41.6913 3.35119C41.0416 3.35119 40.2323 3.58486 39.2577 4.05221H39.2007C39.0583 4.05221 38.95 3.95532 38.8759 3.75584C38.8018 3.55637 38.8417 3.44238 38.9842 3.40249L45.9601 0.0512938L46.228 0C46.3591 0.0113986 46.4845 0.068391 46.5813 0.15958C46.6896 0.233671 46.758 0.353356 46.7694 0.48444V22.1076C47.9606 20.8595 49.3056 19.7709 50.7703 18.8647C53.5345 17.2461 56.9427 17.2062 59.7467 18.7564L59.7353 18.7507ZM58.5442 36.43C59.6612 34.8057 60.2198 32.5031 60.2198 29.511C60.2198 26.3023 59.5986 23.8516 58.3561 22.1589C57.1137 20.4662 55.4837 19.617 53.4661 19.617C51.3061 19.617 49.0719 20.7683 46.7637 23.0765V31.7793C46.7637 33.4036 47.1399 34.743 47.8979 35.8087C48.5932 36.8232 49.5564 37.6268 50.6791 38.1341C51.6708 38.5957 52.748 38.8465 53.8423 38.8636C55.8598 38.8636 57.4271 38.0543 58.5442 36.43Z" fill="#3F3926"/>
<path d="M68.6083 38.8638C68.6083 38.6472 68.6596 38.5389 68.7679 38.5389C70.1015 38.5389 70.9849 38.2938 71.418 37.8094C71.8512 37.325 72.0678 36.3219 72.0678 34.8116V24.758C72.0678 23.4984 71.9424 22.5752 71.6916 21.9995C71.475 21.4467 70.9336 21.099 70.3409 21.1332C69.7254 21.1332 68.9332 21.384 67.9643 21.8912H67.9073C67.7648 21.8912 67.6565 21.8001 67.5824 21.6234C67.5083 21.441 67.5482 21.3156 67.6907 21.2472L74.8775 17.896L75.0941 17.8447C75.2252 17.8561 75.3506 17.9131 75.4475 18.0043C75.5558 18.0784 75.6241 18.1981 75.6355 18.3292C75.6355 18.5799 75.6184 19.3038 75.5785 20.4892C75.5443 21.6804 75.5215 23.0824 75.5215 24.7067V34.8173C75.5215 35.8602 75.6013 36.6467 75.7666 37.1711C75.8977 37.6612 76.2454 38.0602 76.7127 38.254C77.1801 38.4534 77.8811 38.5503 78.8215 38.5503C78.9297 38.5503 78.981 38.6586 78.981 38.8752C78.981 39.0917 78.9297 39.2 78.8215 39.2C77.921 39.2 77.2199 39.1829 76.7127 39.1487L73.7947 39.0974L70.7683 39.1487C70.2611 39.1829 69.5943 39.2057 68.7679 39.2C68.6596 39.2 68.6083 39.0917 68.6083 38.8752V38.8638ZM71.5548 11.0227C71.1046 10.5895 70.8766 9.97969 70.8766 9.18749C70.8481 8.54346 71.0932 7.91084 71.5548 7.4549C72.0051 7.02175 72.6263 6.80518 73.4185 6.80518C74.2107 6.80518 74.7692 7.02175 75.2024 7.4549C75.6469 7.91654 75.8806 8.54346 75.8521 9.18749C75.8521 9.97969 75.6355 10.5952 75.2024 11.0227C74.7692 11.4558 74.1765 11.6724 73.4185 11.6724C72.6263 11.6724 72.0051 11.4558 71.5548 11.0227Z" fill="#3F3926"/>
<path d="M87.6104 38.3507C86.0089 37.3305 84.7209 35.8886 83.8774 34.1902C82.9883 32.4234 82.5381 30.4685 82.5552 28.4852C82.5552 26.1428 83.1308 24.1537 84.282 22.5123C85.3877 20.9108 86.9151 19.6399 88.6876 18.8363C90.4088 18.0384 92.2782 17.6223 94.176 17.6223C96.3019 17.6223 98.1656 18.1467 99.7728 19.1896C101.357 20.2098 102.634 21.6403 103.477 23.3273C104.338 25.0086 104.782 26.8723 104.777 28.7588C104.777 30.9929 104.252 32.9478 103.209 34.6233C102.184 36.2818 100.725 37.6269 98.992 38.516C97.2024 39.4393 95.219 39.9123 93.2072 39.8952C91.0813 39.8952 89.2176 39.3823 87.6104 38.3564V38.3507ZM99.1287 36.7549C100.155 35.3472 100.668 33.2042 100.668 30.3204C100.668 28.052 100.308 26.0345 99.5847 24.2677C98.8609 22.5009 97.8749 21.1331 96.6096 20.1585C95.4128 19.2067 93.9253 18.6938 92.3922 18.6995C90.557 18.6995 89.1322 19.3834 88.1234 20.7512C87.1146 22.1191 86.6074 24.1195 86.6074 26.7526C86.5846 28.8443 86.9379 30.9245 87.6617 32.8908C88.3627 34.7487 89.3316 36.2078 90.5513 37.2678C91.7082 38.3051 93.2129 38.875 94.7688 38.8636C96.6438 38.8636 98.0915 38.1626 99.1173 36.7549H99.1287Z" fill="#3F3926"/>
<path d="M108.84 39.023C108.39 38.5557 108.162 37.923 108.162 37.1308C108.133 36.4868 108.378 35.8542 108.84 35.3983C109.29 34.9651 109.912 34.7485 110.704 34.7485C111.496 34.7485 112.106 34.9537 112.539 35.3698C112.972 35.7858 113.189 36.3728 113.189 37.1251C113.189 37.9572 112.972 38.5956 112.539 39.0458C112.106 39.4961 111.496 39.7183 110.704 39.724C109.912 39.724 109.29 39.4904 108.84 39.023Z" fill="#3F3926"/>
<path d="M139.331 19.5031C140.135 20.5575 140.534 21.9652 140.534 23.7092C140.534 24.5128 140.46 25.2765 140.317 26.0061C139.736 28.9583 138.613 31.5287 136.954 33.7115C135.296 35.9001 133.427 37.5642 131.352 38.7098C129.278 39.8554 127.345 40.431 125.562 40.431C123.778 40.431 122.484 40.0548 121.464 39.3082C120.444 38.5616 119.931 37.57 119.931 36.3275C119.931 36.1109 119.965 35.7804 120.039 35.3415L125.396 6.37764C125.505 5.8704 125.562 5.41446 125.562 5.00981C125.562 4.06373 125.18 3.59068 124.416 3.59068C123.835 3.59068 122.997 3.86425 121.903 4.41138H121.846C121.663 4.41138 121.544 4.30879 121.492 4.10932C121.435 3.90984 121.481 3.79016 121.629 3.75596L129.169 0.0913086H129.278C129.42 0.0913086 129.551 0.148301 129.659 0.256588C129.768 0.364875 129.808 0.456064 129.768 0.530155L124.906 27.5848C126.143 24.7066 127.773 22.3756 129.796 20.5917C131.819 18.8078 133.905 17.913 136.054 17.913C137.439 17.913 138.533 18.4431 139.331 19.4974V19.5031ZM136.487 24.9175C136.487 23.6408 136.231 22.6321 135.723 21.8855C135.211 21.1388 134.464 20.7627 133.484 20.7627C132.064 20.7627 130.685 21.3383 129.357 22.4839C128.029 23.6294 126.861 25.2424 125.858 27.3226C124.855 29.3971 124.12 31.7852 123.647 34.4809C123.612 34.6633 123.59 34.9198 123.59 35.2446C123.59 36.3731 123.971 37.285 124.735 37.9746C125.499 38.6699 126.502 39.0119 127.739 39.0119C128.907 39.0119 130.064 38.5559 131.21 37.644C132.355 36.7322 133.37 35.4213 134.242 33.7115C135.114 32.0017 135.752 29.9956 136.157 27.6987C136.373 26.7128 136.487 25.7838 136.487 24.9118V24.9175Z" fill="#3F3926"/>
<path d="M158.937 18.5743C159.61 19.0131 159.946 19.6116 159.946 20.3753C159.946 21.5037 159.364 22.5866 158.196 23.6296C157.028 24.6668 155.483 25.5787 153.551 26.3595C151.619 27.146 149.527 27.716 147.265 28.0807C147.082 29.2491 146.991 30.2294 146.991 31.033C146.991 33.2557 147.481 35.0339 148.467 36.3618C149.453 37.6898 150.855 38.3566 152.674 38.3566C154.64 38.3566 156.407 37.7752 157.974 36.6069L158.082 36.5499C158.156 36.5499 158.225 36.6126 158.299 36.7437C158.373 36.8691 158.39 36.9716 158.356 37.0457C155.768 39.2685 153.055 40.3798 150.211 40.3798C147.841 40.3798 146.051 39.6332 144.826 38.14C143.606 36.6468 142.996 34.7147 142.996 32.3495C142.996 31.5459 143.087 30.6397 143.27 29.6195C143.634 27.7274 144.427 25.8751 145.646 24.0741C146.866 22.2731 148.399 20.797 150.234 19.6458C152.075 18.5002 154.013 17.9246 156.053 17.9246C157.29 17.9246 158.247 18.1411 158.92 18.58L158.937 18.5743ZM155.74 21.253C155.74 20.6317 155.529 20.1701 155.113 19.8566C154.691 19.5489 154.138 19.395 153.449 19.395C151.916 19.395 150.633 20.1416 149.596 21.6348C148.559 23.128 147.818 25.043 147.385 27.374C152.337 26.3538 155.09 24.5699 155.637 22.0167C155.711 21.6519 155.745 21.3954 155.745 21.253H155.74Z" fill="#3F3926"/>
<path d="M179.255 18.9561C179.968 19.5032 180.321 20.1416 180.321 20.8711C180.321 21.4182 180.127 21.9027 179.746 22.3187C179.364 22.7405 178.879 22.9456 178.298 22.9456C177.899 22.9456 177.568 22.8658 177.312 22.7006C177.055 22.5353 176.782 22.2902 176.491 21.9653C176.309 21.783 176.115 21.612 175.916 21.4467C175.716 21.2814 175.488 21.2016 175.232 21.2016C174.468 21.2016 173.567 22.2218 172.525 24.2622C171.487 26.3025 170.501 28.7646 169.572 31.6428C168.643 34.5209 167.976 37.0514 167.578 39.2399C167.469 39.8612 166.74 40.1689 165.389 40.1689C164.477 40.1689 164.021 40.0435 164.021 39.7871C164.055 39.5705 164.175 39.0063 164.374 38.0944C164.574 37.1825 164.728 36.3846 164.836 35.6893L166.802 24.9233C166.945 24.0855 167.019 23.3389 167.019 22.6835C167.019 21.1902 166.62 20.4436 165.816 20.4436C165.013 20.4436 163.976 21.139 162.591 22.5182C162.556 22.5524 162.499 22.5752 162.425 22.5752C162.317 22.5752 162.226 22.5125 162.152 22.3814C162.078 22.256 162.078 22.1534 162.152 22.0793C163.32 20.7343 164.392 19.7369 165.378 19.0986C166.364 18.4603 167.327 18.1411 168.273 18.1411C169.037 18.1411 169.601 18.3805 169.966 18.8535C170.33 19.3266 170.513 20.1302 170.513 21.2586C170.513 22.1306 170.404 23.2648 170.182 24.6497L169.088 30.8278C170.216 27.146 171.476 24.114 172.861 21.726C174.246 19.338 175.631 18.1468 177.016 18.1468C177.779 18.1468 178.52 18.4204 179.227 18.9675L179.255 18.9561Z" fill="#3F3926"/>
<path d="M182.138 39.5648C181.774 39.1259 181.591 38.4534 181.591 37.5415C181.591 36.8519 181.7 35.9571 181.922 34.8629L187.171 6.38912C187.279 5.84199 187.336 5.38604 187.336 5.02128C187.336 4.0752 186.971 3.60216 186.242 3.60216C185.661 3.60216 184.823 3.87572 183.729 4.42286H183.672C183.489 4.42286 183.369 4.32027 183.318 4.12079C183.261 3.92132 183.307 3.80163 183.455 3.76744L190.995 0.102783H191.103C191.246 0.102783 191.377 0.159776 191.485 0.268063C191.594 0.376349 191.628 0.467538 191.594 0.541629L185.307 34.8629C185.199 35.4442 185.142 35.94 185.142 36.339C185.142 37.3592 185.473 37.8721 186.128 37.8721C186.493 37.8721 186.949 37.6726 187.496 37.2737C188.043 36.8747 188.715 36.2877 189.519 35.524C189.593 35.4499 189.662 35.4157 189.736 35.4157C189.844 35.4157 189.935 35.4784 190.009 35.6095C190.083 35.7349 190.066 35.8545 189.952 35.9628C188.715 37.4218 187.61 38.4933 186.647 39.1886C185.683 39.8783 184.726 40.2259 183.78 40.2259C183.05 40.2259 182.503 40.0093 182.138 39.5705V39.5648Z" fill="#3F3926"/>
<path d="M213.958 35.4609C214.066 35.4609 214.169 35.5236 214.26 35.6547C214.351 35.7801 214.363 35.8827 214.289 35.9568C213.052 37.3759 211.941 38.4417 210.955 39.1541C209.969 39.8665 209.023 40.2199 208.111 40.2199C207.381 40.2199 206.845 40.0033 206.498 39.5644C206.15 39.1256 205.979 38.4531 205.979 37.5412C205.979 36.6293 206.07 35.7402 206.253 34.8625L207.125 29.7787C205.557 33.0558 203.745 35.6547 201.688 37.5697C199.63 39.4846 197.652 40.4364 195.76 40.4364C194.666 40.4364 193.822 40.1002 193.218 39.4277C192.62 38.7551 192.318 37.7236 192.318 36.3386C192.318 36.0081 192.352 35.4837 192.426 34.7542C192.791 32.2408 193.765 29.6647 195.35 27.0203C196.934 24.3815 198.804 22.2043 200.952 20.4889C203.101 18.7791 205.124 17.9185 207.016 17.9185C208.55 17.9185 209.786 18.4086 210.732 19.3946C211.422 18.8133 211.901 18.1749 212.151 17.4796C212.226 17.4055 212.294 17.3713 212.368 17.3713C212.476 17.3713 212.585 17.3998 212.699 17.4511C212.807 17.5081 212.841 17.5537 212.807 17.5879L209.581 34.8568C209.507 35.2216 209.473 35.6775 209.473 36.2246C209.473 37.3189 209.781 37.866 210.402 37.866C211.165 37.866 212.294 37.0852 213.793 35.5179C213.827 35.4837 213.884 35.4609 213.958 35.4609ZM202.126 35.4096C203.494 34.133 204.714 32.5315 205.791 30.5994C206.863 28.6674 207.586 26.8094 207.951 25.0255C208.059 24.5183 208.116 24.0224 208.116 23.5494C208.116 22.495 207.843 21.6572 207.296 21.036C206.749 20.4148 205.968 20.107 204.948 20.107C203.711 20.107 202.468 20.6085 201.232 21.6116C199.995 22.6147 198.918 23.9882 198.006 25.7379C197.094 27.4876 196.473 29.4539 196.148 31.6424C196 32.8108 195.931 33.5745 195.931 33.9392C195.931 36.1961 196.695 37.3303 198.228 37.3303C199.465 37.3303 200.77 36.692 202.138 35.4153L202.126 35.4096Z" fill="#3F3926"/>
<path d="M239.588 35.4096C239.696 35.4096 239.787 35.4723 239.862 35.6034C239.936 35.7288 239.936 35.8485 239.862 35.9568C238.551 37.4158 237.422 38.4873 236.47 39.1826C235.524 39.8722 234.578 40.2198 233.627 40.2198C232.897 40.2198 232.367 40.009 232.042 39.5929C231.717 39.1769 231.552 38.493 231.552 37.5412C231.552 36.9199 231.643 36.0309 231.826 34.8625L233.41 26.1711C233.626 25.0768 233.74 24.1307 233.74 23.3271C233.74 21.3608 233.028 20.3749 231.609 20.3749C230.441 20.3749 229.238 21.1215 228.001 22.6147C226.765 24.1079 225.596 26.2793 224.502 29.1176C223.408 31.9615 222.519 35.3298 221.823 39.2282C221.715 39.8494 220.985 40.1572 219.635 40.1572C218.689 40.1572 218.216 40.0318 218.216 39.7753L218.432 38.681C218.763 37.1137 218.962 36.1106 219.031 35.6775L221.27 23.4924C221.379 22.9452 221.436 22.4893 221.436 22.1245C221.436 20.9961 221.088 20.4319 220.398 20.4319C219.999 20.4319 219.487 20.6427 218.865 21.0588C218.244 21.4805 217.572 22.0676 216.842 22.837C216.768 22.9111 216.694 22.9452 216.625 22.9452C216.517 22.9452 216.426 22.8826 216.352 22.7515C216.278 22.6261 216.295 22.5064 216.409 22.3981C217.646 20.9391 218.786 19.8676 219.823 19.1723C220.86 18.4827 221.852 18.135 222.804 18.135C223.533 18.135 224.069 18.3459 224.416 18.762C224.764 19.1837 224.935 19.8448 224.935 20.7567C224.935 21.3038 224.844 22.1245 224.661 23.2188L223.567 29.2316C224.878 25.6638 226.411 22.8826 228.161 20.8992C229.911 18.9158 231.751 17.9185 233.683 17.9185C234.886 17.9185 235.787 18.2661 236.391 18.9557C236.989 19.651 237.291 20.7054 237.291 22.1245C237.291 22.9623 237.183 23.9654 236.961 25.1281L235.211 34.8568C235.103 35.4039 235.046 35.877 235.046 36.2759C235.046 37.336 235.376 37.8603 236.032 37.8603C236.396 37.8603 236.852 37.6609 237.399 37.2619C237.947 36.863 238.602 36.2759 239.366 35.5122C239.44 35.4381 239.508 35.4039 239.582 35.4039L239.588 35.4096Z" fill="#3F3926"/>
<path d="M261.997 18.8478C261.997 19.3608 261.918 19.8851 261.752 20.4322C261.587 20.9794 261.433 21.2187 261.291 21.1446C260.162 20.4892 258.777 20.1986 257.136 20.2727C257.9 21.2928 258.282 22.5866 258.282 24.1539C258.282 24.8834 258.207 25.5958 258.065 26.2854C257.734 27.8869 257.102 29.3004 256.15 30.52C255.204 31.7397 254.081 32.6857 252.787 33.364C251.494 34.0365 250.171 34.3727 248.826 34.3727C248.496 34.3727 248.08 34.3385 247.567 34.2645C247.128 34.8116 246.911 35.41 246.911 36.0654C246.911 36.9032 247.305 37.6327 248.085 38.254C248.866 38.8752 250.08 39.5819 251.722 40.3855C253.107 41.0751 254.218 41.6963 255.056 42.2435C255.894 42.7906 256.612 43.4517 257.216 44.2382C257.814 45.019 258.116 45.9423 258.116 46.9967C258.116 48.4557 257.581 49.8008 256.503 51.0432C255.426 52.28 253.996 53.2659 252.212 53.9954C250.428 54.725 248.496 55.0897 246.416 55.0897C243.828 55.0897 241.788 54.5597 240.295 53.5053C238.801 52.4452 238.055 51.1572 238.055 49.6241C238.055 48.091 238.71 46.6547 240.021 45.418C241.332 44.1812 243.247 42.8476 245.76 41.4285C244.449 40.5166 243.794 39.5363 243.794 38.4762C243.794 37.7467 244.039 37.0286 244.529 36.3162C245.019 35.6038 245.76 34.8515 246.74 34.0479C245.572 33.6489 244.683 32.9365 244.062 31.9163C243.441 30.8962 243.133 29.6765 243.133 28.2517C243.133 27.8128 243.207 27.1574 243.349 26.2854C243.822 23.9886 244.934 22.085 246.683 20.5747C248.433 19.0644 250.416 18.3064 252.639 18.3064C254.132 18.3064 255.369 18.7053 256.355 19.5089C258.361 18.5971 260.145 18.1411 261.713 18.1411C261.895 18.1411 261.986 18.3805 261.986 18.8535L261.997 18.8478ZM253.392 45.9309C252.388 45.1102 250.907 44.1926 248.935 43.1725C247.84 42.6595 246.986 42.2093 246.364 41.8046C244.945 42.6766 243.822 43.5999 243.002 44.5631C242.181 45.5263 241.771 46.6832 241.771 48.034C241.771 49.6355 242.455 50.9463 243.822 51.9665C245.19 52.9867 246.946 53.4996 249.094 53.4996C250.952 53.4996 252.383 53.0779 253.386 52.2401C254.389 51.4023 254.89 50.365 254.89 49.1225C254.89 47.8117 254.389 46.7459 253.386 45.9252L253.392 45.9309ZM254.674 25.573C254.674 23.8632 254.4 22.3928 253.853 21.1731C253.306 19.9535 252.468 19.3437 251.34 19.3437C250.32 19.3437 249.391 19.9079 248.553 21.0364C247.715 22.1648 247.168 23.5669 246.911 25.2425C246.803 25.9378 246.746 26.6274 246.746 27.317C246.746 28.9926 247.054 30.406 247.675 31.5516C248.296 32.6971 249.151 33.2728 250.246 33.2728C251.231 33.2728 252.132 32.7427 252.953 31.6884C253.773 30.634 254.309 29.2092 254.566 27.4253C254.64 27.0263 254.674 26.4051 254.674 25.5673V25.573Z" fill="#3F3926"/>
<path d="M283.37 35.4609C283.478 35.4609 283.581 35.5236 283.672 35.6547C283.763 35.7801 283.774 35.8827 283.7 35.9568C282.464 37.3759 281.352 38.4417 280.366 39.1541C279.38 39.8665 278.434 40.2199 277.522 40.2199C276.793 40.2199 276.257 40.0033 275.909 39.5644C275.562 39.1256 275.391 38.4531 275.391 37.5412C275.391 36.6293 275.482 35.7402 275.664 34.8625L276.536 29.7787C274.969 33.0558 273.157 35.6547 271.099 37.5697C269.042 39.4846 267.064 40.4364 265.172 40.4364C264.078 40.4364 263.234 40.1002 262.63 39.4277C262.026 38.7551 261.729 37.7236 261.729 36.3386C261.729 36.0081 261.764 35.4837 261.838 34.7542C262.203 32.2408 263.177 29.6647 264.762 27.0203C266.346 24.3815 268.215 22.2043 270.364 20.4889C272.513 18.7791 274.536 17.9185 276.428 17.9185C277.961 17.9185 279.198 18.4086 280.144 19.3946C280.834 18.8133 281.312 18.1749 281.563 17.4796C281.637 17.4055 281.706 17.3713 281.78 17.3713C281.888 17.3713 281.996 17.3998 282.11 17.4511C282.219 17.5081 282.253 17.5537 282.219 17.5879L278.993 34.8568C278.919 35.2216 278.884 35.6775 278.884 36.2246C278.884 37.3189 279.192 37.866 279.813 37.866C280.577 37.866 281.706 37.0852 283.204 35.5179C283.239 35.4837 283.296 35.4609 283.37 35.4609ZM271.532 35.4096C272.9 34.133 274.12 32.5315 275.197 30.5994C276.268 28.6674 276.992 26.8094 277.357 25.0255C277.465 24.5183 277.522 24.0224 277.522 23.5494C277.522 22.495 277.249 21.6572 276.702 21.036C276.154 20.4148 275.374 20.107 274.353 20.107C273.117 20.107 271.874 20.6085 270.638 21.6116C269.401 22.6147 268.324 23.9882 267.412 25.7379C266.5 27.4876 265.879 29.4539 265.554 31.6424C265.406 32.8108 265.337 33.5745 265.337 33.9392C265.337 36.1961 266.101 37.3303 267.634 37.3303C268.871 37.3303 270.176 36.692 271.544 35.4153L271.532 35.4096Z" fill="#3F3926"/>
</svg>
