<svg width="253" height="54" viewBox="0 0 253 54" fill="none" xmlns="http://www.w3.org/2000/svg">
<path d="M23.1225 18.0896C23.1225 18.2993 23.0895 18.4042 23.0179 18.4042C22.1534 18.3876 21.3163 18.7188 20.6886 19.3205C20.0443 19.9333 19.4221 20.9545 18.8328 22.3897L12.2964 37.9621C12.2248 38.1387 12.0321 38.2215 11.7182 38.2215C11.4924 38.2491 11.2722 38.1442 11.1455 37.9621L3.71701 22.1248C3.01766 20.5847 2.42845 19.58 1.93835 19.1108C1.46478 18.6471 0.826002 18.3876 0.159694 18.4042C0.0550673 18.4042 0 18.2993 0 18.0896C0 17.8798 0.0550673 17.7749 0.159694 17.7749C0.820495 17.7749 1.34363 17.7915 1.7291 17.8246L3.97582 17.8743L7.53313 17.8246C8.05627 17.7915 8.77213 17.7749 9.67523 17.7749C9.77986 17.7749 9.83492 17.8798 9.83492 18.0896C9.83492 18.2993 9.77986 18.4042 9.67523 18.4042C7.61573 18.4042 6.59149 18.8072 6.59149 19.6076C6.59149 19.9002 6.66859 20.1872 6.80075 20.4467L13.0233 33.557L17.7315 22.18C17.9408 21.6776 18.0619 21.1477 18.1004 20.6067C18.1004 19.1384 16.7568 18.4042 14.0696 18.4042C13.998 18.4042 13.9649 18.2993 13.9649 18.0896C13.9649 17.8798 13.998 17.7749 14.0696 17.7749C15.0112 17.7749 15.7271 17.7915 16.2117 17.8246L19.3505 17.8743L21.3384 17.8246C21.6853 17.7915 22.247 17.7749 23.0124 17.7749C23.084 17.7749 23.117 17.8798 23.117 18.0896H23.1225Z" fill="#3F3926"/>
<path d="M25.5287 37.7029C25.5287 37.4931 25.5783 37.3882 25.6829 37.3882C26.9715 37.3882 27.825 37.1508 28.2435 36.6816C28.662 36.2124 28.8713 35.2409 28.8713 33.7725V24.0184C28.8713 22.793 28.7501 21.9042 28.5023 21.3467C28.2931 20.8112 27.7644 20.4745 27.1972 20.5076C26.6025 20.5076 25.8371 20.7505 24.8954 21.2418H24.8404C24.7027 21.2418 24.5981 21.1535 24.5265 20.9824C24.4549 20.8057 24.4935 20.6843 24.6311 20.618L31.5861 17.3667L31.7953 17.317C31.922 17.328 32.0431 17.3832 32.1367 17.4771C32.2414 17.5488 32.3074 17.6647 32.3184 17.7917C32.3184 18.0346 32.3019 18.7357 32.2634 19.8894C32.2303 21.0431 32.2083 22.4066 32.2083 23.9798V33.7836C32.2083 34.7993 32.2854 35.5555 32.4451 36.0634C32.5718 36.5381 32.9077 36.9245 33.3592 37.1122C33.8108 37.3054 34.4936 37.3993 35.3967 37.3993C35.5013 37.3993 35.5509 37.5041 35.5509 37.7139C35.5509 37.9237 35.5013 38.0285 35.3967 38.0285C34.5266 38.0285 33.8438 38.012 33.3592 37.9789L30.5343 37.9292L27.6047 37.9789C27.1146 38.012 26.4704 38.0341 25.6664 38.0285C25.5618 38.0285 25.5122 37.9237 25.5122 37.7139L25.5287 37.7029ZM28.3757 10.6983C27.9406 10.2788 27.7204 9.68263 27.7204 8.91533C27.6928 8.28603 27.9296 7.67882 28.3757 7.23721C28.8107 6.81768 29.4109 6.60791 30.1819 6.60791C30.9528 6.60791 31.4869 6.81768 31.9054 7.23721C32.335 7.68434 32.5607 8.29155 32.5332 8.91533C32.5332 9.68263 32.324 10.2788 31.9054 10.6983C31.4869 11.1179 30.9142 11.3276 30.1819 11.3276C29.4164 11.3276 28.8107 11.1179 28.3757 10.6983Z" fill="#3F3926"/>
<path d="M57.8044 18.1947C59.126 18.962 60.1999 20.1047 60.8882 21.4737C61.6536 22.9255 62.0391 24.6974 62.0391 26.7951C62.0391 29.3123 61.4994 31.4707 60.4146 33.2702C59.4069 35.0035 57.9256 36.4112 56.1524 37.333C54.4344 38.2328 52.5235 38.702 50.5797 38.6965C48.0026 38.7296 45.486 37.9237 43.4155 36.3891L39.2855 38.277H39.1809C39.0597 38.288 38.9496 38.2107 38.922 38.0948C38.889 37.9679 38.9276 37.8354 39.0267 37.7526C40.0729 37.0515 40.8219 36.3449 41.2734 35.6273C41.7249 34.9097 41.9507 33.905 41.9562 32.6133V6.76251C41.9562 5.50392 41.8406 4.60414 41.6148 4.06316C41.389 3.52219 40.9595 3.2517 40.3318 3.2517C39.704 3.2517 38.9165 3.47803 37.9804 3.9362H37.9253C37.7877 3.9362 37.683 3.84236 37.6115 3.64915C37.5399 3.45595 37.5784 3.34554 37.7161 3.3069L44.4618 0.0555407L44.7206 0.00585938C44.8472 0.0168997 44.9684 0.0721016 45.062 0.165944C45.1666 0.237706 45.2327 0.353629 45.2437 0.480592V21.4571C46.3946 20.2482 47.6942 19.1883 49.1149 18.3106C51.7856 16.7429 55.0897 16.6988 57.7989 18.2058L57.8044 18.1947ZM56.6535 35.3458C57.7329 33.7726 58.2725 31.5369 58.278 28.6333C58.278 25.5199 57.6778 23.1463 56.4718 21.5013C55.2659 19.8563 53.691 19.0393 51.7361 19.0393C49.6435 19.0393 47.4794 20.1599 45.2492 22.3955V30.8358C45.2492 32.4091 45.6182 33.7118 46.3506 34.7441C47.0279 35.7267 47.9585 36.5105 49.0433 36.9963C50.0015 37.4435 51.0478 37.6863 52.105 37.7029C54.0599 37.7029 55.5742 36.919 56.6535 35.3458Z" fill="#3F3926"/>
<path d="M66.394 37.7029C66.394 37.4931 66.4435 37.3882 66.5481 37.3882C67.8367 37.3882 68.6902 37.1508 69.1087 36.6816C69.5272 36.2124 69.7365 35.2409 69.7365 33.7725V24.0184C69.7365 22.793 69.6154 21.9042 69.3676 21.3467C69.1583 20.8112 68.6297 20.4745 68.0625 20.5076C67.4678 20.5076 66.7023 20.7505 65.7607 21.2418H65.7056C65.5679 21.2418 65.4633 21.1535 65.3917 20.9824C65.3201 20.8057 65.3587 20.6843 65.4964 20.618L72.4513 17.3667L72.6605 17.317C72.7872 17.328 72.9083 17.3832 73.002 17.4771C73.1066 17.5488 73.1727 17.6647 73.1837 17.7917C73.1837 18.0346 73.1672 18.7357 73.1286 19.8894C73.0956 21.0431 73.0735 22.4066 73.0735 23.9798V33.7836C73.0735 34.7993 73.1506 35.5555 73.3103 36.0634C73.437 36.5381 73.7729 36.9245 74.2244 37.1122C74.676 37.3054 75.3588 37.3993 76.2619 37.3993C76.3665 37.3993 76.4161 37.5041 76.4161 37.7139C76.4161 37.9237 76.3665 38.0285 76.2619 38.0285C75.3919 38.0285 74.709 38.012 74.2244 37.9789L71.3995 37.9292L68.47 37.9789C67.9799 38.012 67.3356 38.0341 66.5316 38.0285C66.427 38.0285 66.3774 37.9237 66.3774 37.7139L66.394 37.7029ZM69.2464 10.6983C68.8114 10.2788 68.5911 9.68263 68.5911 8.91533C68.5636 8.28603 68.8004 7.67882 69.2464 7.23721C69.6814 6.81768 70.2817 6.60791 71.0526 6.60791C71.8235 6.60791 72.3577 6.81768 72.7762 7.23721C73.2057 7.68434 73.4315 8.29155 73.4039 8.91533C73.4039 9.68263 73.1947 10.2788 72.7762 10.6983C72.3577 11.1179 71.785 11.3276 71.0526 11.3276C70.2872 11.3276 69.6814 11.1179 69.2464 10.6983Z" fill="#3F3926"/>
<path d="M84.7816 37.2056C83.2342 36.2119 81.9842 34.8209 81.1692 33.1704C80.3102 31.4536 79.8697 29.5602 79.8862 27.6392C79.8862 25.3649 80.4424 23.4383 81.5602 21.843C82.634 20.2863 84.1043 19.0554 85.8224 18.277C87.4854 17.5042 89.2971 17.1012 91.1308 17.0957C93.1903 17.0957 94.991 17.6036 96.5439 18.6137C98.0747 19.6074 99.3137 20.9929 100.129 22.6269C100.96 24.2608 101.39 26.0659 101.384 27.8986C101.384 30.068 100.878 31.9614 99.8644 33.5899C98.8732 35.1962 97.4635 36.5045 95.784 37.3657C94.0549 38.2599 92.133 38.7236 90.1892 38.7015C88.1297 38.7015 86.329 38.2047 84.7761 37.2056H84.7816ZM95.9216 35.6599C96.9128 34.2965 97.4139 32.2154 97.4139 29.4222C97.4139 27.2196 97.067 25.26 96.3677 23.5487C95.6683 21.8375 94.7102 20.5072 93.4932 19.5632C92.3313 18.6413 90.894 18.139 89.4127 18.1445C87.6341 18.1445 86.2574 18.8069 85.2827 20.1373C84.3081 21.4677 83.818 23.4052 83.818 25.9555C83.7959 27.9869 84.1373 30.0018 84.8367 31.9062C85.5195 33.7058 86.4501 35.1245 87.6341 36.1512C88.7519 37.1559 90.2112 37.7079 91.7145 37.6969C93.5262 37.6969 94.9304 37.0179 95.9271 35.6544L95.9216 35.6599Z" fill="#3F3926"/>
<path d="M105.321 37.8628C104.886 37.4101 104.665 36.7974 104.665 36.0301C104.638 35.4008 104.874 34.7936 105.321 34.352C105.756 33.9324 106.356 33.7227 107.127 33.7227C107.892 33.7227 108.487 33.9214 108.905 34.3243C109.324 34.7273 109.533 35.2959 109.533 36.0301C109.533 36.836 109.324 37.4543 108.905 37.8904C108.487 38.3265 107.892 38.5473 107.127 38.5473C106.361 38.5473 105.756 38.3209 105.321 37.8628Z" fill="#3F3926"/>
<path d="M136.004 34.2469C136.108 34.2469 136.196 34.3077 136.268 34.4346C136.34 34.5616 136.34 34.672 136.268 34.7769C134.996 36.19 133.906 37.2333 132.992 37.9068C132.072 38.5803 131.158 38.9115 130.244 38.9115C129.539 38.9115 129.027 38.7072 128.707 38.3042C128.388 37.9013 128.234 37.2333 128.234 36.317C128.234 35.7153 128.322 34.8486 128.498 33.717L130.084 25.2878C130.26 24.1561 130.348 23.2729 130.348 22.6381C130.348 20.6564 129.66 19.6683 128.283 19.6683C127.155 19.6683 125.993 20.3914 124.792 21.8432C123.592 23.295 122.463 25.3926 121.406 28.1527C120.348 30.9073 119.484 34.1807 118.812 37.962C118.74 38.2435 118.531 38.4643 118.179 38.6244C117.826 38.7845 117.347 38.8618 116.752 38.8618C115.8 38.8618 115.326 38.7348 115.326 38.4919C115.359 38.3153 115.475 37.813 115.668 36.9794C115.86 36.1514 116.009 35.3289 116.119 34.5119L121.406 6.09423C121.477 5.77407 121.51 5.3711 121.51 4.87428C121.51 3.88618 121.141 3.38937 120.398 3.38937C119.836 3.38937 119.021 3.65433 117.964 4.18427H117.909C117.733 4.18427 117.617 4.0849 117.567 3.8917C117.512 3.69849 117.556 3.58257 117.7 3.54945L124.996 0H125.101C125.244 0 125.365 0.0552019 125.469 0.160085C125.574 0.264967 125.613 0.353289 125.574 0.425051L120.602 28.0975C121.835 24.7026 123.289 22.053 124.963 20.143C126.637 18.233 128.41 17.278 130.277 17.278C131.439 17.278 132.314 17.6148 132.892 18.2827C133.476 18.9562 133.763 19.9774 133.763 21.3574C133.763 22.1689 133.658 23.1404 133.443 24.2721L131.753 33.7115C131.648 34.2414 131.593 34.7162 131.593 35.1412C131.593 36.1293 131.89 36.6261 132.49 36.6261C132.876 36.6261 133.339 36.4384 133.867 36.0686C134.396 35.6987 135.046 35.1246 135.822 34.3463C135.894 34.2745 135.943 34.2414 135.982 34.2414L136.004 34.2469Z" fill="#3F3926"/>
<path d="M141.372 38.3042C141.037 37.8957 140.871 37.2554 140.871 36.3667C140.871 35.6601 140.976 34.7769 141.191 33.717L143.36 22.6877C143.465 22.1578 143.52 21.7162 143.52 21.3629C143.52 20.2699 143.168 19.7179 142.463 19.7179C142.072 19.7179 141.582 19.9222 140.981 20.3251C140.381 20.7336 139.731 21.3077 139.027 22.0474C138.955 22.1192 138.883 22.1523 138.817 22.1523C138.713 22.1523 138.625 22.0916 138.553 21.9646C138.481 21.8432 138.498 21.7272 138.608 21.6224C139.842 20.1761 140.954 19.1217 141.94 18.4704C142.925 17.819 143.878 17.4878 144.798 17.4878C145.502 17.4878 146.031 17.681 146.384 18.0729C146.736 18.4648 146.912 19.0997 146.912 19.9829C146.912 20.6563 146.808 21.4678 146.593 22.4228L144.478 33.717C144.374 34.28 144.319 34.7769 144.319 35.2019C144.319 36.1569 144.616 36.6316 145.216 36.6316C146.026 36.6316 147.138 35.8919 148.548 34.407C148.581 34.3739 148.636 34.3518 148.707 34.3518C148.851 34.3518 148.955 34.4125 149.027 34.5395C149.098 34.6609 149.082 34.7603 148.972 34.8321C147.81 36.2121 146.741 37.2333 145.772 37.9068C144.803 38.5802 143.861 38.9114 142.942 38.9114C142.237 38.9114 141.714 38.7072 141.383 38.3042H141.372ZM144.495 10.7863C144.054 10.3447 143.834 9.7375 143.834 8.95916C143.834 8.18082 144.065 7.63433 144.522 7.20928C144.979 6.78423 145.596 6.57446 146.373 6.57446C147.149 6.57446 147.749 6.78423 148.173 7.20928C148.597 7.63433 148.806 8.21394 148.806 8.95916C148.806 9.70438 148.597 10.3447 148.173 10.7863C147.749 11.2279 147.149 11.4487 146.373 11.4487C145.596 11.4487 144.935 11.2279 144.495 10.7863Z" fill="#3F3926"/>
<path d="M170.894 18.1834C170.894 18.6802 170.817 19.1881 170.658 19.7235C170.498 20.2535 170.349 20.4853 170.206 20.4136C169.11 19.7787 167.772 19.4972 166.186 19.5635C166.924 20.5516 167.299 21.8102 167.299 23.3282C167.299 24.0348 167.227 24.7248 167.089 25.3982C166.77 26.9549 166.153 28.3239 165.239 29.5052C164.319 30.6921 163.24 31.6084 161.985 32.2598C160.735 32.9167 159.457 33.2424 158.152 33.2424C157.833 33.2424 157.431 33.2092 156.935 33.1375C156.511 33.6674 156.302 34.2526 156.302 34.8874C156.302 35.6988 156.682 36.4054 157.442 37.0071C158.202 37.6088 159.375 38.2988 160.96 39.0772C162.299 39.7506 163.372 40.3468 164.187 40.8822C164.997 41.4122 165.696 42.058 166.274 42.8198C166.858 43.5816 167.144 44.4703 167.144 45.4971C167.144 46.9102 166.621 48.2185 165.586 49.4219C164.545 50.6253 163.163 51.5748 161.434 52.2868C159.705 52.9934 157.838 53.3467 155.828 53.3467C153.323 53.3467 151.351 52.8333 149.903 51.8066C148.46 50.7799 147.733 49.5268 147.733 48.0419C147.733 46.5569 148.367 45.1603 149.639 43.957C150.905 42.7536 152.761 41.4674 155.189 40.0873C153.923 39.2041 153.284 38.2491 153.284 37.2224C153.284 36.5158 153.521 35.8148 154 35.1303C154.474 34.4402 155.189 33.7061 156.142 32.9277C155.013 32.5413 154.149 31.8513 153.548 30.8577C152.948 29.8696 152.651 28.6827 152.651 27.3082C152.651 26.8832 152.722 26.2484 152.86 25.3982C153.317 23.1736 154.396 21.3244 156.087 19.856C157.778 18.3877 159.699 17.6535 161.853 17.6535C163.295 17.6535 164.496 18.0454 165.448 18.8182C167.387 17.935 169.116 17.4934 170.63 17.4934C170.806 17.4934 170.894 17.7253 170.894 18.1834ZM162.568 44.4538C161.599 43.6589 160.162 42.7646 158.257 41.7765C157.199 41.2797 156.368 40.8381 155.773 40.4517C154.396 41.3018 153.312 42.1905 152.519 43.1289C151.726 44.0674 151.329 45.188 151.329 46.4962C151.329 48.0529 151.99 49.3225 153.312 50.3162C154.633 51.3043 156.335 51.8011 158.416 51.8011C160.217 51.8011 161.599 51.3926 162.568 50.5811C163.538 49.7697 164.022 48.7595 164.022 47.5616C164.022 46.292 163.538 45.2542 162.568 44.4593V44.4538ZM163.807 24.7082C163.807 23.0467 163.543 21.6225 163.014 20.4412C162.486 19.2599 161.676 18.6637 160.58 18.6637C159.595 18.6637 158.692 19.2102 157.882 20.3087C157.073 21.4072 156.544 22.7651 156.296 24.3936C156.192 25.067 156.137 25.735 156.137 26.4084C156.137 28.0369 156.434 29.4059 157.034 30.5154C157.634 31.6305 158.46 32.188 159.518 32.188C160.47 32.188 161.34 31.6746 162.133 30.6479C162.926 29.6212 163.444 28.2466 163.692 26.5133C163.763 26.1269 163.796 25.5252 163.796 24.7082H163.807Z" fill="#3F3926"/>
<path d="M193.863 34.3022C193.967 34.3022 194.055 34.363 194.127 34.4899C194.198 34.6169 194.198 34.7107 194.127 34.7825C192.893 36.2343 191.781 37.2831 190.795 37.9345C189.81 38.5859 188.84 38.9171 187.888 38.9171C187.183 38.9171 186.66 38.7128 186.329 38.3099C185.993 37.9014 185.828 37.261 185.828 36.3723C185.828 35.8424 185.916 35.0475 186.093 33.9876L187.15 28.1583C185.878 31.625 184.408 34.3188 182.734 36.2453C181.06 38.1719 179.286 39.1324 177.42 39.1324C175.024 39.1324 173.824 37.791 173.824 35.1027C173.824 34.4292 173.945 33.4411 174.193 32.1328L176.098 22.6934C176.203 22.1634 176.258 21.7218 176.258 21.3685C176.258 20.3418 175.922 19.8284 175.255 19.8284C174.589 19.8284 173.51 20.5681 172.029 22.053C171.957 22.1248 171.885 22.1579 171.819 22.1579C171.715 22.1579 171.627 22.0972 171.555 21.9702C171.483 21.8488 171.5 21.7329 171.61 21.628C172.811 20.2148 173.873 19.1715 174.809 18.4981C175.746 17.8246 176.671 17.4934 177.585 17.4934C178.961 17.4934 179.65 18.3601 179.65 20.0934C179.65 20.7669 179.545 21.6335 179.33 22.6934L177.64 31.1226C177.431 32.1825 177.32 33.0823 177.32 33.8275C177.32 35.7706 178.025 36.7421 179.435 36.7421C180.564 36.7421 181.715 36.0245 182.899 34.5948C184.077 33.1651 185.201 31.0785 186.258 28.3405C187.315 25.6025 188.18 22.3567 188.851 18.614V18.4539C188.923 18.1724 189.132 17.9516 189.485 17.7915C189.837 17.6314 190.333 17.5541 190.966 17.5541C191.88 17.5541 192.343 17.6756 192.343 17.924L192.133 18.9838C191.814 20.5019 191.621 21.4734 191.55 21.8985L189.38 33.7226C189.309 34.0428 189.275 34.4844 189.275 35.0475C189.275 36.146 189.611 36.6925 190.278 36.6925C190.663 36.6925 191.159 36.4882 191.759 36.0852C192.359 35.6768 193.009 35.1027 193.714 34.363C193.747 34.3298 193.802 34.3078 193.874 34.3078L193.863 34.3022Z" fill="#3F3926"/>
<path d="M211.98 17.9185C212.63 18.3436 212.96 18.9232 212.96 19.6684C212.96 20.7669 212.398 21.8157 211.27 22.8204C210.141 23.8251 208.643 24.7138 206.776 25.4701C204.909 26.2318 202.877 26.7894 200.697 27.1427C200.521 28.2743 200.432 29.2293 200.432 30.0076C200.432 32.166 200.906 33.8883 201.859 35.1745C202.811 36.4662 204.166 37.112 205.934 37.112C207.839 37.112 209.546 36.549 211.066 35.4174L211.17 35.3621C211.242 35.3621 211.314 35.4229 211.38 35.5498C211.451 35.6768 211.468 35.7706 211.435 35.8424C208.929 38.0008 206.303 39.0772 203.555 39.0772C201.264 39.0772 199.524 38.3541 198.345 36.9023C197.161 35.456 196.572 33.5791 196.572 31.2828C196.572 30.5044 196.66 29.6212 196.837 28.6331C197.189 26.7949 197.954 25.0008 199.138 23.251C200.317 21.5011 201.798 20.0714 203.582 18.9563C205.361 17.8412 207.239 17.2837 209.216 17.2837C210.416 17.2837 211.341 17.4935 211.991 17.9185H211.98ZM208.885 20.5185C208.885 19.9168 208.681 19.4697 208.279 19.1661C207.872 18.868 207.338 18.7134 206.666 18.7134C205.185 18.7134 203.94 19.4365 202.938 20.8883C201.936 22.3401 201.22 24.1949 200.796 26.4526C205.592 25.4645 208.252 23.7312 208.781 21.2582C208.852 20.9049 208.885 20.6565 208.885 20.5185Z" fill="#3F3926"/>
<path d="M231.121 18.2883C231.81 18.8182 232.151 19.4365 232.151 20.1431C232.151 20.673 231.964 21.1422 231.595 21.5507C231.226 21.9592 230.758 22.1579 230.191 22.1579C229.8 22.1579 229.486 22.0806 229.238 21.9206C228.99 21.7605 228.726 21.5231 228.445 21.2029C228.269 21.0263 228.082 20.8607 227.889 20.7006C227.696 20.5405 227.476 20.4632 227.228 20.4632C226.49 20.4632 225.615 21.4513 224.613 23.4331C223.61 25.4148 222.658 27.7995 221.755 30.5927C220.857 33.3859 220.213 35.8424 219.822 37.9621C219.717 38.5638 219.012 38.8619 217.707 38.8619C216.826 38.8619 216.386 38.7349 216.386 38.492C216.419 38.2823 216.534 37.7302 216.727 36.847C216.92 35.9638 217.068 35.1855 217.179 34.512L219.084 24.0679C219.227 23.2564 219.293 22.5278 219.293 21.893C219.293 20.4467 218.902 19.718 218.131 19.718C217.36 19.718 216.353 20.3915 215.009 21.7329C214.976 21.766 214.921 21.7881 214.849 21.7881C214.745 21.7881 214.657 21.7274 214.585 21.6004C214.513 21.4789 214.513 21.3796 214.585 21.3078C215.714 19.9995 216.755 19.039 217.707 18.4208C218.66 17.8025 219.591 17.4934 220.51 17.4934C221.248 17.4934 221.799 17.7253 222.151 18.1834C222.504 18.6416 222.68 19.4199 222.68 20.5184C222.68 21.3685 222.575 22.4615 222.36 23.8029L221.303 29.7923C222.393 26.2207 223.61 23.2785 224.954 20.9656C226.292 18.6526 227.636 17.4934 228.974 17.4934C229.712 17.4934 230.428 17.7584 231.116 18.2883H231.121Z" fill="#3F3926"/>
<path d="M252.515 34.3019C252.619 34.3019 252.718 34.3627 252.806 34.4896C252.894 34.6166 252.905 34.7104 252.834 34.7822C251.633 36.1622 250.56 37.1945 249.607 37.8845C248.654 38.5745 247.74 38.9168 246.859 38.9168C246.154 38.9168 245.631 38.707 245.301 38.282C244.965 37.8569 244.8 37.2055 244.8 36.3223C244.8 35.4391 244.888 34.5724 245.064 33.7223L245.912 28.7928C244.398 31.9724 242.641 34.4896 240.648 36.3499C238.654 38.2047 236.743 39.1321 234.91 39.1321C233.852 39.1321 233.032 38.8064 232.448 38.1495C231.864 37.4981 231.578 36.499 231.578 35.152C231.578 34.8319 231.611 34.324 231.683 33.6119C232.035 31.172 232.977 28.6714 234.513 26.1101C236.05 23.5487 237.856 21.4345 239.932 19.7729C242.013 18.1114 243.968 17.2834 245.802 17.2834C247.283 17.2834 248.484 17.7581 249.398 18.7131C250.07 18.15 250.527 17.5318 250.774 16.8583C250.846 16.7865 250.918 16.7534 250.984 16.7534C251.088 16.7534 251.193 16.781 251.303 16.8307C251.408 16.8859 251.446 16.9301 251.408 16.9632L248.285 33.7168C248.214 34.0701 248.181 34.5117 248.181 35.0416C248.181 36.1015 248.478 36.6314 249.078 36.6314C249.816 36.6314 250.912 35.8697 252.355 34.3516C252.388 34.3185 252.443 34.2964 252.515 34.2964V34.3019ZM241.066 34.2467C242.388 33.0102 243.572 31.4536 244.607 29.5822C245.648 27.7109 246.342 25.9058 246.694 24.1725C246.799 23.6757 246.854 23.2009 246.854 22.7428C246.854 21.716 246.589 20.9046 246.061 20.3029C245.532 19.7012 244.772 19.4031 243.786 19.4031C242.586 19.4031 241.391 19.8889 240.191 20.8604C238.99 21.8319 237.949 23.1678 237.068 24.8625C236.187 26.5572 235.587 28.4672 235.268 30.5869C235.124 31.7185 235.058 32.4582 235.058 32.8115C235.058 35.003 235.796 36.096 237.278 36.096C238.478 36.096 239.739 35.4777 241.061 34.2412L241.066 34.2467Z" fill="#3F3926"/>
</svg>
